<?xml version="1.0" encoding="UTF-8" standalone="no"?>
<!-- Created with Inkscape (http://www.inkscape.org/) -->

<svg
   width="140.84332mm"
   height="58.161053mm"
   viewBox="0 0 140.84332 58.161054"
   version="1.1"
   id="svg1"
   xml:space="preserve"
   xmlns:xlink="http://www.w3.org/1999/xlink"
   xmlns="http://www.w3.org/2000/svg"
   xmlns:svg="http://www.w3.org/2000/svg"><defs
     id="defs1"><linearGradient
       id="linearGradient228"><stop
         style="stop-color:#ffb1a0;stop-opacity:1;"
         offset="0"
         id="stop227" /><stop
         style="stop-color:#ff3600;stop-opacity:0;"
         offset="0.65057278"
         id="stop228" /></linearGradient><linearGradient
       id="linearGradient225"><stop
         style="stop-color:#ffd998;stop-opacity:1;"
         offset="0"
         id="stop225" /><stop
         style="stop-color:#000000;stop-opacity:0;"
         offset="0.70046347"
         id="stop226" /></linearGradient><linearGradient
       id="linearGradient152"><stop
         style="stop-color:#9592a1;stop-opacity:0.82736999;"
         offset="0"
         id="stop152" /><stop
         style="stop-color:#444673;stop-opacity:0;"
         offset="0.57562411"
         id="stop153" /></linearGradient><linearGradient
       xlink:href="#linearGradient152"
       id="linearGradient153"
       x1="100.16573"
       y1="81.771553"
       x2="100.45915"
       y2="229.57385"
       gradientUnits="userSpaceOnUse"
       gradientTransform="matrix(1.2665643,0,0,1.1538197,-27.037753,-15.755159)" /><linearGradient
       xlink:href="#linearGradient225"
       id="linearGradient226"
       x1="99.505127"
       y1="30.700579"
       x2="99.505135"
       y2="189.37862"
       gradientUnits="userSpaceOnUse" /><linearGradient
       xlink:href="#linearGradient228"
       id="linearGradient227"
       gradientUnits="userSpaceOnUse"
       x1="99.505127"
       y1="30.700579"
       x2="99.505135"
       y2="189.37862"
       gradientTransform="matrix(1.366833,0,0,1.2802608,-36.501773,-10.599147)" /></defs><g
     id="layer1"
     style="display:none"
     transform="translate(-29.486608,-140.82266)"><path
       id="rect26"
       style="display:inline;fill:#332421;fill-opacity:1;stroke:#000000;stroke-width:0;stroke-linecap:square;stroke-linejoin:miter;stroke-dasharray:none;stroke-opacity:1;paint-order:markers stroke fill"
       d="m 99.655211,100.82109 -70.710406,70.71093 70.710409,70.71041 70.710936,-70.71041 z m 0,35.87636 34.833019,34.83302 -34.833018,34.8325 -34.833017,-34.8325 z" /><path
       id="rect27"
       style="display:inline;fill:#ceb56b;fill-opacity:1;stroke:none;stroke-width:0.591502;stroke-linecap:square;stroke-linejoin:miter;stroke-dasharray:none;stroke-opacity:1;paint-order:markers stroke fill"
       d="m -75.277028,191.95741 h -25.392902 v 50.00018 h 50.000178 v -25.39291 l -24.606911,-3.6e-4 z"
       transform="rotate(-45)" /><path
       id="rect28"
       style="display:inline;fill:#ff4236;fill-opacity:1;stroke:none;stroke-width:0.591502;stroke-linecap:square;stroke-linejoin:miter;stroke-dasharray:none;stroke-opacity:1;paint-order:markers stroke fill"
       d="M -0.64618852,141.93384 H -50.646366 v 25.36952 h 24.630662 v 24.63066 h 25.36951548 z"
       transform="rotate(-45)" /><rect
       style="display:inline;fill:none;fill-opacity:1;stroke:#000000;stroke-width:0.5;stroke-linecap:square;stroke-linejoin:miter;stroke-dasharray:none;stroke-opacity:1;paint-order:markers stroke fill"
       id="rect4"
       width="49.261078"
       height="49.261078"
       x="-75.276779"
       y="167.30338"
       transform="rotate(-45)" /><rect
       style="display:inline;fill:none;fill-opacity:1;stroke:#000000;stroke-width:0.5;stroke-linecap:square;stroke-linejoin:round;stroke-dasharray:none;stroke-opacity:1;paint-order:markers stroke fill"
       id="rect424"
       width="100"
       height="100"
       x="-100.64743"
       y="141.9351"
       transform="rotate(-45)" /></g><g
     id="layer14"
     style="display:inline"
     transform="translate(-38.424634,-114.99568)"><path
       style="opacity:1;fill:#000000;fill-opacity:1;stroke:none;stroke-width:0.0873275;stroke-linecap:square;stroke-dasharray:none;stroke-opacity:0.527265;paint-order:markers stroke fill"
       d="m 56.741873,155.19037 c -1.038627,-0.0501 -1.049063,-0.031 -1.855852,0.22956 -0.487256,0.39959 -0.549829,1.04047 -0.212753,1.45848 0.332992,0.41589 0.905382,0.51035 1.416876,0.1076 0.422739,-0.67774 0.449146,-0.78093 0.651729,-1.79564 z"
       id="path726" /><path
       style="opacity:1;fill:#000000;fill-opacity:1;stroke:none;stroke-width:0.0753011;stroke-linecap:square;stroke-dasharray:none;stroke-opacity:0.527265;paint-order:markers stroke fill"
       d="m 66.159441,154.54246 c -0.892775,-0.083 -0.9025,-0.067 -1.607495,0.12645 -0.435085,0.32549 -0.513608,0.87517 -0.239302,1.2482 0.270871,0.37105 0.760313,0.47441 1.216398,0.14713 0.390196,-0.56759 0.416907,-0.65547 0.630399,-1.52178 z"
       id="path727" /><path
       style="opacity:1;fill:#000000;fill-opacity:1;stroke:none;stroke-width:0.0991923;stroke-linecap:square;stroke-dasharray:none;stroke-opacity:0.527265;paint-order:markers stroke fill"
       d="m 64.914686,162.13925 c -1.180119,-0.0484 -1.191817,-0.0266 -2.10607,0.27589 -0.550182,0.45784 -0.616024,1.18629 -0.22975,1.65833 0.38162,0.46967 1.032532,0.57229 1.610218,0.11066 0.474632,-0.77326 0.503783,-0.89069 0.725602,-2.04488 z"
       id="path728" /><path
       style="opacity:1;fill:#000000;fill-opacity:1;stroke:none;stroke-width:0.0957066;stroke-linecap:square;stroke-dasharray:none;stroke-opacity:0.527265;paint-order:markers stroke fill"
       d="m 73.34712,162.18479 c -1.132513,0.12696 -1.14047,0.14946 -1.967971,0.57203 -0.457517,0.51733 -0.413453,1.22167 0.02416,1.61517 0.432822,0.39191 1.068614,0.3943 1.551805,-0.13068 0.339203,-0.80703 0.349777,-0.92329 0.392006,-2.05652 z"
       id="path729" /><path
       style="opacity:1;fill:#000000;fill-opacity:1;stroke:none;stroke-width:0.0827125;stroke-linecap:square;stroke-dasharray:none;stroke-opacity:0.527265;paint-order:markers stroke fill"
       d="m 73.506679,171.08637 c -0.983348,0.0549 -0.9913,0.074 -1.725718,0.39867 -0.419736,0.42433 -0.415687,1.03421 -0.05706,1.39487 0.354572,0.35904 0.90307,0.39177 1.345329,-0.0379 0.331619,-0.68002 0.346351,-0.77983 0.43745,-1.75563 z"
       id="path730" /><path
       style="opacity:1;fill:none;fill-opacity:1;stroke:#000000;stroke-width:0.4;stroke-linecap:square;stroke-dasharray:none;stroke-opacity:1;paint-order:markers stroke fill"
       d="m 76.23863,142.93574 c -0.566472,-1.09946 -1.495012,-2.00855 -2.606218,-2.55162 -1.111207,-0.54307 -2.398968,-0.71714 -3.614477,-0.48857 -1.136763,0.21376 -2.186852,0.76445 -3.130313,1.43363 -0.943461,0.66918 -1.793886,1.45873 -2.669436,2.2146 -2.123245,1.83301 -4.432027,3.49184 -7.015826,4.58366 -2.980256,1.25935 -6.28981,1.72963 -9.502912,1.35032 -3.213102,-0.3793 -6.322179,-1.60728 -8.92727,-3.52598"
       id="path737" /><path
       style="opacity:1;fill:none;fill-opacity:1;stroke:#000000;stroke-width:0.4;stroke-linecap:square;stroke-dasharray:none;stroke-opacity:1;paint-order:markers stroke fill"
       d="m 38.670206,145.76711 c 4.355851,1.18786 9.027537,1.19544 13.387216,0.0217 2.681014,-0.7218 5.270782,-1.90121 7.390003,-3.69501 1.651368,-1.39779 2.993658,-3.14458 4.723987,-4.44335 1.306807,-0.98088 2.826157,-1.6891 4.431244,-1.99497 1.605087,-0.30588 3.294817,-0.20258 4.829645,0.35793 2.221404,0.81124 4.066001,2.59915 4.946158,4.79416"
       id="path738" /><path
       style="opacity:1;fill:none;fill-opacity:1;stroke:#000000;stroke-width:0.4;stroke-linecap:square;stroke-dasharray:none;stroke-opacity:1;paint-order:markers stroke fill"
       d="m 38.817858,145.38585 c 5.129585,-0.13691 10.219461,-1.57039 14.666567,-4.13059 2.701584,-1.5553 5.152856,-3.50748 7.786997,-5.17446 2.634142,-1.66698 5.532245,-3.07024 8.637604,-3.34277 2.183419,-0.19162 4.414915,0.19417 6.407272,1.1077 1.992357,0.91354 3.740875,2.35267 5.020501,4.13216"
       id="path739" /><path
       style="opacity:1;fill:none;fill-opacity:1;stroke:#000000;stroke-width:0.463446;stroke-linecap:square;stroke-dasharray:none;stroke-opacity:1;paint-order:markers stroke fill"
       d="m 54.781901,129.5589 c 0.981132,-0.33811 1.93298,-0.76116 2.841409,-1.26285 1.959906,-1.08239 3.707705,-2.52378 5.694153,-3.55665 0.993224,-0.51643 2.048996,-0.92964 3.152576,-1.11755 1.103579,-0.18791 2.259041,-0.14357 3.314034,0.23085 1.108642,0.39346 2.10459,1.17852 2.605444,2.24296 0.250428,0.53223 0.373489,1.12666 0.333762,1.71351 -0.03973,0.58686 -0.24467,1.16452 -0.6006,1.6328 -0.352893,0.46429 -0.851697,0.81567 -1.407191,0.99321 -0.555494,0.17755 -1.16511,0.1807 -1.722893,0.0105 -0.557783,-0.17022 -1.061396,-0.51284 -1.425832,-0.96812 -0.364436,-0.45529 -0.588369,-1.02119 -0.635793,-1.60244 -0.04953,-0.6071 0.09861,-1.23802 0.460224,-1.72819 0.180805,-0.24509 0.41295,-0.45308 0.679991,-0.59953 0.267041,-0.14644 0.568946,-0.23061 0.873457,-0.23609 0.304512,-0.005 0.611035,0.0685 0.875985,0.21872 0.264951,0.15019 0.48708,0.37693 0.625376,0.64829 0.138297,0.27135 0.1912,0.58663 0.14194,0.88718 -0.04926,0.30055 -0.201626,0.58437 -0.429692,0.78622 -0.168437,0.14908 -0.376556,0.2529 -0.596961,0.29779 -0.220406,0.0449 -0.452553,0.0308 -0.665883,-0.0405"
       id="path741"
       transform="matrix(0.86309909,0,0,0.86309909,6.6817236,18.491354)" /><path
       style="opacity:1;fill:none;fill-opacity:1;stroke:#000000;stroke-width:0.463446;stroke-linecap:square;stroke-dasharray:none;stroke-opacity:1;paint-order:markers stroke fill"
       d="m 54.781901,129.5589 c 0.981132,-0.33811 1.93298,-0.76116 2.841409,-1.26285 1.959906,-1.08239 3.707705,-2.52378 5.694153,-3.55665 0.993224,-0.51643 2.048996,-0.92964 3.152576,-1.11755 1.103579,-0.18791 2.259041,-0.14357 3.314034,0.23085 1.108642,0.39346 2.10459,1.17852 2.605444,2.24296 0.250428,0.53223 0.373489,1.12666 0.333762,1.71351 -0.03973,0.58686 -0.24467,1.16452 -0.6006,1.6328 -0.352893,0.46429 -0.851697,0.81567 -1.407191,0.99321 -0.555494,0.17755 -1.16511,0.1807 -1.722893,0.0105 -0.557783,-0.17022 -1.061396,-0.51284 -1.425832,-0.96812 -0.364436,-0.45529 -0.588369,-1.02119 -0.635793,-1.60244 -0.04953,-0.6071 0.09861,-1.23802 0.460224,-1.72819 0.180805,-0.24509 0.41295,-0.45308 0.679991,-0.59953 0.267041,-0.14644 0.568946,-0.23061 0.873457,-0.23609 0.304512,-0.005 0.611035,0.0685 0.875985,0.21872 0.264951,0.15019 0.48708,0.37693 0.625376,0.64829 0.138297,0.27135 0.1912,0.58663 0.14194,0.88718 -0.04926,0.30055 -0.201626,0.58437 -0.429692,0.78622 -0.168437,0.14908 -0.376556,0.2529 -0.596961,0.29779 -0.220406,0.0449 -0.452553,0.0308 -0.665883,-0.0405"
       id="path742"
       transform="matrix(0.73135824,0.45831776,-0.45831776,0.73135824,81.230059,2.507367)" /><path
       style="opacity:1;fill:none;fill-opacity:1;stroke:#000000;stroke-width:0.463446;stroke-linecap:square;stroke-dasharray:none;stroke-opacity:1;paint-order:markers stroke fill"
       d="m 54.781901,129.5589 c 0.981132,-0.33811 1.93298,-0.76116 2.841409,-1.26285 1.959906,-1.08239 3.707705,-2.52378 5.694153,-3.55665 0.993224,-0.51643 2.048996,-0.92964 3.152576,-1.11755 1.103579,-0.18791 2.259041,-0.14357 3.314034,0.23085 1.108642,0.39346 2.10459,1.17852 2.605444,2.24296 0.250428,0.53223 0.373489,1.12666 0.333762,1.71351 -0.03973,0.58686 -0.24467,1.16452 -0.6006,1.6328 -0.352893,0.46429 -0.851697,0.81567 -1.407191,0.99321 -0.555494,0.17755 -1.16511,0.1807 -1.722893,0.0105 -0.557783,-0.17022 -1.061396,-0.51284 -1.425832,-0.96812 -0.364436,-0.45529 -0.588369,-1.02119 -0.635793,-1.60244 -0.04953,-0.6071 0.09861,-1.23802 0.460224,-1.72819 0.180805,-0.24509 0.41295,-0.45308 0.679991,-0.59953 0.267041,-0.14644 0.568946,-0.23061 0.873457,-0.23609 0.304512,-0.005 0.611035,0.0685 0.875985,0.21872 0.264951,0.15019 0.48708,0.37693 0.625376,0.64829 0.138297,0.27135 0.1912,0.58663 0.14194,0.88718 -0.04926,0.30055 -0.201626,0.58437 -0.429692,0.78622 -0.168437,0.14908 -0.376556,0.2529 -0.596961,0.29779 -0.220406,0.0449 -0.452553,0.0308 -0.665883,-0.0405"
       id="path743"
       transform="matrix(0.5860575,0.63362186,-0.63362186,0.5860575,119.13269,4.6265038)" /><path
       style="opacity:1;fill:#000000;fill-opacity:1;stroke:none;stroke-width:0.0693972;stroke-linecap:square;stroke-dasharray:none;stroke-opacity:0.527265;paint-order:markers stroke fill"
       d="m 75.942869,130.88355 c 0.145399,0.8232 0.161955,0.82842 0.505258,1.4214 0.393702,0.32051 0.897861,0.27017 1.159768,-0.0594 0.261005,-0.32598 0.232317,-0.79003 -0.168117,-1.12909 -0.596285,-0.22669 -0.680358,-0.2314 -1.496909,-0.23295 z"
       id="path745" /><path
       style="opacity:1;fill:#000000;fill-opacity:1;stroke:none;stroke-width:0.0693972;stroke-linecap:square;stroke-dasharray:none;stroke-opacity:0.527265;paint-order:markers stroke fill"
       d="m 80.918806,129.94001 c 0.08266,0.83185 0.09877,0.83831 0.396192,1.45558 0.368305,0.34939 0.874829,0.33737 1.160936,0.0286 0.284936,-0.30528 0.291465,-0.77017 -0.08215,-1.13857 -0.577411,-0.27119 -0.660886,-0.28225 -1.474976,-0.34562 z"
       id="path746" /><path
       style="opacity:1;fill:#000000;fill-opacity:1;stroke:none;stroke-width:0.0693972;stroke-linecap:square;stroke-dasharray:none;stroke-opacity:0.527265;paint-order:markers stroke fill"
       d="m 81.432973,126.66675 c 0.145399,0.8232 0.161955,0.82842 0.505258,1.4214 0.393702,0.32051 0.897861,0.27017 1.159768,-0.0594 0.261005,-0.32598 0.232317,-0.79003 -0.168117,-1.12909 -0.596285,-0.22669 -0.680358,-0.2314 -1.496909,-0.23295 z"
       id="path747" /><path
       style="opacity:1;fill:#000000;fill-opacity:1;stroke:none;stroke-width:0.0693972;stroke-linecap:square;stroke-dasharray:none;stroke-opacity:0.527265;paint-order:markers stroke fill"
       d="m 85.352114,125.40998 c 0.145399,0.8232 0.161955,0.82842 0.505258,1.4214 0.393702,0.32051 0.897861,0.27017 1.159768,-0.0594 0.261005,-0.32598 0.232317,-0.79003 -0.168117,-1.12909 -0.596285,-0.22669 -0.680358,-0.2314 -1.496909,-0.23295 z"
       id="path748" /><path
       style="opacity:1;fill:#000000;fill-opacity:1;stroke:none;stroke-width:0.0693972;stroke-linecap:square;stroke-dasharray:none;stroke-opacity:0.527265;paint-order:markers stroke fill"
       d="m 85.087531,129.74253 c 0.145399,0.8232 0.161955,0.82842 0.505258,1.4214 0.393702,0.32051 0.897861,0.27017 1.159768,-0.0594 0.261005,-0.32598 0.232317,-0.79003 -0.168117,-1.12909 -0.596285,-0.22669 -0.680358,-0.2314 -1.496909,-0.23295 z"
       id="path749" /><path
       style="opacity:1;fill:#000000;fill-opacity:1;stroke:none;stroke-width:0.0693972;stroke-linecap:square;stroke-dasharray:none;stroke-opacity:0.527265;paint-order:markers stroke fill"
       d="m 80.920344,133.66167 c 0.145399,0.8232 0.161955,0.82842 0.505258,1.4214 0.393702,0.32051 0.897861,0.27017 1.159768,-0.0594 0.261005,-0.32598 0.232317,-0.79003 -0.168117,-1.12909 -0.596285,-0.22669 -0.680358,-0.2314 -1.496909,-0.23295 z"
       id="path750" /><path
       style="opacity:1;fill:none;fill-opacity:1;stroke:#000000;stroke-width:0.542756;stroke-linecap:square;stroke-dasharray:none;stroke-opacity:1;paint-order:markers stroke fill"
       d="m 54.781901,129.5589 c 0.981132,-0.33811 1.93298,-0.76116 2.841409,-1.26285 1.959906,-1.08239 3.707705,-2.52378 5.694153,-3.55665 0.993224,-0.51643 2.048996,-0.92964 3.152576,-1.11755 1.103579,-0.18791 2.259041,-0.14357 3.314034,0.23085 1.108642,0.39346 2.10459,1.17852 2.605444,2.24296 0.250428,0.53223 0.373489,1.12666 0.333762,1.71351 -0.03973,0.58686 -0.24467,1.16452 -0.6006,1.6328 -0.352893,0.46429 -0.851697,0.81567 -1.407191,0.99321 -0.555494,0.17755 -1.16511,0.1807 -1.722893,0.0105 -0.557783,-0.17022 -1.061396,-0.51284 -1.425832,-0.96812 -0.364436,-0.45529 -0.588369,-1.02119 -0.635793,-1.60244 -0.04953,-0.6071 0.09861,-1.23802 0.460224,-1.72819 0.180805,-0.24509 0.41295,-0.45308 0.679991,-0.59953 0.267041,-0.14644 0.568946,-0.23061 0.873457,-0.23609 0.304512,-0.005 0.611035,0.0685 0.875985,0.21872 0.264951,0.15019 0.48708,0.37693 0.625376,0.64829 0.138297,0.27135 0.1912,0.58663 0.14194,0.88718 -0.04926,0.30055 -0.201626,0.58437 -0.429692,0.78622 -0.168437,0.14908 -0.376556,0.2529 -0.596961,0.29779 -0.220406,0.0449 -0.452553,0.0308 -0.665883,-0.0405"
       id="path752"
       transform="matrix(-0.0107239,0.7369014,0.7369014,0.0107239,-12.424054,112.81011)" /><path
       style="opacity:1;fill:none;fill-opacity:1;stroke:#000000;stroke-width:0.758876;stroke-linecap:square;stroke-dasharray:none;stroke-opacity:1;paint-order:markers stroke fill"
       d="m 54.781901,129.5589 c 0.981132,-0.33811 1.93298,-0.76116 2.841409,-1.26285 1.959906,-1.08239 3.707705,-2.52378 5.694153,-3.55665 0.993224,-0.51643 2.048996,-0.92964 3.152576,-1.11755 1.103579,-0.18791 2.259041,-0.14357 3.314034,0.23085 1.108642,0.39346 2.10459,1.17852 2.605444,2.24296 0.250428,0.53223 0.373489,1.12666 0.333762,1.71351 -0.03973,0.58686 -0.24467,1.16452 -0.6006,1.6328 -0.352893,0.46429 -0.851697,0.81567 -1.407191,0.99321 -0.555494,0.17755 -1.16511,0.1807 -1.722893,0.0105 -0.557783,-0.17022 -1.061396,-0.51284 -1.425832,-0.96812 -0.364436,-0.45529 -0.588369,-1.02119 -0.635793,-1.60244 -0.04953,-0.6071 0.09861,-1.23802 0.460224,-1.72819 0.180805,-0.24509 0.41295,-0.45308 0.679991,-0.59953 0.267041,-0.14644 0.568946,-0.23061 0.873457,-0.23609 0.304512,-0.005 0.611035,0.0685 0.875985,0.21872 0.264951,0.15019 0.48708,0.37693 0.625376,0.64829 0.138297,0.27135 0.1912,0.58663 0.14194,0.88718 -0.04926,0.30055 -0.201626,0.58437 -0.429692,0.78622 -0.168437,0.14908 -0.376556,0.2529 -0.596961,0.29779 -0.220406,0.0449 -0.452553,0.0308 -0.665883,-0.0405"
       id="path753"
       transform="matrix(0.08901094,0.51952512,0.51952512,-0.08901094,12.091528,139.45396)" /><path
       style="opacity:1;fill:none;fill-opacity:1;stroke:#000000;stroke-width:0.906475;stroke-linecap:square;stroke-dasharray:none;stroke-opacity:1;paint-order:markers stroke fill"
       d="m 54.781901,129.5589 c 0.981132,-0.33811 1.93298,-0.76116 2.841409,-1.26285 1.959906,-1.08239 3.707705,-2.52378 5.694153,-3.55665 0.993224,-0.51643 2.048996,-0.92964 3.152576,-1.11755 1.103579,-0.18791 2.259041,-0.14357 3.314034,0.23085 1.108642,0.39346 2.10459,1.17852 2.605444,2.24296 0.250428,0.53223 0.373489,1.12666 0.333762,1.71351 -0.03973,0.58686 -0.24467,1.16452 -0.6006,1.6328 -0.352893,0.46429 -0.851697,0.81567 -1.407191,0.99321 -0.555494,0.17755 -1.16511,0.1807 -1.722893,0.0105 -0.557783,-0.17022 -1.061396,-0.51284 -1.425832,-0.96812 -0.364436,-0.45529 -0.588369,-1.02119 -0.635793,-1.60244 -0.04953,-0.6071 0.09861,-1.23802 0.460224,-1.72819 0.180805,-0.24509 0.41295,-0.45308 0.679991,-0.59953 0.267041,-0.14644 0.568946,-0.23061 0.873457,-0.23609 0.304512,-0.005 0.611035,0.0685 0.875985,0.21872 0.264951,0.15019 0.48708,0.37693 0.625376,0.64829 0.138297,0.27135 0.1912,0.58663 0.14194,0.88718 -0.04926,0.30055 -0.201626,0.58437 -0.429692,0.78622 -0.168437,0.14908 -0.376556,0.2529 -0.596961,0.29779 -0.220406,0.0449 -0.452553,0.0308 -0.665883,-0.0405"
       id="path755"
       transform="matrix(0.15439425,0.41337823,0.41337823,-0.15439425,24.217489,155.27799)" /><path
       style="opacity:1;fill:#000000;fill-opacity:1;stroke:none;stroke-width:0.725758;stroke-linecap:square;stroke-dasharray:none;stroke-opacity:1;paint-order:markers stroke fill"
       id="path764"
       d="m 146.19987,62.52877 a 2.6426275,2.1749058 0 0 1 2.64263,-2.174905 2.6426275,2.1749058 0 0 1 2.64263,2.174905"
       transform="rotate(42.831938)" /><path
       style="opacity:1;fill:#000000;fill-opacity:1;stroke:none;stroke-width:0.736555;stroke-linecap:square;stroke-dasharray:none;stroke-opacity:1;paint-order:markers stroke fill"
       id="path765"
       d="m 149.09975,62.52877 a 2.0579753,2.8764882 0 0 1 2.05798,-2.876488 2.0579753,2.8764882 0 0 1 2.05798,2.876488"
       transform="rotate(42.831938)" /><path
       style="opacity:1;fill:#000000;fill-opacity:1;stroke:none;stroke-width:0.571306;stroke-linecap:square;stroke-dasharray:none;stroke-opacity:1;paint-order:markers stroke fill"
       id="path766"
       d="m 151.60206,62.52877 a 2.0579753,1.7305702 0 0 1 2.05797,-1.73057 2.0579753,1.7305702 0 0 1 2.05798,1.73057"
       transform="rotate(42.831938)" /><path
       style="opacity:1;fill:#000000;fill-opacity:1;stroke:none;stroke-width:0.414749;stroke-linecap:square;stroke-dasharray:none;stroke-opacity:1;paint-order:markers stroke fill"
       id="path767"
       d="m 154.36161,62.52877 a 2.0579753,0.91205728 0 0 1 2.05798,-0.912057 2.0579753,0.91205728 0 0 1 2.05797,0.912057"
       transform="rotate(42.831938)" /><path
       style="opacity:1;fill:#000000;fill-opacity:1;stroke:none;stroke-width:0.736555;stroke-linecap:square;stroke-dasharray:none;stroke-opacity:1;paint-order:markers stroke fill"
       id="path768"
       d="m 156.3942,60.868771 a 2.0579753,2.8764882 0 0 1 2.05798,-2.876489 2.0579753,2.8764882 0 0 1 2.05797,2.876489"
       transform="rotate(42.831938)" /><path
       style="opacity:1;fill:#000000;fill-opacity:1;stroke:none;stroke-width:0.571306;stroke-linecap:square;stroke-dasharray:none;stroke-opacity:1;paint-order:markers stroke fill"
       id="path769"
       d="m 161.5044,60.908993 a 2.0579753,1.7305702 0 0 1 2.05798,-1.73057 2.0579753,1.7305702 0 0 1 2.05797,1.73057"
       transform="rotate(42.831938)" /><path
       style="opacity:1;fill:#000000;fill-opacity:1;stroke:none;stroke-width:0.736555;stroke-linecap:square;stroke-dasharray:none;stroke-opacity:1;paint-order:markers stroke fill"
       id="path770"
       d="m 159.51722,60.898811 a 2.0579753,2.8764882 0 0 1 2.05798,-2.876488 2.0579753,2.8764882 0 0 1 2.05797,2.876488"
       transform="rotate(42.831938)" /><path
       style="opacity:1;fill:#000000;fill-opacity:1;stroke:none;stroke-width:0.0693972;stroke-linecap:square;stroke-dasharray:none;stroke-opacity:0.527265;paint-order:markers stroke fill"
       d="m 48.413688,139.18079 c 0.145399,0.8232 0.161955,0.82842 0.505258,1.4214 0.393702,0.32051 0.897861,0.27017 1.159768,-0.0594 0.261005,-0.32598 0.232317,-0.79003 -0.168117,-1.12909 -0.596285,-0.22669 -0.680358,-0.2314 -1.496909,-0.23295 z"
       id="path771" /><path
       style="opacity:1;fill:#000000;fill-opacity:1;stroke:none;stroke-width:0.0693972;stroke-linecap:square;stroke-dasharray:none;stroke-opacity:0.527265;paint-order:markers stroke fill"
       d="m 52.94905,135.41235 c 0.08266,0.83185 0.09877,0.83831 0.396192,1.45558 0.368305,0.34939 0.874829,0.33737 1.160936,0.0286 0.284936,-0.30528 0.291465,-0.77017 -0.08215,-1.13857 -0.577411,-0.27119 -0.660886,-0.28225 -1.474976,-0.34562 z"
       id="path772" /><path
       style="opacity:1;fill:#000000;fill-opacity:1;stroke:none;stroke-width:0.0693972;stroke-linecap:square;stroke-dasharray:none;stroke-opacity:0.527265;paint-order:markers stroke fill"
       d="m 57.140458,131.95931 c 0.145399,0.8232 0.161955,0.82842 0.505258,1.4214 0.393702,0.32051 0.897861,0.27017 1.159768,-0.0594 0.261005,-0.32598 0.232317,-0.79003 -0.168117,-1.12909 -0.596285,-0.22669 -0.680358,-0.2314 -1.496909,-0.23295 z"
       id="path773" /></g><g
     id="g804"
     style="display:inline"
     transform="matrix(-1,0,0,0.95600908,179.26237,-108.58607)"><path
       style="opacity:1;fill:#000000;fill-opacity:1;stroke:none;stroke-width:0.081037;stroke-linecap:square;stroke-dasharray:none;stroke-opacity:0.527265;paint-order:markers stroke fill"
       d="m 56.659756,155.26353 c -0.963812,-0.0465 -0.973496,-0.0287 -1.722169,0.21303 -0.452158,0.3708 -0.510223,0.96552 -0.197429,1.35342 0.309007,0.38594 0.840165,0.47359 1.314815,0.0999 0.392288,-0.62892 0.416793,-0.72468 0.604783,-1.6663 z"
       id="path774" /><path
       style="opacity:1;fill:#000000;fill-opacity:1;stroke:none;stroke-width:0.0735989;stroke-linecap:square;stroke-dasharray:none;stroke-opacity:0.527265;paint-order:markers stroke fill"
       d="m 66.136766,154.56134 c -0.872597,-0.0812 -0.882102,-0.0655 -1.571164,0.12359 -0.425252,0.31814 -0.502,0.85539 -0.233893,1.21999 0.264749,0.36267 0.743129,0.46369 1.188906,0.1438 0.381377,-0.55475 0.407485,-0.64065 0.616151,-1.48738 z"
       id="path775" /><path
       style="opacity:1;fill:#000000;fill-opacity:1;stroke:none;stroke-width:0.092409;stroke-linecap:square;stroke-dasharray:none;stroke-opacity:0.527265;paint-order:markers stroke fill"
       d="m 64.826439,162.2187 c -1.099416,-0.0451 -1.110314,-0.0248 -1.962046,0.25702 -0.512558,0.42653 -0.573897,1.10516 -0.214038,1.54493 0.355522,0.43754 0.961921,0.53315 1.500103,0.10308 0.442174,-0.72037 0.469332,-0.82977 0.675981,-1.90503 z"
       id="path776" /><path
       style="opacity:1;fill:#000000;fill-opacity:1;stroke:none;stroke-width:0.101346;stroke-linecap:square;stroke-dasharray:none;stroke-opacity:0.527265;paint-order:markers stroke fill"
       d="m 74.539121,160.52074 c -1.199238,0.13444 -1.207665,0.15827 -2.083921,0.60574 -0.484474,0.54781 -0.437813,1.29364 0.02558,1.71033 0.458324,0.415 1.131576,0.41753 1.643236,-0.13838 0.359189,-0.85457 0.370385,-0.97769 0.415105,-2.17769 z"
       id="path777" /><path
       style="opacity:1;fill:#000000;fill-opacity:1;stroke:none;stroke-width:0.0979469;stroke-linecap:square;stroke-dasharray:none;stroke-opacity:0.527265;paint-order:markers stroke fill"
       d="m 73.695145,170.8957 c -1.164467,0.065 -1.173884,0.0876 -2.043571,0.4721 -0.497046,0.50248 -0.492251,1.2247 -0.06757,1.65178 0.419878,0.42518 1.069402,0.46394 1.593118,-0.0449 0.392698,-0.80526 0.410144,-0.92345 0.518023,-2.07899 z"
       id="path778" /><path
       style="opacity:1;fill:none;fill-opacity:1;stroke:#000000;stroke-width:0.4091;stroke-linecap:square;stroke-dasharray:none;stroke-opacity:1;paint-order:markers stroke fill"
       d="m 76.139411,142.83196 c -0.572502,-1.06625 -1.490516,-1.94343 -2.581695,-2.46686 -1.091179,-0.52342 -2.349874,-0.69039 -3.539781,-0.46955 -1.13744,0.2111 -2.188251,0.76162 -3.13159,1.43128 -0.943339,0.66966 -1.793007,1.46035 -2.668159,2.21695 -2.122007,1.83455 -4.431639,3.49257 -7.015826,4.58366 -2.980474,1.2584 -6.289805,1.72815 -9.50274,1.34886 -3.212935,-0.37928 -6.321918,-1.6067 -8.927442,-3.52452"
       id="path779" /><path
       style="opacity:1;fill:none;fill-opacity:1;stroke:#000000;stroke-width:0.4091;stroke-linecap:square;stroke-dasharray:none;stroke-opacity:1;paint-order:markers stroke fill"
       d="m 38.670206,145.76711 c 4.355867,1.18778 9.027521,1.19535 13.387216,0.0217 2.681036,-0.72175 5.270869,-1.90109 7.390003,-3.69501 1.651299,-1.39788 2.993437,-3.14487 4.723987,-4.44335 1.306869,-0.98058 2.826345,-1.68819 4.431347,-1.99383 1.605003,-0.30563 3.294415,-0.20252 4.829542,0.35679 2.148203,0.78268 3.948448,2.47403 4.863476,4.56929"
       id="path780" /><path
       style="opacity:1;fill:none;fill-opacity:1;stroke:#000000;stroke-width:0.4091;stroke-linecap:square;stroke-dasharray:none;stroke-opacity:1;paint-order:markers stroke fill"
       d="m 38.817858,145.38585 c 5.129491,-0.13777 10.219094,-1.57117 14.666567,-4.13059 2.701756,-1.5548 5.153452,-3.50623 7.787661,-5.17291 2.63421,-1.66668 5.531833,-3.07009 8.63694,-3.34432 2.139598,-0.18896 4.325726,0.17539 6.288388,1.04805 1.962662,0.87267 3.697605,2.25175 4.990557,3.96694"
       id="path781" /><path
       style="opacity:1;fill:none;fill-opacity:1;stroke:#000000;stroke-width:0.473989;stroke-linecap:square;stroke-dasharray:none;stroke-opacity:1;paint-order:markers stroke fill"
       d="m 54.781901,129.5589 c 0.981132,-0.33811 1.93298,-0.76116 2.841409,-1.26285 1.959906,-1.08239 3.707705,-2.52378 5.694153,-3.55665 0.993224,-0.51643 2.048996,-0.92964 3.152576,-1.11755 1.103579,-0.18791 2.259041,-0.14357 3.314034,0.23085 1.108642,0.39346 2.10459,1.17852 2.605444,2.24296 0.250428,0.53223 0.373489,1.12666 0.333762,1.71351 -0.03973,0.58686 -0.24467,1.16452 -0.6006,1.6328 -0.352893,0.46429 -0.851697,0.81567 -1.407191,0.99321 -0.555494,0.17755 -1.16511,0.1807 -1.722893,0.0105 -0.557783,-0.17022 -1.061396,-0.51284 -1.425832,-0.96812 -0.364436,-0.45529 -0.588369,-1.02119 -0.635793,-1.60244 -0.04953,-0.6071 0.09861,-1.23802 0.460224,-1.72819 0.180805,-0.24509 0.41295,-0.45308 0.679991,-0.59953 0.267041,-0.14644 0.568946,-0.23061 0.873457,-0.23609 0.304512,-0.005 0.611035,0.0685 0.875985,0.21872 0.264951,0.15019 0.48708,0.37693 0.625376,0.64829 0.138297,0.27135 0.1912,0.58663 0.14194,0.88718 -0.04926,0.30055 -0.201626,0.58437 -0.429692,0.78622 -0.168437,0.14908 -0.376556,0.2529 -0.596961,0.29779 -0.220406,0.0449 -0.452553,0.0308 -0.665883,-0.0405"
       id="path782"
       transform="matrix(0.86309909,0,0,0.86309909,6.1525569,18.283785)" /><path
       style="opacity:1;fill:none;fill-opacity:1;stroke:#000000;stroke-width:0.473989;stroke-linecap:square;stroke-dasharray:none;stroke-opacity:1;paint-order:markers stroke fill"
       d="m 54.781901,129.5589 c 0.981132,-0.33811 1.93298,-0.76116 2.841409,-1.26285 1.959906,-1.08239 3.707705,-2.52378 5.694153,-3.55665 0.993224,-0.51643 2.048996,-0.92964 3.152576,-1.11755 1.103579,-0.18791 2.259041,-0.14357 3.314034,0.23085 1.108642,0.39346 2.10459,1.17852 2.605444,2.24296 0.250428,0.53223 0.373489,1.12666 0.333762,1.71351 -0.03973,0.58686 -0.24467,1.16452 -0.6006,1.6328 -0.352893,0.46429 -0.851697,0.81567 -1.407191,0.99321 -0.555494,0.17755 -1.16511,0.1807 -1.722893,0.0105 -0.557783,-0.17022 -1.061396,-0.51284 -1.425832,-0.96812 -0.364436,-0.45529 -0.588369,-1.02119 -0.635793,-1.60244 -0.04953,-0.6071 0.09861,-1.23802 0.460224,-1.72819 0.180805,-0.24509 0.41295,-0.45308 0.679991,-0.59953 0.267041,-0.14644 0.568946,-0.23061 0.873457,-0.23609 0.304512,-0.005 0.611035,0.0685 0.875985,0.21872 0.264951,0.15019 0.48708,0.37693 0.625376,0.64829 0.138297,0.27135 0.1912,0.58663 0.14194,0.88718 -0.04926,0.30055 -0.201626,0.58437 -0.429692,0.78622 -0.168437,0.14908 -0.376556,0.2529 -0.596961,0.29779 -0.220406,0.0449 -0.452553,0.0308 -0.665883,-0.0405"
       id="path783"
       transform="matrix(0.73135824,0.45831776,-0.45831776,0.73135824,80.568601,1.8154716)" /><path
       style="opacity:1;fill:none;fill-opacity:1;stroke:#000000;stroke-width:0.473989;stroke-linecap:square;stroke-dasharray:none;stroke-opacity:1;paint-order:markers stroke fill"
       d="m 54.781901,129.5589 c 0.981132,-0.33811 1.93298,-0.76116 2.841409,-1.26285 1.959906,-1.08239 3.707705,-2.52378 5.694153,-3.55665 0.993224,-0.51643 2.048996,-0.92964 3.152576,-1.11755 1.103579,-0.18791 2.259041,-0.14357 3.314034,0.23085 1.108642,0.39346 2.10459,1.17852 2.605444,2.24296 0.250428,0.53223 0.373489,1.12666 0.333762,1.71351 -0.03973,0.58686 -0.24467,1.16452 -0.6006,1.6328 -0.352893,0.46429 -0.851697,0.81567 -1.407191,0.99321 -0.555494,0.17755 -1.16511,0.1807 -1.722893,0.0105 -0.557783,-0.17022 -1.061396,-0.51284 -1.425832,-0.96812 -0.364436,-0.45529 -0.588369,-1.02119 -0.635793,-1.60244 -0.04953,-0.6071 0.09861,-1.23802 0.460224,-1.72819 0.180805,-0.24509 0.41295,-0.45308 0.679991,-0.59953 0.267041,-0.14644 0.568946,-0.23061 0.873457,-0.23609 0.304512,-0.005 0.611035,0.0685 0.875985,0.21872 0.264951,0.15019 0.48708,0.37693 0.625376,0.64829 0.138297,0.27135 0.1912,0.58663 0.14194,0.88718 -0.04926,0.30055 -0.201626,0.58437 -0.429692,0.78622 -0.168437,0.14908 -0.376556,0.2529 -0.596961,0.29779 -0.220406,0.0449 -0.452553,0.0308 -0.665883,-0.0405"
       id="path784"
       transform="matrix(0.5860575,0.63362186,-0.63362186,0.5860575,118.6366,3.6232554)" /><path
       style="opacity:1;fill:#000000;fill-opacity:1;stroke:none;stroke-width:0.0693972;stroke-linecap:square;stroke-dasharray:none;stroke-opacity:0.527265;paint-order:markers stroke fill"
       d="m 75.942869,130.88355 c 0.145399,0.8232 0.161955,0.82842 0.505258,1.4214 0.393702,0.32051 0.897861,0.27017 1.159768,-0.0594 0.261005,-0.32598 0.232317,-0.79003 -0.168117,-1.12909 -0.596285,-0.22669 -0.680358,-0.2314 -1.496909,-0.23295 z"
       id="path785" /><path
       style="opacity:1;fill:#000000;fill-opacity:1;stroke:none;stroke-width:0.0693972;stroke-linecap:square;stroke-dasharray:none;stroke-opacity:0.527265;paint-order:markers stroke fill"
       d="m 80.918806,129.94001 c 0.08266,0.83185 0.09877,0.83831 0.396192,1.45558 0.368305,0.34939 0.874829,0.33737 1.160936,0.0286 0.284936,-0.30528 0.291465,-0.77017 -0.08215,-1.13857 -0.577411,-0.27119 -0.660886,-0.28225 -1.474976,-0.34562 z"
       id="path786" /><path
       style="opacity:1;fill:#000000;fill-opacity:1;stroke:none;stroke-width:0.0693972;stroke-linecap:square;stroke-dasharray:none;stroke-opacity:0.527265;paint-order:markers stroke fill"
       d="m 81.432973,126.66675 c 0.145399,0.8232 0.161955,0.82842 0.505258,1.4214 0.393702,0.32051 0.897861,0.27017 1.159768,-0.0594 0.261005,-0.32598 0.232317,-0.79003 -0.168117,-1.12909 -0.596285,-0.22669 -0.680358,-0.2314 -1.496909,-0.23295 z"
       id="path787" /><path
       style="opacity:1;fill:#000000;fill-opacity:1;stroke:none;stroke-width:0.0693972;stroke-linecap:square;stroke-dasharray:none;stroke-opacity:0.527265;paint-order:markers stroke fill"
       d="m 85.352114,125.40998 c 0.145399,0.8232 0.161955,0.82842 0.505258,1.4214 0.393702,0.32051 0.897861,0.27017 1.159768,-0.0594 0.261005,-0.32598 0.232317,-0.79003 -0.168117,-1.12909 -0.596285,-0.22669 -0.680358,-0.2314 -1.496909,-0.23295 z"
       id="path788" /><path
       style="opacity:1;fill:#000000;fill-opacity:1;stroke:none;stroke-width:0.0693972;stroke-linecap:square;stroke-dasharray:none;stroke-opacity:0.527265;paint-order:markers stroke fill"
       d="m 85.087531,129.74253 c 0.145399,0.8232 0.161955,0.82842 0.505258,1.4214 0.393702,0.32051 0.897861,0.27017 1.159768,-0.0594 0.261005,-0.32598 0.232317,-0.79003 -0.168117,-1.12909 -0.596285,-0.22669 -0.680358,-0.2314 -1.496909,-0.23295 z"
       id="path789" /><path
       style="opacity:1;fill:#000000;fill-opacity:1;stroke:none;stroke-width:0.0693972;stroke-linecap:square;stroke-dasharray:none;stroke-opacity:0.527265;paint-order:markers stroke fill"
       d="m 80.920344,133.66167 c 0.145399,0.8232 0.161955,0.82842 0.505258,1.4214 0.393702,0.32051 0.897861,0.27017 1.159768,-0.0594 0.261005,-0.32598 0.232317,-0.79003 -0.168117,-1.12909 -0.596285,-0.22669 -0.680358,-0.2314 -1.496909,-0.23295 z"
       id="path790" /><path
       style="opacity:1;fill:none;fill-opacity:1;stroke:#000000;stroke-width:0.555103;stroke-linecap:square;stroke-dasharray:none;stroke-opacity:1;paint-order:markers stroke fill"
       d="m 54.781901,129.5589 c 0.981132,-0.33811 1.93298,-0.76116 2.841409,-1.26285 1.959906,-1.08239 3.707705,-2.52378 5.694153,-3.55665 0.993224,-0.51643 2.048996,-0.92964 3.152576,-1.11755 1.103579,-0.18791 2.259041,-0.14357 3.314034,0.23085 1.108642,0.39346 2.10459,1.17852 2.605444,2.24296 0.250428,0.53223 0.373489,1.12666 0.333762,1.71351 -0.03973,0.58686 -0.24467,1.16452 -0.6006,1.6328 -0.352893,0.46429 -0.851697,0.81567 -1.407191,0.99321 -0.555494,0.17755 -1.16511,0.1807 -1.722893,0.0105 -0.557783,-0.17022 -1.061396,-0.51284 -1.425832,-0.96812 -0.364436,-0.45529 -0.588369,-1.02119 -0.635793,-1.60244 -0.04953,-0.6071 0.09861,-1.23802 0.460224,-1.72819 0.180805,-0.24509 0.41295,-0.45308 0.679991,-0.59953 0.267041,-0.14644 0.568946,-0.23061 0.873457,-0.23609 0.304512,-0.005 0.611035,0.0685 0.875985,0.21872 0.264951,0.15019 0.48708,0.37693 0.625376,0.64829 0.138297,0.27135 0.1912,0.58663 0.14194,0.88718 -0.04926,0.30055 -0.201626,0.58437 -0.429692,0.78622 -0.168437,0.14908 -0.376556,0.2529 -0.596961,0.29779 -0.220406,0.0449 -0.452553,0.0308 -0.665883,-0.0405"
       id="path792"
       transform="matrix(-0.0107239,0.7369014,0.7369014,0.0107239,-12.291762,113.5539)" /><path
       style="opacity:1;fill:none;fill-opacity:1;stroke:#000000;stroke-width:0.77614;stroke-linecap:square;stroke-dasharray:none;stroke-opacity:1;paint-order:markers stroke fill"
       d="m 54.781901,129.5589 c 0.981132,-0.33811 1.93298,-0.76116 2.841409,-1.26285 1.959906,-1.08239 3.707705,-2.52378 5.694153,-3.55665 0.993224,-0.51643 2.048996,-0.92964 3.152576,-1.11755 1.103579,-0.18791 2.259041,-0.14357 3.314034,0.23085 1.108642,0.39346 2.10459,1.17852 2.605444,2.24296 0.250428,0.53223 0.373489,1.12666 0.333762,1.71351 -0.03973,0.58686 -0.24467,1.16452 -0.6006,1.6328 -0.352893,0.46429 -0.851697,0.81567 -1.407191,0.99321 -0.555494,0.17755 -1.16511,0.1807 -1.722893,0.0105 -0.557783,-0.17022 -1.061396,-0.51284 -1.425832,-0.96812 -0.364436,-0.45529 -0.588369,-1.02119 -0.635793,-1.60244 -0.04953,-0.6071 0.09861,-1.23802 0.460224,-1.72819 0.180805,-0.24509 0.41295,-0.45308 0.679991,-0.59953 0.267041,-0.14644 0.568946,-0.23061 0.873457,-0.23609 0.304512,-0.005 0.611035,0.0685 0.875985,0.21872 0.264951,0.15019 0.48708,0.37693 0.625376,0.64829 0.138297,0.27135 0.1912,0.58663 0.14194,0.88718 -0.04926,0.30055 -0.201626,0.58437 -0.429692,0.78622 -0.168437,0.14908 -0.376556,0.2529 -0.596961,0.29779 -0.220406,0.0449 -0.452553,0.0308 -0.665883,-0.0405"
       id="path793"
       transform="matrix(0.08901094,0.51952512,0.51952512,-0.08901094,12.1246,139.99018)" /><path
       style="opacity:1;fill:none;fill-opacity:1;stroke:#000000;stroke-width:0.927096;stroke-linecap:square;stroke-dasharray:none;stroke-opacity:1;paint-order:markers stroke fill"
       d="m 54.781901,129.5589 c 0.981132,-0.33811 1.93298,-0.76116 2.841409,-1.26285 1.959906,-1.08239 3.707705,-2.52378 5.694153,-3.55665 0.993224,-0.51643 2.048996,-0.92964 3.152576,-1.11755 1.103579,-0.18791 2.259041,-0.14357 3.314034,0.23085 1.108642,0.39346 2.10459,1.17852 2.605444,2.24296 0.250428,0.53223 0.373489,1.12666 0.333762,1.71351 -0.03973,0.58686 -0.24467,1.16452 -0.6006,1.6328 -0.352893,0.46429 -0.851697,0.81567 -1.407191,0.99321 -0.555494,0.17755 -1.16511,0.1807 -1.722893,0.0105 -0.557783,-0.17022 -1.061396,-0.51284 -1.425832,-0.96812 -0.364436,-0.45529 -0.588369,-1.02119 -0.635793,-1.60244 -0.04953,-0.6071 0.09861,-1.23802 0.460224,-1.72819 0.180805,-0.24509 0.41295,-0.45308 0.679991,-0.59953 0.267041,-0.14644 0.568946,-0.23061 0.873457,-0.23609 0.304512,-0.005 0.611035,0.0685 0.875985,0.21872 0.264951,0.15019 0.48708,0.37693 0.625376,0.64829 0.138297,0.27135 0.1912,0.58663 0.14194,0.88718 -0.04926,0.30055 -0.201626,0.58437 -0.429692,0.78622 -0.168437,0.14908 -0.376556,0.2529 -0.596961,0.29779 -0.220406,0.0449 -0.452553,0.0308 -0.665883,-0.0405"
       id="path794"
       transform="matrix(0.15439425,0.41337823,0.41337823,-0.15439425,24.101734,155.83151)" /><path
       style="opacity:1;fill:#000000;fill-opacity:1;stroke:none;stroke-width:0.725758;stroke-linecap:square;stroke-dasharray:none;stroke-opacity:1;paint-order:markers stroke fill"
       id="path795"
       d="m 146.19987,62.52877 a 2.6426275,2.1749058 0 0 1 2.64263,-2.174905 2.6426275,2.1749058 0 0 1 2.64263,2.174905"
       transform="rotate(42.831938)" /><path
       style="opacity:1;fill:#000000;fill-opacity:1;stroke:none;stroke-width:0.736555;stroke-linecap:square;stroke-dasharray:none;stroke-opacity:1;paint-order:markers stroke fill"
       id="path796"
       d="m 149.09975,62.52877 a 2.0579753,2.8764882 0 0 1 2.05798,-2.876488 2.0579753,2.8764882 0 0 1 2.05798,2.876488"
       transform="rotate(42.831938)" /><path
       style="opacity:1;fill:#000000;fill-opacity:1;stroke:none;stroke-width:0.571306;stroke-linecap:square;stroke-dasharray:none;stroke-opacity:1;paint-order:markers stroke fill"
       id="path797"
       d="m 151.60206,62.52877 a 2.0579753,1.7305702 0 0 1 2.05797,-1.73057 2.0579753,1.7305702 0 0 1 2.05798,1.73057"
       transform="rotate(42.831938)" /><path
       style="opacity:1;fill:#000000;fill-opacity:1;stroke:none;stroke-width:0.414749;stroke-linecap:square;stroke-dasharray:none;stroke-opacity:1;paint-order:markers stroke fill"
       id="path798"
       d="m 154.36161,62.52877 a 2.0579753,0.91205728 0 0 1 2.05798,-0.912057 2.0579753,0.91205728 0 0 1 2.05797,0.912057"
       transform="rotate(42.831938)" /><path
       style="opacity:1;fill:#000000;fill-opacity:1;stroke:none;stroke-width:0.736555;stroke-linecap:square;stroke-dasharray:none;stroke-opacity:1;paint-order:markers stroke fill"
       id="path799"
       d="m 156.3942,60.868771 a 2.0579753,2.8764882 0 0 1 2.05798,-2.876489 2.0579753,2.8764882 0 0 1 2.05797,2.876489"
       transform="rotate(42.831938)" /><path
       style="opacity:1;fill:#000000;fill-opacity:1;stroke:none;stroke-width:0.571306;stroke-linecap:square;stroke-dasharray:none;stroke-opacity:1;paint-order:markers stroke fill"
       id="path800"
       d="m 161.5044,60.908993 a 2.0579753,1.7305702 0 0 1 2.05798,-1.73057 2.0579753,1.7305702 0 0 1 2.05797,1.73057"
       transform="rotate(42.831938)" /><path
       style="opacity:1;fill:#000000;fill-opacity:1;stroke:none;stroke-width:0.736555;stroke-linecap:square;stroke-dasharray:none;stroke-opacity:1;paint-order:markers stroke fill"
       id="path801"
       d="m 159.51722,60.898811 a 2.0579753,2.8764882 0 0 1 2.05798,-2.876488 2.0579753,2.8764882 0 0 1 2.05797,2.876488"
       transform="rotate(42.831938)" /><path
       style="opacity:1;fill:#000000;fill-opacity:1;stroke:none;stroke-width:0.0693972;stroke-linecap:square;stroke-dasharray:none;stroke-opacity:0.527265;paint-order:markers stroke fill"
       d="m 48.413688,139.18079 c 0.145399,0.8232 0.161955,0.82842 0.505258,1.4214 0.393702,0.32051 0.897861,0.27017 1.159768,-0.0594 0.261005,-0.32598 0.232317,-0.79003 -0.168117,-1.12909 -0.596285,-0.22669 -0.680358,-0.2314 -1.496909,-0.23295 z"
       id="path802" /><path
       style="opacity:1;fill:#000000;fill-opacity:1;stroke:none;stroke-width:0.0693972;stroke-linecap:square;stroke-dasharray:none;stroke-opacity:0.527265;paint-order:markers stroke fill"
       d="m 52.94905,135.41235 c 0.08266,0.83185 0.09877,0.83831 0.396192,1.45558 0.368305,0.34939 0.874829,0.33737 1.160936,0.0286 0.284936,-0.30528 0.291465,-0.77017 -0.08215,-1.13857 -0.577411,-0.27119 -0.660886,-0.28225 -1.474976,-0.34562 z"
       id="path803" /><path
       style="opacity:1;fill:#000000;fill-opacity:1;stroke:none;stroke-width:0.0693972;stroke-linecap:square;stroke-dasharray:none;stroke-opacity:0.527265;paint-order:markers stroke fill"
       d="m 57.140458,131.95931 c 0.145399,0.8232 0.161955,0.82842 0.505258,1.4214 0.393702,0.32051 0.897861,0.27017 1.159768,-0.0594 0.261005,-0.32598 0.232317,-0.79003 -0.168117,-1.12909 -0.596285,-0.22669 -0.680358,-0.2314 -1.496909,-0.23295 z"
       id="path804" /></g><g
     id="layer5"
     style="display:none;opacity:0.875872;stroke:#000000;stroke-opacity:1"
     transform="translate(-29.486608,-140.82266)"><path
       style="display:inline;opacity:0.875872;fill:#c3cbcf;fill-opacity:1;stroke:#000000;stroke-width:1;stroke-linecap:butt;stroke-linejoin:miter;stroke-dasharray:none;stroke-opacity:1;paint-order:markers stroke fill"
       id="path431"
       d="m 153.8134,157.62988 a 6.1716037,5.2697177 0 0 1 6.1716,-5.26971 6.1716037,5.2697177 0 0 1 6.1716,5.26971" /><path
       style="display:inline;fill:#c3cbcf;fill-opacity:1;stroke:#000000;stroke-width:1;stroke-linecap:butt;stroke-linejoin:miter;stroke-dasharray:none;stroke-opacity:1;paint-order:markers stroke fill"
       id="path105"
       d="m 122.92773,157.73817 a 12.379564,16.231331 0 0 1 12.37957,-16.23133 12.379564,16.231331 0 0 1 12.37956,16.23133" /><path
       style="display:inline;fill:#c3cbcf;fill-opacity:1;stroke:#000000;stroke-width:1;stroke-linecap:butt;stroke-linejoin:miter;stroke-dasharray:none;stroke-opacity:1;paint-order:markers stroke fill"
       id="path106"
       d="m 106.95034,157.64891 a 11.834611,10.707694 0 0 1 11.83461,-10.70769 11.834611,10.707694 0 0 1 11.83461,10.70769" /><path
       style="display:inline;fill:#c3cbcf;fill-opacity:1;stroke:#000000;stroke-width:1;stroke-linecap:butt;stroke-linejoin:miter;stroke-dasharray:none;stroke-opacity:1;paint-order:markers stroke fill"
       id="path107"
       d="m 130.89603,157.64108 a 14.777189,12.617728 0 0 1 14.77719,-12.61773 14.777189,12.617728 0 0 1 14.77719,12.61773" /><path
       style="display:inline;fill:#c3cbcf;fill-opacity:1;stroke:#000000;stroke-width:1;stroke-linecap:butt;stroke-linejoin:miter;stroke-dasharray:none;stroke-opacity:1;paint-order:markers stroke fill"
       id="path108"
       d="M 29.757582,175.5116 A 12.379564,16.231331 0 0 1 42.137146,159.28027 12.379564,16.231331 0 0 1 54.51671,175.5116" /><path
       style="display:inline;fill:#c3cbcf;fill-opacity:1;stroke:#000000;stroke-width:1;stroke-linecap:butt;stroke-linejoin:miter;stroke-dasharray:none;stroke-opacity:1;paint-order:markers stroke fill"
       id="path109"
       d="m 13.780181,175.42233 a 11.834611,10.707694 0 0 1 11.834611,-10.70769 11.834611,10.707694 0 0 1 11.834611,10.70769" /><path
       style="display:inline;fill:#c3cbcf;fill-opacity:1;stroke:#000000;stroke-width:1;stroke-linecap:butt;stroke-linejoin:miter;stroke-dasharray:none;stroke-opacity:1;paint-order:markers stroke fill"
       id="path110"
       d="m 37.725878,175.41451 a 14.777189,12.617728 0 0 1 14.777189,-12.61773 14.777189,12.617728 0 0 1 14.777189,12.61773" /><path
       style="display:inline;fill:none;fill-opacity:1;stroke:#000000;stroke-width:0.472674;stroke-linecap:butt;stroke-linejoin:round;stroke-dasharray:none;stroke-opacity:1;paint-order:markers stroke fill"
       d="M 4.5855233,175.6341 H 67.780256"
       id="path9-1" /><path
       style="display:inline;opacity:0.875872;fill:none;fill-opacity:1;stroke:#000000;stroke-width:0.461587;stroke-linecap:butt;stroke-linejoin:round;stroke-dasharray:none;stroke-opacity:1;paint-order:markers stroke fill"
       d="m 106.39172,157.86068 h 60.26489"
       id="path9-1-3" /><path
       style="opacity:0.875872;fill:none;fill-opacity:1;stroke:#000000;stroke-width:0.5;stroke-linecap:butt;stroke-linejoin:round;stroke-dasharray:none;stroke-opacity:1;paint-order:markers stroke fill"
       d="m 17.399246,172.96347 c 0.524211,-2.06129 1.856279,-3.90569 3.648229,-5.05139 1.053665,-0.67367 2.246136,-1.10685 3.46114,-1.40317 1.208147,-0.29465 2.47609,-0.45794 3.693975,-0.20656 0.608943,0.12569 1.199461,0.35591 1.714215,0.70468 0.514754,0.34877 0.952054,0.81831 1.233458,1.37277 0.46407,0.91436 0.470793,2.0469 0.019,2.96739 -0.451792,0.9205 -1.351065,1.60769 -2.357611,1.80337 -0.277836,0.054 -0.568177,0.072 -0.841899,0 -0.340171,-0.0895 -0.640453,-0.32142 -0.813009,-0.62794 -0.172555,-0.30651 -0.21509,-0.68354 -0.115163,-1.02079 0.09993,-0.33726 0.340988,-0.63025 0.65267,-0.79329 0.311681,-0.16304 0.689839,-0.19394 1.023857,-0.0837"
       id="path112" /><path
       style="opacity:0.875872;fill:none;fill-opacity:1;stroke:#000000;stroke-width:0.499999;stroke-linecap:butt;stroke-linejoin:round;stroke-dasharray:none;stroke-opacity:1;paint-order:markers stroke fill"
       d="m 39.241849,173.71183 c 0.712778,-1.75815 1.824489,-3.35322 3.227279,-4.63045 1.907157,-1.73646 4.319948,-2.86238 6.828737,-3.46114 0.904856,-0.21596 1.829316,-0.36674 2.759556,-0.37417 0.674296,-0.005 1.348097,0.0646 2.011204,0.18708 1.452449,0.2682 2.866933,0.79486 4.08693,1.62742 1.219996,0.83255 2.239824,1.97881 2.83535,3.33043 0.146731,0.33303 0.268502,0.68093 0.309912,1.04248 0.04141,0.36156 -0.0016,0.73944 -0.169595,1.06227 -0.09387,0.18042 -0.223926,0.33942 -0.327406,0.5145 -0.110369,0.18674 -0.191057,0.39255 -0.327404,0.56126 -0.209466,0.25918 -0.527622,0.40367 -0.841899,0.51449 -0.436644,0.15397 -0.894848,0.26128 -1.357824,0.25683 -0.462976,-0.004 -0.93259,-0.12642 -1.308189,-0.39714 -0.4459,-0.3214 -0.734463,-0.84377 -0.795026,-1.39008 -0.06056,-0.54631 0.101055,-1.10952 0.420847,-1.55657 0.187349,-0.2619 0.427396,-0.48595 0.701583,-0.65481"
       id="path114" /><path
       style="opacity:0.875872;fill:none;fill-opacity:1;stroke:#000000;stroke-width:0.499999;stroke-linecap:butt;stroke-linejoin:round;stroke-dasharray:none;stroke-opacity:1;paint-order:markers stroke fill"
       d="m 42.702987,173.29088 c 0.82046,-0.89584 1.712948,-1.7257 2.666014,-2.47893 1.445296,-1.14225 3.045947,-2.11493 4.798945,-2.68115 1.752998,-0.56623 3.668729,-0.7101 5.44416,-0.21872 0.688687,0.19061 1.351449,0.47465 1.964431,0.8419"
       id="path115" /><path
       style="opacity:0.875872;fill:none;fill-opacity:1;stroke:#000000;stroke-width:0.499999;stroke-linecap:butt;stroke-linejoin:round;stroke-dasharray:none;stroke-opacity:1;paint-order:markers stroke fill"
       d="m 47.520521,173.94569 c 0.514232,-0.84481 1.250582,-1.55307 2.114747,-2.03406 0.864165,-0.481 1.854126,-0.73362 2.843102,-0.7255 0.40881,0.003 0.817247,0.0505 1.216078,0.14032"
       id="path116" /><path
       style="opacity:0.875872;fill:none;fill-opacity:1;stroke:#000000;stroke-width:0.499999;stroke-linecap:butt;stroke-linejoin:round;stroke-dasharray:none;stroke-opacity:1;paint-order:markers stroke fill"
       d="m 34.190453,166.27505 c 0.379199,-0.89697 0.920644,-1.72506 1.590254,-2.43215 0.970711,-1.02504 2.188207,-1.77927 3.414369,-2.47892 0.290858,-0.16596 0.583526,-0.32978 0.888671,-0.46773 1.265418,-0.57206 2.737209,-0.67356 4.069178,-0.28063"
       id="path117" /><path
       style="opacity:0.875872;fill:none;fill-opacity:1;stroke:#000000;stroke-width:0.499999;stroke-linecap:butt;stroke-linejoin:round;stroke-dasharray:none;stroke-opacity:1;paint-order:markers stroke fill"
       d="m 36.809695,167.02341 c 0.516528,-0.7744 1.130993,-1.4834 1.824115,-2.10475 1.694504,-1.51904 3.866608,-2.49732 6.127154,-2.75956"
       id="path118" /><path
       style="opacity:0.875872;fill:none;fill-opacity:1;stroke:#000000;stroke-width:0.499999;stroke-linecap:butt;stroke-linejoin:round;stroke-dasharray:none;stroke-opacity:1;paint-order:markers stroke fill"
       d="m 112.11719,155.04583 c 0.34583,-1.30664 1.09008,-2.50499 2.10801,-3.39422 1.01793,-0.88923 2.30541,-1.46572 3.64667,-1.63286 0.72354,-0.0902 1.45689,-0.0639 2.18282,-0.13229 0.63938,-0.0602 1.27898,-0.1938 1.91823,-0.1323 0.3841,0.0369 0.758,0.14375 1.12447,0.26459 0.40164,0.13243 0.80025,0.28367 1.16109,0.50422 0.36085,0.22055 0.68451,0.5149 0.88944,0.88484 0.16952,0.30601 0.25221,0.65129 0.33072,0.99219 0.11916,0.5174 0.23335,1.03856 0.26661,1.56846 0.0333,0.52989 -0.0172,1.0726 -0.21763,1.56427 -0.20039,0.49168 -0.56077,0.92942 -1.03931,1.15942 -0.23927,0.115 -0.50516,0.17663 -0.77053,0.16943 -0.26537,-0.007 -0.52972,-0.0842 -0.75268,-0.22825 -0.2401,-0.15517 -0.4294,-0.38762 -0.53274,-0.65417 -0.10335,-0.26655 -0.1202,-0.56585 -0.0474,-0.84232 0.0728,-0.27646 0.23476,-0.5287 0.45591,-0.70985 0.22116,-0.18116 0.50036,-0.29031 0.78574,-0.3072"
       id="path119" /><path
       style="opacity:0.875872;fill:none;fill-opacity:1;stroke:#000000;stroke-width:0.499999;stroke-linecap:butt;stroke-linejoin:round;stroke-dasharray:none;stroke-opacity:1;paint-order:markers stroke fill"
       d="m 134.80521,155.24427 c 0.30541,-1.15076 0.93008,-2.21503 1.78593,-3.04271 0.55568,-0.53739 1.20102,-0.9723 1.85209,-1.38906 1.66281,-1.0644 3.41273,-2.04069 5.32238,-2.54177 1.90965,-0.50109 4.0089,-0.49258 5.79012,0.35896 0.608,0.29066 1.16738,0.67234 1.71979,1.05833 1.51928,1.06157 3.0423,2.2051 4.03489,3.77031 0.41405,0.65291 0.72754,1.36946 0.92605,2.11667"
       id="path120" /><path
       style="opacity:0.875872;fill:none;fill-opacity:1;stroke:#000000;stroke-width:0.499999;stroke-linecap:butt;stroke-linejoin:round;stroke-dasharray:none;stroke-opacity:1;paint-order:markers stroke fill"
       d="m 149.75416,154.64896 c -1.29902,-0.35701 -2.71182,-0.28638 -3.96875,0.19843 -1.08024,0.41665 -2.04348,1.1269 -3.16403,1.41822 -0.56028,0.14566 -1.16118,0.17998 -1.71456,0.01 -0.27669,-0.085 -0.53886,-0.22079 -0.7606,-0.40684 -0.22174,-0.18605 -0.40231,-0.42293 -0.51237,-0.69064 -0.13331,-0.32427 -0.16035,-0.68828 -0.096,-1.03293 0.0643,-0.34466 0.21776,-0.66996 0.42678,-0.95144 0.31029,-0.41785 0.73715,-0.73679 1.19063,-0.99219 0.92348,-0.5201 1.98283,-0.79646 3.0427,-0.79375"
       id="path122" /><path
       style="opacity:0.875872;fill:none;fill-opacity:1;stroke:#000000;stroke-width:0.499999;stroke-linecap:butt;stroke-linejoin:round;stroke-dasharray:none;stroke-opacity:1;paint-order:markers stroke fill"
       d="m 143.07344,154.18594 c 0.0647,-0.0892 0.1309,-0.17745 0.19843,-0.26459 0.50741,-0.65474 1.10421,-1.25733 1.83314,-1.65081 0.72893,-0.39347 1.60388,-0.56166 2.4002,-0.33356 0.42254,0.12103 0.8134,0.35095 1.12448,0.66146"
       id="path123" /><path
       style="opacity:0.875872;fill:none;fill-opacity:1;stroke:#000000;stroke-width:0.499999;stroke-linecap:butt;stroke-linejoin:round;stroke-dasharray:none;stroke-opacity:1;paint-order:markers stroke fill"
       d="m 135.20208,151.20937 c 1.27059,-1.47328 2.8945,-2.63975 4.69636,-3.37343 0.70515,-0.28712 1.4369,-0.50887 2.18281,-0.66146"
       id="path124" /><path
       style="opacity:0.875872;fill:none;fill-opacity:1;stroke:#000000;stroke-width:0.499999;stroke-linecap:butt;stroke-linejoin:round;stroke-dasharray:none;stroke-opacity:1;paint-order:markers stroke fill"
       d="m 143.86719,147.10833 c 0.97189,-0.82304 2.24451,-1.28271 3.51802,-1.2707 1.2735,0.012 2.53723,0.49558 3.49343,1.3368 0.59765,0.52578 1.07601,1.18637 1.38907,1.91823"
       id="path125" /><path
       style="opacity:0.875872;fill:none;fill-opacity:1;stroke:#000000;stroke-width:0.499999;stroke-linecap:butt;stroke-linejoin:round;stroke-dasharray:none;stroke-opacity:1;paint-order:markers stroke fill"
       d="m 154.11979,149.29114 c 1.02079,0.22257 1.97038,0.76112 2.68533,1.52296 0.71496,0.76183 1.19219,1.74367 1.34957,2.77652 0.11063,0.72604 0.0652,1.47546 -0.1323,2.18282"
       id="path126" /><path
       style="opacity:0.875872;fill:none;fill-opacity:1;stroke:#000000;stroke-width:0.499999;stroke-linecap:butt;stroke-linejoin:round;stroke-dasharray:none;stroke-opacity:1;paint-order:markers stroke fill"
       d="m 128.32292,148.10052 c 0.69104,-1.38512 1.72185,-2.59919 2.97656,-3.50573 1.06695,-0.77088 2.30079,-1.32162 3.59912,-1.53837 1.29833,-0.21675 2.66042,-0.0926 3.87536,0.41389 0.27325,0.11392 0.53866,0.24663 0.79375,0.39688"
       id="path127" /><path
       style="opacity:0.875872;fill:none;fill-opacity:1;stroke:#000000;stroke-width:0.499999;stroke-linecap:butt;stroke-linejoin:round;stroke-dasharray:none;stroke-opacity:1;paint-order:markers stroke fill"
       d="m 129.77812,148.89427 c 0.17813,-0.32112 0.37713,-0.63067 0.59532,-0.92604 0.75055,-1.01602 1.73538,-1.86382 2.87052,-2.41798 1.13513,-0.55416 2.42032,-0.80965 3.67791,-0.69088 0.51791,0.0489 1.02989,0.16021 1.52136,0.33073"
       id="path128" /><path
       style="opacity:0.875872;fill:none;fill-opacity:1;stroke:#000000;stroke-width:0.499999;stroke-linecap:butt;stroke-linejoin:round;stroke-dasharray:none;stroke-opacity:1;paint-order:markers stroke fill"
       d="m 136.65729,145.91771 c -1.12244,0.19638 -2.17948,0.75065 -2.97932,1.56225 -0.79984,0.81161 -1.33863,1.87662 -1.5186,3.00181 -0.0559,0.34957 -0.0781,0.70452 -0.0661,1.05833"
       id="path129" /><path
       style="opacity:0.875872;fill:none;fill-opacity:1;stroke:#000000;stroke-width:0.499999;stroke-linecap:butt;stroke-linejoin:round;stroke-dasharray:none;stroke-opacity:1;paint-order:markers stroke fill"
       d="m 127.33073,148.16666 c 0.32006,0.22756 0.62921,0.47047 0.92604,0.72761 0.68316,0.59181 1.31374,1.27917 1.65365,2.11667 0.14539,0.35822 0.23498,0.73901 0.26458,1.12447"
       id="path130" /><path
       style="opacity:0.875872;fill:none;fill-opacity:1;stroke:#000000;stroke-width:0.499999;stroke-linecap:butt;stroke-linejoin:round;stroke-dasharray:none;stroke-opacity:1;paint-order:markers stroke fill"
       d="m 114.23385,155.575 c 0.46612,-1.04194 1.2324,-1.94754 2.18282,-2.57969 1.67143,-1.1117 3.90854,-1.31742 5.75468,-0.52917"
       id="path131" /><path
       style="opacity:0.875872;fill:none;fill-opacity:1;stroke:#000000;stroke-width:0.499999;stroke-linecap:butt;stroke-linejoin:round;stroke-dasharray:none;stroke-opacity:1;paint-order:markers stroke fill"
       d="m 109.40521,155.37656 c 0.25285,-1.58255 0.94272,-3.09301 1.97324,-4.32037 1.03052,-1.22737 2.39882,-2.16821 3.91374,-2.69109 0.72551,-0.25041 1.48353,-0.40648 2.24895,-0.46302"
       id="path132" /><path
       style="opacity:0.875872;fill:none;fill-opacity:1;stroke:#000000;stroke-width:0.499999;stroke-linecap:butt;stroke-linejoin:round;stroke-dasharray:none;stroke-opacity:1;paint-order:markers stroke fill"
       d="m 119.19479,155.17812 c -0.0181,0.0975 -0.003,0.20101 0.043,0.28908 0.0457,0.0881 0.12149,0.16017 0.21171,0.20146 0.0902,0.0413 0.19432,0.0515 0.29085,0.0286 0.0965,-0.0229 0.18489,-0.0789 0.24688,-0.15641 0.062,-0.0775 0.0972,-0.17597 0.0984,-0.27519 0.001,-0.0992 -0.0316,-0.19853 -0.0917,-0.27748 -0.0601,-0.0789 -0.14707,-0.13705 -0.24302,-0.16232 -0.0959,-0.0253 -0.20027,-0.0176 -0.29146,0.0215 -0.13511,0.058 -0.23771,0.18619 -0.26458,0.33073 -0.0262,0.14112 0.019,0.29181 0.11169,0.40142 0.0927,0.1096 0.22966,0.17834 0.37201,0.19676 0.14235,0.0184 0.28914,-0.0118 0.41739,-0.0762 0.12825,-0.0644 0.23838,-0.16209 0.32597,-0.2758 0.17519,-0.22742 0.25864,-0.51178 0.31454,-0.79336 0.0559,-0.28158 0.0883,-0.56918 0.17819,-0.84183 0.17914,-0.5436 0.59635,-1.00754 1.12477,-1.22748 0.52841,-0.21993 1.15955,-0.18638 1.65336,0.103 0.46347,0.2716 0.79246,0.76156 0.86843,1.29335 0.076,0.53179 -0.10267,1.09428 -0.47156,1.48478"
       id="path133" /><path
       style="opacity:0.875872;fill:none;fill-opacity:1;stroke:#000000;stroke-width:0.499999;stroke-linecap:butt;stroke-linejoin:round;stroke-dasharray:none;stroke-opacity:1;paint-order:markers stroke fill"
       d="m 127,151.93698 c 0.5832,0.70609 0.99507,1.55271 1.19062,2.44739 0.0807,0.3693 0.1251,0.74653 0.1323,1.12448"
       id="path134" /></g><g
     id="layer10"
     style="display:none"
     transform="translate(-29.486608,-140.82266)"><path
       style="fill:#000000;fill-opacity:0;stroke:#000000;stroke-width:0.4;stroke-linecap:square;paint-order:markers stroke fill"
       d="m 12.015905,132.46753 c 9.344716,20.0964 18.450555,40.30388 27.314945,60.61672 3.530676,8.09058 7.02305,16.19788 10.476965,24.32153"
       id="path54" /><path
       style="fill:#000000;fill-opacity:0;stroke:#000000;stroke-width:0.4;stroke-linecap:square;paint-order:markers stroke fill"
       d="m 36.337431,135.83512 8.231902,17.02507"
       id="path55" /><path
       style="fill:#000000;fill-opacity:0;stroke:#000000;stroke-width:0.4;stroke-linecap:square;paint-order:markers stroke fill"
       d="m 53.175411,181.67185 c 5.034914,8.40476 9.477305,17.16441 13.283295,26.19241 0.575854,1.36595 1.137162,2.73804 1.683797,4.11595"
       id="path65" /><path
       style="fill:#000000;fill-opacity:0;stroke:#000000;stroke-width:0.4;stroke-linecap:square;paint-order:markers stroke fill"
       d="m 19.68654,184.85235 c 3.311537,6.24203 5.950882,12.8404 7.857723,19.64431 0.991966,3.53949 1.785977,7.13265 2.80633,10.66406 0.454448,1.57283 0.953621,3.13274 1.496711,4.67721"
       id="path66" /><path
       style="fill:#000000;fill-opacity:0;stroke:#000000;stroke-width:0.4;stroke-linecap:square;paint-order:markers stroke fill"
       d="m 46.44022,186.72324 13.470384,25.63115"
       id="path71" /><path
       style="fill:#000000;fill-opacity:0;stroke:#000000;stroke-width:0.4;stroke-linecap:square;paint-order:markers stroke fill"
       d="m 55.607564,127.60322 c 0.76639,2.27891 1.771447,4.47747 2.993419,6.54811 2.087313,3.53697 4.783052,6.66764 7.296457,9.91569 5.200988,6.72118 9.664062,14.01297 13.283295,21.70229"
       id="path102" /><path
       style="fill:#000000;fill-opacity:0;stroke:#000000;stroke-width:0.4;stroke-linecap:square;paint-order:markers stroke fill"
       d="m 75.438963,173.06577 c 6.138871,9.68858 12.312851,19.35491 18.521778,28.99874 2.32537,3.61181 4.666041,7.23441 7.483549,10.47697 1.38945,1.59907 2.89105,3.10067 4.49012,4.49012"
       id="path103" /><path
       style="fill:#000000;fill-opacity:0;stroke:#000000;stroke-width:0.4;stroke-linecap:square;paint-order:markers stroke fill"
       d="m 82.73542,126.85487 c -0.0141,0.72068 0.183236,1.44423 0.561266,2.05797 0.394816,0.64099 0.9688,1.14709 1.49671,1.6838 2.447789,2.48859 3.967333,5.71459 5.61266,8.79317 1.543212,2.88751 3.233129,5.69628 5.051393,8.41899 0.845588,1.2662 1.718949,2.51386 2.619242,3.74177"
       id="path121" /><path
       style="fill:#000000;fill-opacity:0;stroke:#000000;stroke-width:0.4;stroke-linecap:square;paint-order:markers stroke fill"
       d="m 78.806558,138.82854 c 6.074351,12.56406 12.693082,24.8649 19.831399,36.85647 2.124383,3.56872 4.297613,7.11438 6.735193,10.47696 1.79597,2.4775 3.73341,4.85243 5.79975,7.10937"
       id="path153" /><path
       style="fill:#000000;fill-opacity:0;stroke:#000000;stroke-width:0.4;stroke-linecap:square;paint-order:markers stroke fill"
       d="m 120.52733,160.34374 c 8.27161,12.45411 16.88193,24.68326 25.81824,36.66938 2.10236,2.81985 4.22275,5.62626 6.36101,8.41899"
       id="path155" /><path
       style="fill:#000000;fill-opacity:0;stroke:#000000;stroke-width:0.4;stroke-linecap:square;paint-order:markers stroke fill"
       d="m 142.79088,166.51766 24.13444,35.73394"
       id="path156" /><path
       style="fill:#000000;fill-opacity:0;stroke:#000000;stroke-width:0.4;stroke-linecap:square;paint-order:markers stroke fill"
       d="m 164.30608,168.76273 c 3.27356,7.04846 7.36309,13.71754 12.16076,19.8314 1.8339,2.33701 3.76997,4.59219 5.61266,6.92228 1.91177,2.41744 3.7224,4.91486 5.42557,7.48354"
       id="path158" /><path
       style="fill:#000000;fill-opacity:0;stroke:#000000;stroke-width:0.4;stroke-linecap:square;paint-order:markers stroke fill"
       d="m 167.48659,133.59006 c 0.90511,1.97925 1.90442,3.91541 2.99341,5.79975 2.66649,4.61395 5.86134,8.90255 8.60609,13.47038 3.83842,6.38792 6.77573,13.28664 10.66405,19.64431 1.38148,2.25881 2.8809,4.44547 4.49013,6.54811"
       id="path159" /><path
       style="fill:#000000;fill-opacity:0;stroke:#000000;stroke-width:0.4;stroke-linecap:square;paint-order:markers stroke fill"
       d="m 136.24278,124.23563 12.34785,21.70228"
       id="path161" /><path
       style="fill:#000000;fill-opacity:0;stroke:#000000;stroke-width:0.4;stroke-linecap:square;paint-order:markers stroke fill"
       d="m 119.77898,128.72575 6.73519,14.9671"
       id="path162" /><path
       style="fill:#000000;fill-opacity:0;stroke:#000000;stroke-width:0.4;stroke-linecap:square;paint-order:markers stroke fill"
       d="m 47.001486,128.91284 c 4.391516,8.40541 8.756946,16.82446 13.096205,25.25697 1.186853,2.30642 2.371749,4.61385 3.554685,6.92228"
       id="path163" /><path
       style="fill:#000000;fill-opacity:0;stroke:#000000;stroke-width:0.4;stroke-linecap:square;paint-order:markers stroke fill"
       d="m 108.55366,169.88526 c 8.30545,11.24799 16.72502,22.41171 25.25697,33.48887 4.58253,5.94956 9.19747,11.87415 13.84456,17.77342"
       id="path164" /><path
       style="fill:#000000;fill-opacity:0;stroke:#000000;stroke-width:0.4;stroke-linecap:square;paint-order:markers stroke fill"
       d="m 86.841139,179.28532 11.641667,15.61041"
       id="path165" /><path
       style="fill:#000000;fill-opacity:0;stroke:#000000;stroke-width:0.4;stroke-linecap:square;paint-order:markers stroke fill"
       d="m 101.16365,197.66793 c 2.02213,3.86774 4.65226,7.41683 7.76418,10.47696 1.03996,1.02266 2.13329,1.99103 3.27406,2.89988"
       id="path166" /><path
       style="fill:#000000;fill-opacity:0;stroke:#000000;stroke-width:0.4;stroke-linecap:square;paint-order:markers stroke fill"
       d="m 59.817058,180.82995 3.180509,6.73519"
       id="path170" /><path
       style="fill:#000000;fill-opacity:0;stroke:#000000;stroke-width:0.4;stroke-linecap:square;paint-order:markers stroke fill"
       d="m 63.745922,189.52957 2.712784,5.7062"
       id="path171" /><path
       style="fill:#000000;fill-opacity:0;stroke:#000000;stroke-width:0.4;stroke-linecap:square;paint-order:markers stroke fill"
       d="m 47.562752,179.98805 c 0.894405,2.09519 1.992602,4.10332 3.274052,5.98684 0.30179,0.44358 0.613713,0.88027 0.935442,1.30961"
       id="path172" /><path
       style="fill:#000000;fill-opacity:0;stroke:#000000;stroke-width:0.4;stroke-linecap:square;paint-order:markers stroke fill"
       d="m 31.75376,197.38729 3.461139,11.5995"
       id="path189" /><path
       style="fill:#000000;fill-opacity:0;stroke:#000000;stroke-width:0.4;stroke-linecap:square;paint-order:markers stroke fill"
       d="m 22.944265,136.29053 c 1.553527,2.93545 3.231218,5.80518 5.027083,8.59895 1.184012,1.84193 2.419374,3.65085 3.704167,5.42396"
       id="path210" /><path
       style="fill:#000000;fill-opacity:0;stroke:#000000;stroke-width:0.4;stroke-linecap:square;paint-order:markers stroke fill"
       d="m 58.927598,142.50823 c 1.439211,4.36495 3.593156,8.49335 6.35,12.17084 0.301597,0.40232 0.610342,0.79927 0.926041,1.19062"
       id="path222" /><path
       style="fill:#000000;fill-opacity:0;stroke:#000000;stroke-width:0.4;stroke-linecap:square;paint-order:markers stroke fill"
       d="m 71.892181,143.69886 c 1.867904,1.81156 3.32561,4.04367 4.233333,6.48229 0.165787,0.44539 0.314171,0.89909 0.529167,1.32292 0.540775,1.06606 1.464489,1.87616 2.248958,2.77812 0.952533,1.0952 1.716689,2.35381 2.248959,3.70417"
       id="path224" /><path
       style="fill:#000000;fill-opacity:0;stroke:#000000;stroke-width:0.4;stroke-linecap:square;paint-order:markers stroke fill"
       d="m 94.646347,130.07282 c 1.681978,3.30944 3.67822,6.45907 5.953123,9.39271 0.84439,1.08889 1.72706,2.1481 2.64584,3.175"
       id="path226" /><path
       style="fill:#000000;fill-opacity:0;stroke:#000000;stroke-width:0.4;stroke-linecap:square;paint-order:markers stroke fill"
       d="m 114.88697,168.96657 c 4.37026,5.48395 8.6485,11.04124 12.83229,16.66875 1.82604,2.45616 3.63409,4.92569 5.42396,7.40833"
       id="path227" /><path
       style="fill:#000000;fill-opacity:0;stroke:#000000;stroke-width:0.4;stroke-linecap:square;paint-order:markers stroke fill"
       d="m 135.25989,195.29261 c 2.00556,1.1787 3.77136,2.76339 5.15937,4.63021 0.5998,0.8067 1.15108,1.68669 1.98438,2.24896 0.47769,0.32233 1.0361,0.53052 1.45521,0.92604 0.32141,0.30332 0.53935,0.69697 0.79375,1.05833 0.73864,1.04919 1.82298,1.85065 3.04271,2.24896"
       id="path228" /><path
       style="fill:#000000;fill-opacity:0;stroke:#000000;stroke-width:0.4;stroke-linecap:square;paint-order:markers stroke fill"
       d="m 132.08489,162.88115 6.21771,11.37708"
       id="path229" /><path
       style="fill:#000000;fill-opacity:0;stroke:#000000;stroke-width:0.4;stroke-linecap:square;paint-order:markers stroke fill"
       d="m 141.87447,178.88844 8.46667,11.50938 c 0.31632,0.72301 0.66971,1.4298 1.05833,2.11666 0.68763,1.21535 1.48573,2.36816 2.38125,3.43959"
       id="path230" /><path
       style="fill:#000000;fill-opacity:0;stroke:#000000;stroke-width:0.4;stroke-linecap:square;paint-order:markers stroke fill"
       d="m 152.06093,164.60094 7.14375,10.71563"
       id="path231" /><path
       style="fill:#000000;fill-opacity:0;stroke:#000000;stroke-width:0.4;stroke-linecap:square;paint-order:markers stroke fill"
       d="m 162.64426,181.53428 c 2.79484,5.65945 6.16955,11.03233 10.05417,16.00729 1.31027,1.67804 2.67837,3.31093 4.10104,4.89479"
       id="path232" /><path
       style="fill:#000000;fill-opacity:0;stroke:#000000;stroke-width:0.4;stroke-linecap:square;paint-order:markers stroke fill"
       d="m 126.66093,178.09469 c 6.5275,0.19932 13.06511,0.0668 19.57917,-0.39687 0.4885,-0.0348 0.97919,-0.0718 1.45615,-0.18286 0.47696,-0.11112 0.94336,-0.30025 1.32197,-0.61089 0.53412,-0.43824 0.86204,-1.10312 0.94165,-1.78942 0.0796,-0.6863 -0.0786,-1.38955 -0.393,-2.00478 -0.62876,-1.23045 -1.82618,-2.07031 -3.06219,-2.68809 -0.34992,-0.17489 -0.70964,-0.33724 -1.09083,-0.42513 -0.38119,-0.0879 -0.78789,-0.0981 -1.15813,0.0283 -0.3433,0.11711 -0.64536,0.35156 -0.84398,0.65508 -0.19862,0.30351 -0.29253,0.67417 -0.26241,1.03565 0.0301,0.36147 0.1841,0.71147 0.43021,0.97793 0.24612,0.26645 0.58282,0.44767 0.94077,0.50634"
       id="path236" /><path
       style="fill:#000000;fill-opacity:0;stroke:#000000;stroke-width:0.4;stroke-linecap:square;paint-order:markers stroke fill"
       d="m 31.940098,197.67386 c 0.347928,0.14477 0.701003,0.27717 1.058334,0.39687 2.148026,0.71953 4.490802,0.9701 6.692824,0.43827 2.202022,-0.53182 4.244176,-1.89837 5.345717,-3.87785 0.448665,-0.80626 0.740701,-1.72655 0.661458,-2.64583 -0.04973,-0.57686 -0.248034,-1.14308 -0.587045,-1.61245 -0.339011,-0.46936 -0.820022,-0.83865 -1.368344,-1.0246 -0.548321,-0.18595 -1.162046,-0.18396 -1.701826,0.0255 -0.539779,0.20946 -0.998986,0.62879 -1.237576,1.15634 -0.209765,0.46381 -0.24564,1.00387 -0.09907,1.49136 0.146572,0.48749 0.474333,0.91821 0.905102,1.18944 0.43077,0.27122 0.960849,0.38062 1.463799,0.30209 0.50295,-0.0785 0.974453,-0.3443 1.302042,-0.73393"
       id="path237" /><path
       style="fill:#000000;fill-opacity:0;stroke:#000000;stroke-width:0.4;stroke-linecap:square;paint-order:markers stroke fill"
       d="m 39.14376,144.25411 c 3.039573,0.383 6.103753,0.57061 9.167347,0.56127 4.918711,-0.015 9.93638,-0.56547 14.405827,-2.61924 1.479993,-0.68008 2.942818,-1.5736 3.795597,-2.96128 0.426389,-0.69383 0.683569,-1.50211 0.66403,-2.31626 -0.01954,-0.81415 -0.328713,-1.63053 -0.904942,-2.20601 -0.656172,-0.65532 -1.578066,-0.94831 -2.432153,-1.30962 -1.594568,-0.67456 -3.064694,-1.65591 -4.730378,-2.12833 -0.832842,-0.23621 -1.714497,-0.33969 -2.568326,-0.19687 -0.853829,0.14282 -1.678846,0.54589 -2.242819,1.20267 -0.480021,0.55901 -0.754418,1.287 -0.781583,2.02332 -0.02716,0.73632 0.189872,1.47685 0.594496,2.09263 0.611371,0.93043 1.657389,1.56166 2.765527,1.6689 1.108137,0.10724 2.255785,-0.31171 3.034221,-1.10764"
       id="path238" /><path
       style="fill:#000000;fill-opacity:0;stroke:#000000;stroke-width:0.4;stroke-linecap:square;paint-order:markers stroke fill"
       d="m 160.79218,195.16032 c 2.80493,-0.50906 5.63013,-0.90635 8.46667,-1.19063 1.6336,-0.16372 3.29278,-0.29462 4.83772,-0.85015 0.77247,-0.27776 1.51145,-0.66242 2.14653,-1.18254 0.63509,-0.52013 1.16427,-1.17932 1.48241,-1.93606 0.34355,-0.81717 0.43244,-1.73761 0.26268,-2.60765 -0.16975,-0.87004 -0.59605,-1.68685 -1.20452,-2.33148 -0.60848,-0.64463 -1.39631,-1.11613 -2.24892,-1.35871 -0.85261,-0.24258 -1.76759,-0.25688 -2.63007,-0.0522 -1.2154,0.28849 -2.33495,1.03283 -2.99004,2.09644 -0.32754,0.5318 -0.53755,1.13723 -0.5968,1.75899 -0.0592,0.62177 0.0336,1.25901 0.27955,1.83311 0.26552,0.61966 0.70937,1.1617 1.26448,1.54423 0.55511,0.38254 1.21966,0.6043 1.89325,0.6318 0.67358,0.0275 1.354,-0.13938 1.93844,-0.4754 0.58444,-0.33602 1.07098,-0.84008 1.38612,-1.43604"
       id="path239" /><path
       style="fill:#000000;fill-opacity:0;stroke:#000000;stroke-width:0.4;stroke-linecap:square;paint-order:markers stroke fill"
       d="m 93.588014,140.65615 c 2.981745,3.10832 7.470736,4.69899 11.744336,4.1616 4.27361,-0.5374 8.22902,-3.18994 10.34837,-6.93972 0.40019,-0.70807 0.74119,-1.46168 0.87753,-2.2635 0.13634,-0.80183 0.0543,-1.66003 -0.34836,-2.36671 -0.42812,-0.75142 -1.21541,-1.28723 -2.0715,-1.40982 -0.85609,-0.12259 -1.76211,0.17075 -2.3839,0.77182 -0.6218,0.60106 -0.94567,1.49662 -0.85216,2.35637 0.0935,0.85975 0.60233,1.66475 1.33881,2.11809"
       id="path240" /></g><g
     id="layer11"
     style="display:none"
     transform="translate(-29.486608,-140.82266)"><path
       style="fill:none;fill-rule:evenodd;stroke:#000000;stroke-width:0.264583"
       id="path194"
       d="m 149.88646,170.78854 c 0.11294,-0.10037 0.19102,0.10272 0.16683,0.18771 -0.0656,0.23032 -0.3667,0.25024 -0.54225,0.14595 -0.314,-0.18655 -0.32633,-0.62368 -0.12506,-0.89678 0.29538,-0.40079 0.88422,-0.40493 1.25131,-0.10418 0.48927,0.40085 0.48461,1.14605 0.0833,1.60584 -0.505,0.5786 -1.40849,0.56484 -1.96037,0.0624 -0.66841,-0.6085 -0.64541,-1.67128 -0.0416,-2.31491 0.71163,-0.75849 1.93429,-0.72616 2.66945,-0.0207 0.84877,0.81453 0.80706,2.19743 -2.2e-4,3.02398 -0.16768,0.17168 -0.36273,0.31618 -0.5754,0.4273" /><path
       style="fill:none;fill-rule:evenodd;stroke:#000000;stroke-width:0.264583"
       id="path195"
       d="m 137.58333,173.43437 c 0.10224,-0.13328 0.23011,0.0721 0.22153,0.16994 -0.0232,0.26522 -0.34785,0.35015 -0.5614,0.27312 -0.38198,-0.13778 -0.48716,-0.61245 -0.32472,-0.95286 0.23839,-0.49956 0.88043,-0.62765 1.34432,-0.37632 0.6183,0.33499 0.76958,1.14958 0.42792,1.73579 -0.42996,0.73768 -1.41928,0.91225 -2.12725,0.47951 -0.85745,-0.52411 -1.05535,-1.68928 -0.53111,-2.51871 0.6178,-0.97745 1.95949,-1.19871 2.91017,-0.5827 1.09761,0.7112 1.34226,2.22981 0.6343,3.30163 -0.14704,0.22262 -0.32968,0.42132 -0.53855,0.58727" /><path
       style="fill:none;fill-rule:evenodd;stroke:#000000;stroke-width:0.264583"
       id="path196"
       d="m 119.59167,163.90938 c 0.1481,-0.0481 0.13794,0.1759 0.08,0.24616 -0.15706,0.1904 -0.44963,0.0848 -0.57231,-0.0862 -0.21944,-0.30587 -0.0505,-0.72372 0.25238,-0.89845 0.44448,-0.25643 1.00222,-0.0171 1.2246,0.41856 0.2964,0.58063 -0.0159,1.28237 -0.58474,1.55075 -0.71588,0.33772 -1.56333,-0.0485 -1.87689,-0.75092 -0.37977,-0.85071 0.081,-1.84476 0.91709,-2.20305 0.98531,-0.42223 2.12647,0.1134 2.52919,1.08328 0.46497,1.11977 -0.14571,2.40836 -1.24945,2.85534 -0.22925,0.0928 -0.47314,0.14871 -0.71985,0.16578" /><path
       style="fill:none;fill-rule:evenodd;stroke:#000000;stroke-width:0.264583"
       id="path197"
       d="m 138.1125,164.43854 c 0.0814,0.0827 -0.0713,0.15059 -0.13744,0.13537 -0.17929,-0.0412 -0.20642,-0.27148 -0.13331,-0.41027 0.13077,-0.24825 0.46565,-0.27491 0.6831,-0.13123 0.31911,0.21085 0.34546,0.66245 0.12916,0.95592 -0.28829,0.39114 -0.8602,0.41689 -1.22875,0.12709 -0.46377,-0.36468 -0.48877,-1.05839 -0.12502,-1.50157 0.44055,-0.53675 1.25684,-0.56092 1.7744,-0.12295 0.60992,0.51613 0.63322,1.45544 0.12088,2.04722 -0.59153,0.68324 -1.65415,0.70565 -2.32005,0.11881 -0.13831,-0.12189 -0.25685,-0.26586 -0.35047,-0.42464" /><path
       style="fill:none;fill-rule:evenodd;stroke:#000000;stroke-width:0.264583"
       id="path202"
       d="m 58.472916,146.05 c 0.104708,-0.0977 0.183356,0.093 0.162383,0.17403 -0.05684,0.21975 -0.341717,0.24553 -0.510447,0.15074 -0.301818,-0.16956 -0.323532,-0.58347 -0.139085,-0.84686 0.270682,-0.38654 0.828544,-0.40399 1.183275,-0.12744 0.4728,0.3686 0.48549,1.07481 0.115788,1.51969 -0.465231,0.55984 -1.321642,0.56754 -1.856104,0.10414 -0.647304,-0.56124 -0.649902,-1.56879 -0.09249,-2.19252 0.656889,-0.73503 1.816148,-0.73246 2.528933,-0.0808 0.822939,0.75232 0.815159,2.06363 0.06919,2.86535 -0.154938,0.16652 -0.336447,0.30792 -0.535405,0.41809" /><path
       style="fill:none;fill-rule:evenodd;stroke:#000000;stroke-width:0.264583"
       id="path204"
       d="m 50.535416,188.51562 c 0.113351,-0.15508 0.26498,0.0763 0.257768,0.1884 -0.01955,0.30383 -0.388389,0.40954 -0.634564,0.32714 -0.440349,-0.14739 -0.573191,-0.68725 -0.396508,-1.08073 0.259288,-0.57744 0.989888,-0.74091 1.526894,-0.46588 0.715745,0.36657 0.910306,1.29383 0.53525,1.97306 -0.47197,0.85475 -1.598368,1.08057 -2.419226,0.60462 -0.99417,-0.57643 -1.25132,-1.90325 -0.67399,-2.86539 0.680363,-1.13384 2.208355,-1.42239 3.311557,-0.74336 1.273691,0.78396 1.593661,2.5136 0.812731,3.75772 -0.162201,0.25841 -0.365734,0.49042 -0.60012,0.68567" /><path
       style="fill:none;fill-rule:evenodd;stroke:#000000;stroke-width:0.264583"
       id="path205"
       d="m 33.734375,198.56979 c 0.04732,-0.10634 0.166694,0.0113 0.176749,0.0786 0.02725,0.18245 -0.177705,0.2922 -0.334042,0.27485 -0.27965,-0.031 -0.42732,-0.33381 -0.372954,-0.58944 0.07978,-0.37514 0.491623,-0.56533 0.844833,-0.47105 0.470774,0.12565 0.704503,0.64999 0.569159,1.10023 -0.170316,0.56657 -0.808616,0.84426 -1.355625,0.66726 -0.6625,-0.21437 -0.984361,-0.96738 -0.765364,-1.61102 0.258081,-0.75851 1.126227,-1.12467 1.866417,-0.86347 0.854578,0.30157 1.265122,1.28513 0.961569,2.12181 -0.06305,0.17378 -0.153952,0.33721 -0.267826,0.48281" /><path
       style="fill:none;fill-rule:evenodd;stroke:#000000;stroke-width:0.264583"
       id="path207"
       d="m 60.589584,190.63229 c 0.04978,-0.0708 0.119941,0.0322 0.117603,0.0827 -0.0063,0.13697 -0.17157,0.18756 -0.283092,0.15246 -0.199487,-0.0628 -0.263687,-0.30482 -0.187318,-0.48344 0.112073,-0.26213 0.439739,-0.34167 0.683787,-0.22218 0.325277,0.15926 0.420412,0.57523 0.257033,0.88414 -0.205595,0.38873 -0.710984,0.49955 -1.084482,0.29189 -0.452355,-0.2515 -0.578917,-0.84689 -0.326749,-1.28483 0.297171,-0.5161 0.982891,-0.65842 1.485177,-0.36161 0.579909,0.34269 0.738027,1.11896 0.396465,1.68553 -0.07094,0.11768 -0.160713,0.2238 -0.264674,0.31363" /><path
       style="fill:none;fill-rule:evenodd;stroke:#000000;stroke-width:0.264583"
       id="path213"
       d="m 156.21902,182.97272 c 0.0786,-0.15418 0.24658,0.0298 0.25625,0.13056 0.0262,0.27299 -0.28664,0.41989 -0.51737,0.38193 -0.41273,-0.0679 -0.60829,-0.52894 -0.50761,-0.90418 0.14775,-0.55069 0.774,-0.80084 1.29099,-0.63329 0.68906,0.22331 0.99507,1.01998 0.75897,1.67779 -0.29711,0.8278 -1.26638,1.19016 -2.06461,0.88466 -0.96675,-0.37001 -1.38573,-1.51302 -1.01033,-2.45142 0.44239,-1.10587 1.75979,-1.58161 2.83822,-1.13601 1.24509,0.51446 1.77771,2.00667 1.2617,3.22503 -0.10718,0.25305 -0.25489,0.48856 -0.43532,0.69581" /><path
       style="fill:none;fill-rule:evenodd;stroke:#000000;stroke-width:0.264583"
       id="path214"
       d="m 130.96207,187.08867 c 0.082,-0.10385 0.18046,0.0594 0.1726,0.13636 -0.0213,0.20867 -0.27797,0.27192 -0.44532,0.20884 -0.29936,-0.11284 -0.37688,-0.48795 -0.24508,-0.75428 0.19342,-0.39085 0.70063,-0.48453 1.06323,-0.28132 0.4833,0.27085 0.59331,0.91425 0.31756,1.3722 -0.347,0.57627 -1.12831,0.70266 -1.68115,0.35379 -0.66956,-0.42251 -0.81235,-1.34262 -0.39004,-1.99011 0.49768,-0.76304 1.55709,-0.92224 2.29907,-0.42628 0.85665,0.57262 1.03228,1.77166 0.46252,2.60803 -0.11834,0.17372 -0.26445,0.32819 -0.43086,0.45657" /><path
       style="fill:none;fill-rule:evenodd;stroke:#000000;stroke-width:0.264583"
       id="path215"
       d="m 118.61421,192.14006 c 0.094,-0.14632 0.2436,0.0545 0.24319,0.15619 -0.001,0.27561 -0.32863,0.39122 -0.55556,0.33019 -0.40594,-0.10918 -0.5554,-0.58977 -0.41719,-0.95494 0.20282,-0.53591 0.85408,-0.72344 1.35431,-0.50419 0.66673,0.29222 0.89308,1.11949 0.5912,1.75369 -0.37989,0.79808 -1.3854,1.06352 -2.15308,0.67819 -0.92975,-0.46668 -1.23443,-1.65159 -0.76519,-2.55244 0.55298,-1.06163 1.91796,-1.40564 2.95183,-0.8522 1.19364,0.63897 1.57703,2.18444 0.93919,3.3512 -0.13248,0.24234 -0.30375,0.46308 -0.5049,0.65229" /><path
       style="fill:none;fill-rule:evenodd;stroke:#000000;stroke-width:0.264583"
       id="path219"
       d="m 58.55875,153.97397 c 0.07448,-0.12712 0.2081,0.0377 0.21128,0.12379 0.0086,0.23335 -0.264638,0.34257 -0.458862,0.29877 -0.347422,-0.0784 -0.490599,-0.48001 -0.386258,-0.79394 0.153124,-0.46069 0.697944,-0.64201 1.129005,-0.47374 0.574536,0.22427 0.794812,0.91674 0.561236,1.46407 -0.293932,0.68877 -1.135934,0.94832 -1.799148,0.64873 -0.803241,-0.36284 -1.102223,-1.35535 -0.736214,-2.13422 0.431329,-0.91787 1.574907,-1.25638 2.469291,-0.8237 1.032601,0.49955 1.410716,1.79455 0.911191,2.80436 -0.103752,0.20974 -0.241087,0.40253 -0.404811,0.56968" /></g><g
     id="layer9"
     style="display:none;opacity:0.759661"
     transform="translate(-29.486608,-140.82266)"><path
       style="opacity:0.875872;fill:url(#linearGradient153);fill-opacity:1;stroke:none;stroke-width:0.713632;stroke-linecap:butt;stroke-linejoin:round;stroke-dasharray:none;stroke-opacity:1;paint-order:markers stroke fill"
       d="m 100.14802,37.818879 -79.98188,144.343881 158.67801,0.0975 z"
       id="path152" /></g><g
     id="g225"
     style="display:none;opacity:1;fill:url(#linearGradient226)"
     transform="translate(-29.486608,-140.82266)"><path
       style="opacity:0.875872;fill:url(#linearGradient227);fill-opacity:1;stroke:none;stroke-width:0.944019;stroke-linecap:butt;stroke-linejoin:round;stroke-dasharray:none;stroke-opacity:1;paint-order:markers stroke fill"
       d="M 100.38385,37.818879 -8.9380263,222.61668 207.94831,222.74151 Z"
       id="path225" /></g></svg>
