<?xml version="1.0" encoding="UTF-8" standalone="no"?>
<!-- Created with Inkscape (http://www.inkscape.org/) -->

<svg
   width="192.49709mm"
   height="97.46553mm"
   viewBox="0 0 192.49709 97.465532"
   version="1.1"
   id="svg1"
   xml:space="preserve"
   xmlns:xlink="http://www.w3.org/1999/xlink"
   xmlns="http://www.w3.org/2000/svg"
   xmlns:svg="http://www.w3.org/2000/svg"><defs
     id="defs1"><linearGradient
       id="linearGradient228"><stop
         style="stop-color:#ffb1a0;stop-opacity:1;"
         offset="0"
         id="stop227" /><stop
         style="stop-color:#ff3600;stop-opacity:0;"
         offset="0.65057278"
         id="stop228" /></linearGradient><linearGradient
       id="linearGradient225"><stop
         style="stop-color:#ffd998;stop-opacity:1;"
         offset="0"
         id="stop225" /><stop
         style="stop-color:#000000;stop-opacity:0;"
         offset="0.70046347"
         id="stop226" /></linearGradient><linearGradient
       id="linearGradient152"><stop
         style="stop-color:#9592a1;stop-opacity:0.82736999;"
         offset="0"
         id="stop152" /><stop
         style="stop-color:#444673;stop-opacity:0;"
         offset="0.57562411"
         id="stop153" /></linearGradient><linearGradient
       xlink:href="#linearGradient152"
       id="linearGradient153"
       x1="100.16573"
       y1="81.771553"
       x2="100.45915"
       y2="229.57385"
       gradientUnits="userSpaceOnUse"
       gradientTransform="matrix(1.2665643,0,0,1.1538197,-27.037753,-15.755159)" /><linearGradient
       xlink:href="#linearGradient225"
       id="linearGradient226"
       x1="99.505127"
       y1="30.700579"
       x2="99.505135"
       y2="189.37862"
       gradientUnits="userSpaceOnUse" /><linearGradient
       xlink:href="#linearGradient228"
       id="linearGradient227"
       gradientUnits="userSpaceOnUse"
       x1="99.505127"
       y1="30.700579"
       x2="99.505135"
       y2="189.37862"
       gradientTransform="matrix(1.366833,0,0,1.2802608,-36.501773,-10.599147)" /></defs><g
     id="layer1"
     style="display:none"
     transform="translate(-11.750222,-123.96289)"><rect
       style="display:inline;fill:#332421;fill-opacity:1;stroke:#000000;stroke-width:1.5;stroke-linecap:square;stroke-linejoin:miter;stroke-dasharray:none;stroke-opacity:1;paint-order:markers stroke fill"
       id="rect26"
       width="100"
       height="100"
       x="-100.64743"
       y="141.9351"
       transform="rotate(-45)" /><rect
       style="display:inline;fill:#ceb56b;fill-opacity:1;stroke:none;stroke-width:0.591502;stroke-linecap:square;stroke-linejoin:miter;stroke-dasharray:none;stroke-opacity:1;paint-order:markers stroke fill"
       id="rect27"
       width="50"
       height="50"
       x="-100.66982"
       y="191.9575"
       transform="rotate(-45)" /><rect
       style="display:inline;fill:#ff4236;fill-opacity:1;stroke:none;stroke-width:0.591502;stroke-linecap:square;stroke-linejoin:miter;stroke-dasharray:none;stroke-opacity:1;paint-order:markers stroke fill"
       id="rect28"
       width="50"
       height="50"
       x="-50.646244"
       y="141.93391"
       transform="rotate(-45)" /><rect
       style="display:inline;fill:#2e2e2e;fill-opacity:1;stroke:#000000;stroke-width:1;stroke-linecap:square;stroke-linejoin:miter;stroke-dasharray:none;stroke-opacity:1;paint-order:markers stroke fill"
       id="rect29"
       width="49.261078"
       height="49.261078"
       x="-75.276779"
       y="167.30338"
       transform="rotate(-45)" /><rect
       style="display:inline;fill:#ceb56b;fill-opacity:1;stroke:#000000;stroke-width:1;stroke-linecap:square;stroke-linejoin:miter;stroke-dasharray:none;stroke-opacity:1;paint-order:markers stroke fill"
       id="rect31"
       width="26.116236"
       height="26.116236"
       x="-141.08167"
       y="178.87579"
       transform="rotate(-45)" /><rect
       style="display:inline;fill:#ff5347;fill-opacity:1;stroke:#000000;stroke-width:1;stroke-linecap:square;stroke-linejoin:miter;stroke-dasharray:none;stroke-opacity:1;paint-order:markers stroke fill"
       id="rect32"
       width="26.116236"
       height="26.116236"
       x="-63.704357"
       y="256.25311"
       transform="rotate(-45)" /><rect
       style="display:inline;fill:none;fill-opacity:1;stroke:#000000;stroke-width:1;stroke-linecap:square;stroke-linejoin:round;stroke-dasharray:none;stroke-opacity:1;paint-order:markers stroke fill"
       id="rect424"
       width="100"
       height="100"
       x="-100.64743"
       y="141.9351"
       transform="rotate(-45)" /></g><g
     id="layer3"
     transform="matrix(0.60484313,0,0,0.60484313,24.646721,-60.827114)"
     style="display:none"><path
       style="fill:#ffdc9b;fill-opacity:1;stroke:#000000;stroke-width:1.65332;stroke-linecap:round;stroke-linejoin:miter;stroke-dasharray:none;paint-order:markers stroke fill"
       d="m 126.33412,94.433664 -1.75388,14.905396 -11.5929,-8.89514 2.57618,-8.546281 3.41845,-1.348245 z"
       id="path22" /><path
       style="fill:#ffdc9b;fill-opacity:1;stroke:#000000;stroke-width:1.65332;stroke-linecap:round;stroke-linejoin:miter;stroke-dasharray:none;paint-order:markers stroke fill"
       d="m 96.127761,99.595544 -11.779887,9.299526 -1.907605,-14.487232 7.864768,-4.221499 3.370562,1.463856 z"
       id="path23" /><path
       style="fill:#ffdc9b;fill-opacity:1;stroke:#000000;stroke-width:1.65332;stroke-linecap:round;stroke-linejoin:miter;stroke-dasharray:none;paint-order:markers stroke fill"
       d="m 134.48249,75.15612 17.27178,32.6263 -32.83562,-17.382579 5.48282,-3.077387 4.55166,-3.92908 3.87929,-5.022902 z"
       id="path13" /><path
       style="fill:#ffdc9b;fill-opacity:1;stroke:#000000;stroke-width:1.65332;stroke-linecap:round;stroke-linejoin:miter;stroke-dasharray:none;paint-order:markers stroke fill"
       d="m 115.52081,91.72603 -10.85728,35.28327 -10.926955,-35.509629 6.052981,1.700898 5.996784,0.440231 6.2948,-0.808656 z"
       id="path14" /><path
       style="fill:#ffdc9b;fill-opacity:1;stroke:#000000;stroke-width:1.65332;stroke-linecap:round;stroke-linejoin:miter;stroke-dasharray:none;paint-order:markers stroke fill"
       d="m 90.396183,90.034793 -32.626296,17.271787 17.382575,-32.835627 3.077388,5.48282 3.929076,4.551657 5.022902,3.87929 z"
       id="path15" /></g><g
     id="layer5"
     style="display:none;opacity:0.875872;stroke:#000000;stroke-opacity:1"
     transform="translate(-11.750222,-123.96289)"><path
       style="display:inline;opacity:0.875872;fill:#c3cbcf;fill-opacity:1;stroke:#000000;stroke-width:1;stroke-linecap:butt;stroke-linejoin:miter;stroke-dasharray:none;stroke-opacity:1;paint-order:markers stroke fill"
       id="path431"
       d="m 153.8134,157.62988 a 6.1716037,5.2697177 0 0 1 6.1716,-5.26971 6.1716037,5.2697177 0 0 1 6.1716,5.26971" /><path
       style="display:inline;fill:#c3cbcf;fill-opacity:1;stroke:#000000;stroke-width:1;stroke-linecap:butt;stroke-linejoin:miter;stroke-dasharray:none;stroke-opacity:1;paint-order:markers stroke fill"
       id="path105"
       d="m 122.92773,157.73817 a 12.379564,16.231331 0 0 1 12.37957,-16.23133 12.379564,16.231331 0 0 1 12.37956,16.23133" /><path
       style="display:inline;fill:#c3cbcf;fill-opacity:1;stroke:#000000;stroke-width:1;stroke-linecap:butt;stroke-linejoin:miter;stroke-dasharray:none;stroke-opacity:1;paint-order:markers stroke fill"
       id="path106"
       d="m 106.95034,157.64891 a 11.834611,10.707694 0 0 1 11.83461,-10.70769 11.834611,10.707694 0 0 1 11.83461,10.70769" /><path
       style="display:inline;fill:#c3cbcf;fill-opacity:1;stroke:#000000;stroke-width:1;stroke-linecap:butt;stroke-linejoin:miter;stroke-dasharray:none;stroke-opacity:1;paint-order:markers stroke fill"
       id="path107"
       d="m 130.89603,157.64108 a 14.777189,12.617728 0 0 1 14.77719,-12.61773 14.777189,12.617728 0 0 1 14.77719,12.61773" /><path
       style="display:inline;fill:#c3cbcf;fill-opacity:1;stroke:#000000;stroke-width:1;stroke-linecap:butt;stroke-linejoin:miter;stroke-dasharray:none;stroke-opacity:1;paint-order:markers stroke fill"
       id="path108"
       d="M 29.757582,175.5116 A 12.379564,16.231331 0 0 1 42.137146,159.28027 12.379564,16.231331 0 0 1 54.51671,175.5116" /><path
       style="display:inline;fill:#c3cbcf;fill-opacity:1;stroke:#000000;stroke-width:1;stroke-linecap:butt;stroke-linejoin:miter;stroke-dasharray:none;stroke-opacity:1;paint-order:markers stroke fill"
       id="path109"
       d="m 13.780181,175.42233 a 11.834611,10.707694 0 0 1 11.834611,-10.70769 11.834611,10.707694 0 0 1 11.834611,10.70769" /><path
       style="display:inline;fill:#c3cbcf;fill-opacity:1;stroke:#000000;stroke-width:1;stroke-linecap:butt;stroke-linejoin:miter;stroke-dasharray:none;stroke-opacity:1;paint-order:markers stroke fill"
       id="path110"
       d="m 37.725878,175.41451 a 14.777189,12.617728 0 0 1 14.777189,-12.61773 14.777189,12.617728 0 0 1 14.777189,12.61773" /><path
       style="display:inline;fill:none;fill-opacity:1;stroke:#000000;stroke-width:0.472674;stroke-linecap:butt;stroke-linejoin:round;stroke-dasharray:none;stroke-opacity:1;paint-order:markers stroke fill"
       d="M 4.5855233,175.6341 H 67.780256"
       id="path9-1" /><path
       style="display:inline;opacity:0.875872;fill:none;fill-opacity:1;stroke:#000000;stroke-width:0.461587;stroke-linecap:butt;stroke-linejoin:round;stroke-dasharray:none;stroke-opacity:1;paint-order:markers stroke fill"
       d="m 106.39172,157.86068 h 60.26489"
       id="path9-1-3" /><path
       style="display:inline;opacity:0.875872;fill:#c3cbcf;fill-opacity:1;stroke:#000000;stroke-width:1;stroke-linecap:butt;stroke-linejoin:miter;stroke-dasharray:none;stroke-opacity:1;paint-order:markers stroke fill"
       id="path428"
       d="m 5.0855231,175.39777 a 7.5938296,4.9318171 0 0 1 7.5938299,-4.93182 7.5938296,4.9318171 0 0 1 7.593829,4.93182" /><path
       style="opacity:0.875872;fill:none;fill-opacity:1;stroke:#000000;stroke-width:0.5;stroke-linecap:butt;stroke-linejoin:round;stroke-dasharray:none;stroke-opacity:1;paint-order:markers stroke fill"
       d="m 17.399246,172.96347 c 0.524211,-2.06129 1.856279,-3.90569 3.648229,-5.05139 1.053665,-0.67367 2.246136,-1.10685 3.46114,-1.40317 1.208147,-0.29465 2.47609,-0.45794 3.693975,-0.20656 0.608943,0.12569 1.199461,0.35591 1.714215,0.70468 0.514754,0.34877 0.952054,0.81831 1.233458,1.37277 0.46407,0.91436 0.470793,2.0469 0.019,2.96739 -0.451792,0.9205 -1.351065,1.60769 -2.357611,1.80337 -0.277836,0.054 -0.568177,0.072 -0.841899,0 -0.340171,-0.0895 -0.640453,-0.32142 -0.813009,-0.62794 -0.172555,-0.30651 -0.21509,-0.68354 -0.115163,-1.02079 0.09993,-0.33726 0.340988,-0.63025 0.65267,-0.79329 0.311681,-0.16304 0.689839,-0.19394 1.023857,-0.0837"
       id="path112" /><path
       style="opacity:0.875872;fill:none;fill-opacity:1;stroke:#000000;stroke-width:0.499999;stroke-linecap:butt;stroke-linejoin:round;stroke-dasharray:none;stroke-opacity:1;paint-order:markers stroke fill"
       d="m 19.363677,173.85214 c 0.256717,-0.32178 0.506252,-0.64929 0.748355,-0.98221 0.776844,-1.06824 1.48426,-2.20056 2.430054,-3.12257 0.472897,-0.461 1.004917,-0.86677 1.598574,-1.15612 0.593657,-0.28936 1.251175,-0.45977 1.911437,-0.4453 0.879479,0.0193 1.747324,0.37662 2.38538,0.98221"
       id="path113" /><path
       style="opacity:0.875872;fill:none;fill-opacity:1;stroke:#000000;stroke-width:0.499999;stroke-linecap:butt;stroke-linejoin:round;stroke-dasharray:none;stroke-opacity:1;paint-order:markers stroke fill"
       d="m 39.241849,173.71183 c 0.712778,-1.75815 1.824489,-3.35322 3.227279,-4.63045 1.907157,-1.73646 4.319948,-2.86238 6.828737,-3.46114 0.904856,-0.21596 1.829316,-0.36674 2.759556,-0.37417 0.674296,-0.005 1.348097,0.0646 2.011204,0.18708 1.452449,0.2682 2.866933,0.79486 4.08693,1.62742 1.219996,0.83255 2.239824,1.97881 2.83535,3.33043 0.146731,0.33303 0.268502,0.68093 0.309912,1.04248 0.04141,0.36156 -0.0016,0.73944 -0.169595,1.06227 -0.09387,0.18042 -0.223926,0.33942 -0.327406,0.5145 -0.110369,0.18674 -0.191057,0.39255 -0.327404,0.56126 -0.209466,0.25918 -0.527622,0.40367 -0.841899,0.51449 -0.436644,0.15397 -0.894848,0.26128 -1.357824,0.25683 -0.462976,-0.004 -0.93259,-0.12642 -1.308189,-0.39714 -0.4459,-0.3214 -0.734463,-0.84377 -0.795026,-1.39008 -0.06056,-0.54631 0.101055,-1.10952 0.420847,-1.55657 0.187349,-0.2619 0.427396,-0.48595 0.701583,-0.65481"
       id="path114" /><path
       style="opacity:0.875872;fill:none;fill-opacity:1;stroke:#000000;stroke-width:0.499999;stroke-linecap:butt;stroke-linejoin:round;stroke-dasharray:none;stroke-opacity:1;paint-order:markers stroke fill"
       d="m 42.702987,173.29088 c 0.82046,-0.89584 1.712948,-1.7257 2.666014,-2.47893 1.445296,-1.14225 3.045947,-2.11493 4.798945,-2.68115 1.752998,-0.56623 3.668729,-0.7101 5.44416,-0.21872 0.688687,0.19061 1.351449,0.47465 1.964431,0.8419"
       id="path115" /><path
       style="opacity:0.875872;fill:none;fill-opacity:1;stroke:#000000;stroke-width:0.499999;stroke-linecap:butt;stroke-linejoin:round;stroke-dasharray:none;stroke-opacity:1;paint-order:markers stroke fill"
       d="m 47.520521,173.94569 c 0.514232,-0.84481 1.250582,-1.55307 2.114747,-2.03406 0.864165,-0.481 1.854126,-0.73362 2.843102,-0.7255 0.40881,0.003 0.817247,0.0505 1.216078,0.14032"
       id="path116" /><path
       style="opacity:0.875872;fill:none;fill-opacity:1;stroke:#000000;stroke-width:0.499999;stroke-linecap:butt;stroke-linejoin:round;stroke-dasharray:none;stroke-opacity:1;paint-order:markers stroke fill"
       d="m 34.190453,166.27505 c 0.379199,-0.89697 0.920644,-1.72506 1.590254,-2.43215 0.970711,-1.02504 2.188207,-1.77927 3.414369,-2.47892 0.290858,-0.16596 0.583526,-0.32978 0.888671,-0.46773 1.265418,-0.57206 2.737209,-0.67356 4.069178,-0.28063"
       id="path117" /><path
       style="opacity:0.875872;fill:none;fill-opacity:1;stroke:#000000;stroke-width:0.499999;stroke-linecap:butt;stroke-linejoin:round;stroke-dasharray:none;stroke-opacity:1;paint-order:markers stroke fill"
       d="m 36.809695,167.02341 c 0.516528,-0.7744 1.130993,-1.4834 1.824115,-2.10475 1.694504,-1.51904 3.866608,-2.49732 6.127154,-2.75956"
       id="path118" /><path
       style="opacity:0.875872;fill:none;fill-opacity:1;stroke:#000000;stroke-width:0.499999;stroke-linecap:butt;stroke-linejoin:round;stroke-dasharray:none;stroke-opacity:1;paint-order:markers stroke fill"
       d="m 112.11719,155.04583 c 0.34583,-1.30664 1.09008,-2.50499 2.10801,-3.39422 1.01793,-0.88923 2.30541,-1.46572 3.64667,-1.63286 0.72354,-0.0902 1.45689,-0.0639 2.18282,-0.13229 0.63938,-0.0602 1.27898,-0.1938 1.91823,-0.1323 0.3841,0.0369 0.758,0.14375 1.12447,0.26459 0.40164,0.13243 0.80025,0.28367 1.16109,0.50422 0.36085,0.22055 0.68451,0.5149 0.88944,0.88484 0.16952,0.30601 0.25221,0.65129 0.33072,0.99219 0.11916,0.5174 0.23335,1.03856 0.26661,1.56846 0.0333,0.52989 -0.0172,1.0726 -0.21763,1.56427 -0.20039,0.49168 -0.56077,0.92942 -1.03931,1.15942 -0.23927,0.115 -0.50516,0.17663 -0.77053,0.16943 -0.26537,-0.007 -0.52972,-0.0842 -0.75268,-0.22825 -0.2401,-0.15517 -0.4294,-0.38762 -0.53274,-0.65417 -0.10335,-0.26655 -0.1202,-0.56585 -0.0474,-0.84232 0.0728,-0.27646 0.23476,-0.5287 0.45591,-0.70985 0.22116,-0.18116 0.50036,-0.29031 0.78574,-0.3072"
       id="path119" /><path
       style="opacity:0.875872;fill:none;fill-opacity:1;stroke:#000000;stroke-width:0.499999;stroke-linecap:butt;stroke-linejoin:round;stroke-dasharray:none;stroke-opacity:1;paint-order:markers stroke fill"
       d="m 134.80521,155.24427 c 0.30541,-1.15076 0.93008,-2.21503 1.78593,-3.04271 0.55568,-0.53739 1.20102,-0.9723 1.85209,-1.38906 1.66281,-1.0644 3.41273,-2.04069 5.32238,-2.54177 1.90965,-0.50109 4.0089,-0.49258 5.79012,0.35896 0.608,0.29066 1.16738,0.67234 1.71979,1.05833 1.51928,1.06157 3.0423,2.2051 4.03489,3.77031 0.41405,0.65291 0.72754,1.36946 0.92605,2.11667"
       id="path120" /><path
       style="opacity:0.875872;fill:none;fill-opacity:1;stroke:#000000;stroke-width:0.499999;stroke-linecap:butt;stroke-linejoin:round;stroke-dasharray:none;stroke-opacity:1;paint-order:markers stroke fill"
       d="m 149.75416,154.64896 c -1.29902,-0.35701 -2.71182,-0.28638 -3.96875,0.19843 -1.08024,0.41665 -2.04348,1.1269 -3.16403,1.41822 -0.56028,0.14566 -1.16118,0.17998 -1.71456,0.01 -0.27669,-0.085 -0.53886,-0.22079 -0.7606,-0.40684 -0.22174,-0.18605 -0.40231,-0.42293 -0.51237,-0.69064 -0.13331,-0.32427 -0.16035,-0.68828 -0.096,-1.03293 0.0643,-0.34466 0.21776,-0.66996 0.42678,-0.95144 0.31029,-0.41785 0.73715,-0.73679 1.19063,-0.99219 0.92348,-0.5201 1.98283,-0.79646 3.0427,-0.79375"
       id="path122" /><path
       style="opacity:0.875872;fill:none;fill-opacity:1;stroke:#000000;stroke-width:0.499999;stroke-linecap:butt;stroke-linejoin:round;stroke-dasharray:none;stroke-opacity:1;paint-order:markers stroke fill"
       d="m 143.07344,154.18594 c 0.0647,-0.0892 0.1309,-0.17745 0.19843,-0.26459 0.50741,-0.65474 1.10421,-1.25733 1.83314,-1.65081 0.72893,-0.39347 1.60388,-0.56166 2.4002,-0.33356 0.42254,0.12103 0.8134,0.35095 1.12448,0.66146"
       id="path123" /><path
       style="opacity:0.875872;fill:none;fill-opacity:1;stroke:#000000;stroke-width:0.499999;stroke-linecap:butt;stroke-linejoin:round;stroke-dasharray:none;stroke-opacity:1;paint-order:markers stroke fill"
       d="m 135.20208,151.20937 c 1.27059,-1.47328 2.8945,-2.63975 4.69636,-3.37343 0.70515,-0.28712 1.4369,-0.50887 2.18281,-0.66146"
       id="path124" /><path
       style="opacity:0.875872;fill:none;fill-opacity:1;stroke:#000000;stroke-width:0.499999;stroke-linecap:butt;stroke-linejoin:round;stroke-dasharray:none;stroke-opacity:1;paint-order:markers stroke fill"
       d="m 143.86719,147.10833 c 0.97189,-0.82304 2.24451,-1.28271 3.51802,-1.2707 1.2735,0.012 2.53723,0.49558 3.49343,1.3368 0.59765,0.52578 1.07601,1.18637 1.38907,1.91823"
       id="path125" /><path
       style="opacity:0.875872;fill:none;fill-opacity:1;stroke:#000000;stroke-width:0.499999;stroke-linecap:butt;stroke-linejoin:round;stroke-dasharray:none;stroke-opacity:1;paint-order:markers stroke fill"
       d="m 154.11979,149.29114 c 1.02079,0.22257 1.97038,0.76112 2.68533,1.52296 0.71496,0.76183 1.19219,1.74367 1.34957,2.77652 0.11063,0.72604 0.0652,1.47546 -0.1323,2.18282"
       id="path126" /><path
       style="opacity:0.875872;fill:none;fill-opacity:1;stroke:#000000;stroke-width:0.499999;stroke-linecap:butt;stroke-linejoin:round;stroke-dasharray:none;stroke-opacity:1;paint-order:markers stroke fill"
       d="m 128.32292,148.10052 c 0.69104,-1.38512 1.72185,-2.59919 2.97656,-3.50573 1.06695,-0.77088 2.30079,-1.32162 3.59912,-1.53837 1.29833,-0.21675 2.66042,-0.0926 3.87536,0.41389 0.27325,0.11392 0.53866,0.24663 0.79375,0.39688"
       id="path127" /><path
       style="opacity:0.875872;fill:none;fill-opacity:1;stroke:#000000;stroke-width:0.499999;stroke-linecap:butt;stroke-linejoin:round;stroke-dasharray:none;stroke-opacity:1;paint-order:markers stroke fill"
       d="m 129.77812,148.89427 c 0.17813,-0.32112 0.37713,-0.63067 0.59532,-0.92604 0.75055,-1.01602 1.73538,-1.86382 2.87052,-2.41798 1.13513,-0.55416 2.42032,-0.80965 3.67791,-0.69088 0.51791,0.0489 1.02989,0.16021 1.52136,0.33073"
       id="path128" /><path
       style="opacity:0.875872;fill:none;fill-opacity:1;stroke:#000000;stroke-width:0.499999;stroke-linecap:butt;stroke-linejoin:round;stroke-dasharray:none;stroke-opacity:1;paint-order:markers stroke fill"
       d="m 136.65729,145.91771 c -1.12244,0.19638 -2.17948,0.75065 -2.97932,1.56225 -0.79984,0.81161 -1.33863,1.87662 -1.5186,3.00181 -0.0559,0.34957 -0.0781,0.70452 -0.0661,1.05833"
       id="path129" /><path
       style="opacity:0.875872;fill:none;fill-opacity:1;stroke:#000000;stroke-width:0.499999;stroke-linecap:butt;stroke-linejoin:round;stroke-dasharray:none;stroke-opacity:1;paint-order:markers stroke fill"
       d="m 127.33073,148.16666 c 0.32006,0.22756 0.62921,0.47047 0.92604,0.72761 0.68316,0.59181 1.31374,1.27917 1.65365,2.11667 0.14539,0.35822 0.23498,0.73901 0.26458,1.12447"
       id="path130" /><path
       style="opacity:0.875872;fill:none;fill-opacity:1;stroke:#000000;stroke-width:0.499999;stroke-linecap:butt;stroke-linejoin:round;stroke-dasharray:none;stroke-opacity:1;paint-order:markers stroke fill"
       d="m 114.23385,155.575 c 0.46612,-1.04194 1.2324,-1.94754 2.18282,-2.57969 1.67143,-1.1117 3.90854,-1.31742 5.75468,-0.52917"
       id="path131" /><path
       style="opacity:0.875872;fill:none;fill-opacity:1;stroke:#000000;stroke-width:0.499999;stroke-linecap:butt;stroke-linejoin:round;stroke-dasharray:none;stroke-opacity:1;paint-order:markers stroke fill"
       d="m 109.40521,155.37656 c 0.25285,-1.58255 0.94272,-3.09301 1.97324,-4.32037 1.03052,-1.22737 2.39882,-2.16821 3.91374,-2.69109 0.72551,-0.25041 1.48353,-0.40648 2.24895,-0.46302"
       id="path132" /><path
       style="opacity:0.875872;fill:none;fill-opacity:1;stroke:#000000;stroke-width:0.499999;stroke-linecap:butt;stroke-linejoin:round;stroke-dasharray:none;stroke-opacity:1;paint-order:markers stroke fill"
       d="m 119.19479,155.17812 c -0.0181,0.0975 -0.003,0.20101 0.043,0.28908 0.0457,0.0881 0.12149,0.16017 0.21171,0.20146 0.0902,0.0413 0.19432,0.0515 0.29085,0.0286 0.0965,-0.0229 0.18489,-0.0789 0.24688,-0.15641 0.062,-0.0775 0.0972,-0.17597 0.0984,-0.27519 0.001,-0.0992 -0.0316,-0.19853 -0.0917,-0.27748 -0.0601,-0.0789 -0.14707,-0.13705 -0.24302,-0.16232 -0.0959,-0.0253 -0.20027,-0.0176 -0.29146,0.0215 -0.13511,0.058 -0.23771,0.18619 -0.26458,0.33073 -0.0262,0.14112 0.019,0.29181 0.11169,0.40142 0.0927,0.1096 0.22966,0.17834 0.37201,0.19676 0.14235,0.0184 0.28914,-0.0118 0.41739,-0.0762 0.12825,-0.0644 0.23838,-0.16209 0.32597,-0.2758 0.17519,-0.22742 0.25864,-0.51178 0.31454,-0.79336 0.0559,-0.28158 0.0883,-0.56918 0.17819,-0.84183 0.17914,-0.5436 0.59635,-1.00754 1.12477,-1.22748 0.52841,-0.21993 1.15955,-0.18638 1.65336,0.103 0.46347,0.2716 0.79246,0.76156 0.86843,1.29335 0.076,0.53179 -0.10267,1.09428 -0.47156,1.48478"
       id="path133" /><path
       style="opacity:0.875872;fill:none;fill-opacity:1;stroke:#000000;stroke-width:0.499999;stroke-linecap:butt;stroke-linejoin:round;stroke-dasharray:none;stroke-opacity:1;paint-order:markers stroke fill"
       d="m 127,151.93698 c 0.5832,0.70609 0.99507,1.55271 1.19062,2.44739 0.0807,0.3693 0.1251,0.74653 0.1323,1.12448"
       id="path134" /><path
       style="opacity:1;fill:#000000;fill-opacity:0;stroke:#000000;stroke-width:0.4;stroke-linecap:square;stroke-linejoin:miter;stroke-dasharray:none;stroke-opacity:1;paint-order:markers stroke fill"
       d="m 7.38546,174.74957 c 0.8544784,-1.48617 2.3830951,-2.56674 4.069178,-2.87649 0.677113,-0.12439 1.36961,-0.12995 2.057976,-0.14032 0.539941,-0.008 1.085474,-0.0189 1.61364,0.0935 0.71152,0.15148 1.36007,0.52101 1.941044,0.95882 0.37524,0.28277 0.727562,0.59595 1.052375,0.93545"
       id="path429" /><path
       style="opacity:1;fill:#000000;fill-opacity:0;stroke:#000000;stroke-width:0.4;stroke-linecap:square;stroke-linejoin:miter;stroke-dasharray:none;stroke-opacity:1;paint-order:markers stroke fill"
       d="m 9.9111568,174.72618 c 1.0704272,-0.71801 2.3027142,-1.1932 3.5780712,-1.37978 0.363772,-0.0532 0.733316,-0.0833 1.099146,-0.0468 0.389949,0.0389 0.771303,0.15359 1.122532,0.3274 0.297495,0.14722 0.573981,0.33681 0.818513,0.56127"
       id="path430" /></g><g
     id="layer2"
     style="display:none"
     transform="matrix(1.0608363,0,0,1.0608363,-23.459816,-121.19065)"><g
       id="layer4"
       style="display:inline"
       transform="matrix(0.94265252,0,0,0.94265252,11.038078,6.0283644)"><path
         style="display:inline;fill:none;fill-opacity:1;stroke:#000000;stroke-width:0.499999;stroke-linecap:butt;stroke-linejoin:round;stroke-dasharray:none;stroke-opacity:1;paint-order:markers stroke fill"
         d="m 24.789248,144.71309 14.780004,-0.46773"
         id="path48"
         transform="matrix(0.97763526,0,0,0.84119912,-12.342013,-5.3091483)" /><path
         style="display:inline;fill:none;fill-opacity:1;stroke:#000000;stroke-width:0.499999;stroke-linecap:butt;stroke-linejoin:round;stroke-dasharray:none;stroke-opacity:1;paint-order:markers stroke fill"
         d="m 144.90017,123.66561 h -1.12253 c -0.23673,0 -0.47492,0.003 -0.70754,0.0466 -0.23261,0.0439 -0.45865,0.12939 -0.65465,0.26215 -0.19601,0.13275 -0.3603,0.31151 -0.47793,0.51695 -0.11763,0.20544 -0.1889,0.43608 -0.21785,0.67104 -0.0434,0.35213 0.008,0.71449 0.13927,1.04396 0.13163,0.32947 0.34298,0.62582 0.60636,0.86354 0.52675,0.47545 1.25383,0.70416 1.96285,0.67587 0.70903,-0.0283 1.39712,-0.30182 1.97092,-0.71928 0.5738,-0.41745 1.03752,-0.97402 1.40098,-1.58346 0.36126,-0.60576 0.63093,-1.28117 0.66928,-1.98544 0.0192,-0.35213 -0.0203,-0.70872 -0.13042,-1.04375 -0.11011,-0.33502 -0.29178,-0.64805 -0.53886,-0.89967 -0.35329,-0.35978 -0.83094,-0.58374 -1.32622,-0.67834 -0.49529,-0.0946 -1.00828,-0.0654 -1.50319,0.0311 -0.98984,0.19302 -1.90808,0.64749 -2.8768,0.92787 -1.71945,0.49766 -3.54231,0.43445 -5.33202,0.46772 -1.72005,0.032 -3.43836,0.15695 -5.14494,0.37418"
         id="path84"
         transform="translate(12.785117,-8.4814086)" /><path
         style="display:inline;fill:none;fill-opacity:1;stroke:#000000;stroke-width:0.499999;stroke-linecap:butt;stroke-linejoin:round;stroke-dasharray:none;stroke-opacity:1;paint-order:markers stroke fill"
         d="m 164.35739,128.06219 12.90912,-0.0935"
         id="path87"
         transform="translate(2.245064,-8.6996231)" /><path
         style="display:inline;fill:none;fill-opacity:1;stroke:#000000;stroke-width:0.499999;stroke-linecap:butt;stroke-linejoin:round;stroke-dasharray:none;stroke-opacity:1;paint-order:markers stroke fill"
         d="m 173.24411,125.72358 10.5705,-0.28063"
         id="path88"
         transform="translate(2.245064,-8.6996231)" /><path
         style="display:inline;fill:none;fill-opacity:1;stroke:#000000;stroke-width:0.499999;stroke-linecap:butt;stroke-linejoin:round;stroke-dasharray:none;stroke-opacity:1;paint-order:markers stroke fill"
         d="m 164.26385,125.63004 h 3.08696"
         id="path89"
         transform="translate(2.245064,-8.6996231)" /><path
         style="display:inline;fill:none;fill-opacity:1;stroke:#000000;stroke-width:0.499999;stroke-linecap:butt;stroke-linejoin:round;stroke-dasharray:none;stroke-opacity:1;paint-order:markers stroke fill"
         d="m 175.30208,123.66561 8.51253,-0.28063"
         id="path90"
         transform="translate(2.245064,-8.6996231)" /><path
         style="display:inline;fill:none;fill-opacity:1;stroke:#000000;stroke-width:0.499999;stroke-linecap:butt;stroke-linejoin:round;stroke-dasharray:none;stroke-opacity:1;paint-order:markers stroke fill"
         d="m 172.02803,123.29143 -2.80633,-0.0935"
         id="path91"
         transform="translate(2.245064,-8.6996231)" /><path
         style="display:inline;fill:none;fill-opacity:1;stroke:#000000;stroke-width:0.499999;stroke-linecap:butt;stroke-linejoin:round;stroke-dasharray:none;stroke-opacity:1;paint-order:markers stroke fill"
         d="m 153.88043,132.73941 c 0.0542,0.26645 0.21238,0.51032 0.43362,0.66836 0.22125,0.15804 0.50324,0.22863 0.77285,0.19347 0.26961,-0.0352 0.52407,-0.17573 0.69737,-0.38524 0.17331,-0.2095 0.26368,-0.4858 0.24768,-0.75722 -0.0132,-0.22449 -0.0974,-0.4428 -0.22962,-0.62468 -0.13225,-0.18188 -0.31145,-0.32774 -0.51162,-0.43022 -0.40034,-0.20497 -0.87286,-0.23365 -1.31674,-0.16118 -0.85963,0.14035 -1.61641,0.63011 -2.43215,0.93544 -0.718,0.26875 -1.48197,0.39399 -2.24506,0.46773 -1.74709,0.16882 -3.51943,0.0739 -5.23849,-0.28064"
         id="path92"
         transform="translate(4.1034611,-17.643078)" /></g></g><g
     id="layer10"
     style="display:inline"
     transform="translate(-11.750222,-123.96289)"><path
       style="fill:#000000;fill-opacity:0;stroke:#000000;stroke-width:0.4;stroke-linecap:square;paint-order:markers stroke fill"
       d="m 12.015905,132.46753 c 9.344716,20.0964 18.450555,40.30388 27.314945,60.61672 3.530676,8.09058 7.02305,16.19788 10.476965,24.32153"
       id="path54" /><path
       style="fill:#000000;fill-opacity:0;stroke:#000000;stroke-width:0.4;stroke-linecap:square;paint-order:markers stroke fill"
       d="m 36.337431,135.83512 8.231902,17.02507"
       id="path55" /><path
       style="fill:#000000;fill-opacity:0;stroke:#000000;stroke-width:0.4;stroke-linecap:square;paint-order:markers stroke fill"
       d="m 53.175411,181.67185 c 5.034914,8.40476 9.477305,17.16441 13.283295,26.19241 0.575854,1.36595 1.137162,2.73804 1.683797,4.11595"
       id="path65" /><path
       style="fill:#000000;fill-opacity:0;stroke:#000000;stroke-width:0.4;stroke-linecap:square;paint-order:markers stroke fill"
       d="m 19.68654,184.85235 c 3.311537,6.24203 5.950882,12.8404 7.857723,19.64431 0.991966,3.53949 1.785977,7.13265 2.80633,10.66406 0.454448,1.57283 0.953621,3.13274 1.496711,4.67721"
       id="path66" /><path
       style="fill:#000000;fill-opacity:0;stroke:#000000;stroke-width:0.4;stroke-linecap:square;paint-order:markers stroke fill"
       d="m 46.44022,186.72324 13.470384,25.63115"
       id="path71" /><path
       style="fill:#000000;fill-opacity:0;stroke:#000000;stroke-width:0.4;stroke-linecap:square;paint-order:markers stroke fill"
       d="m 55.607564,127.60322 c 0.76639,2.27891 1.771447,4.47747 2.993419,6.54811 2.087313,3.53697 4.783052,6.66764 7.296457,9.91569 5.200988,6.72118 9.664062,14.01297 13.283295,21.70229"
       id="path102" /><path
       style="fill:#000000;fill-opacity:0;stroke:#000000;stroke-width:0.4;stroke-linecap:square;paint-order:markers stroke fill"
       d="m 75.438963,173.06577 c 6.138871,9.68858 12.312851,19.35491 18.521778,28.99874 2.32537,3.61181 4.666041,7.23441 7.483549,10.47697 1.38945,1.59907 2.89105,3.10067 4.49012,4.49012"
       id="path103" /><path
       style="fill:#000000;fill-opacity:0;stroke:#000000;stroke-width:0.4;stroke-linecap:square;paint-order:markers stroke fill"
       d="m 82.73542,126.85487 c -0.0141,0.72068 0.183236,1.44423 0.561266,2.05797 0.394816,0.64099 0.9688,1.14709 1.49671,1.6838 2.447789,2.48859 3.967333,5.71459 5.61266,8.79317 1.543212,2.88751 3.233129,5.69628 5.051393,8.41899 0.845588,1.2662 1.718949,2.51386 2.619242,3.74177"
       id="path121" /><path
       style="fill:#000000;fill-opacity:0;stroke:#000000;stroke-width:0.4;stroke-linecap:square;paint-order:markers stroke fill"
       d="m 78.806558,138.82854 c 6.074351,12.56406 12.693082,24.8649 19.831399,36.85647 2.124383,3.56872 4.297613,7.11438 6.735193,10.47696 1.79597,2.4775 3.73341,4.85243 5.79975,7.10937"
       id="path153" /><path
       style="fill:#000000;fill-opacity:0;stroke:#000000;stroke-width:0.4;stroke-linecap:square;paint-order:markers stroke fill"
       d="m 106.30859,127.60322 7.48355,12.16076"
       id="path154" /><path
       style="fill:#000000;fill-opacity:0;stroke:#000000;stroke-width:0.4;stroke-linecap:square;paint-order:markers stroke fill"
       d="m 120.52733,160.34374 c 8.27161,12.45411 16.88193,24.68326 25.81824,36.66938 2.10236,2.81985 4.22275,5.62626 6.36101,8.41899"
       id="path155" /><path
       style="fill:#000000;fill-opacity:0;stroke:#000000;stroke-width:0.4;stroke-linecap:square;paint-order:markers stroke fill"
       d="m 142.79088,166.51766 24.13444,35.73394"
       id="path156" /><path
       style="fill:#000000;fill-opacity:0;stroke:#000000;stroke-width:0.4;stroke-linecap:square;paint-order:markers stroke fill"
       d="m 164.30608,168.76273 c 3.27356,7.04846 7.36309,13.71754 12.16076,19.8314 1.8339,2.33701 3.76997,4.59219 5.61266,6.92228 1.91177,2.41744 3.7224,4.91486 5.42557,7.48354"
       id="path158" /><path
       style="fill:#000000;fill-opacity:0;stroke:#000000;stroke-width:0.4;stroke-linecap:square;paint-order:markers stroke fill"
       d="m 167.48659,133.59006 c 0.90511,1.97925 1.90442,3.91541 2.99341,5.79975 2.66649,4.61395 5.86134,8.90255 8.60609,13.47038 3.83842,6.38792 6.77573,13.28664 10.66405,19.64431 1.38148,2.25881 2.8809,4.44547 4.49013,6.54811"
       id="path159" /><path
       style="fill:#000000;fill-opacity:0;stroke:#000000;stroke-width:0.4;stroke-linecap:square;paint-order:markers stroke fill"
       d="m 183.01495,133.96424 c 3.04042,5.09882 6.15905,10.15101 9.35443,15.15418 2.20657,3.45495 4.44976,6.88657 6.73519,10.28987 1.60081,2.38382 3.22233,4.75373 4.86431,7.10937"
       id="path160" /><path
       style="fill:#000000;fill-opacity:0;stroke:#000000;stroke-width:0.4;stroke-linecap:square;paint-order:markers stroke fill"
       d="m 136.24278,124.23563 12.34785,21.70228"
       id="path161" /><path
       style="fill:#000000;fill-opacity:0;stroke:#000000;stroke-width:0.4;stroke-linecap:square;paint-order:markers stroke fill"
       d="m 119.77898,128.72575 6.73519,14.9671"
       id="path162" /><path
       style="fill:#000000;fill-opacity:0;stroke:#000000;stroke-width:0.4;stroke-linecap:square;paint-order:markers stroke fill"
       d="m 47.001486,128.91284 c 4.391516,8.40541 8.756946,16.82446 13.096205,25.25697 1.186853,2.30642 2.371749,4.61385 3.554685,6.92228"
       id="path163" /><path
       style="fill:#000000;fill-opacity:0;stroke:#000000;stroke-width:0.4;stroke-linecap:square;paint-order:markers stroke fill"
       d="m 108.55366,169.88526 c 8.30545,11.24799 16.72502,22.41171 25.25697,33.48887 4.58253,5.94956 9.19747,11.87415 13.84456,17.77342"
       id="path164" /><path
       style="fill:#000000;fill-opacity:0;stroke:#000000;stroke-width:0.4;stroke-linecap:square;paint-order:markers stroke fill"
       d="m 86.841139,179.28532 11.641667,15.61041"
       id="path165" /><path
       style="fill:#000000;fill-opacity:0;stroke:#000000;stroke-width:0.4;stroke-linecap:square;paint-order:markers stroke fill"
       d="m 101.16365,197.66793 c 2.02213,3.86774 4.65226,7.41683 7.76418,10.47696 1.03996,1.02266 2.13329,1.99103 3.27406,2.89988"
       id="path166" /><path
       style="fill:#000000;fill-opacity:0;stroke:#000000;stroke-width:0.4;stroke-linecap:square;paint-order:markers stroke fill"
       d="m 59.817058,180.82995 3.180509,6.73519"
       id="path170" /><path
       style="fill:#000000;fill-opacity:0;stroke:#000000;stroke-width:0.4;stroke-linecap:square;paint-order:markers stroke fill"
       d="m 63.745922,189.52957 2.712784,5.7062"
       id="path171" /><path
       style="fill:#000000;fill-opacity:0;stroke:#000000;stroke-width:0.4;stroke-linecap:square;paint-order:markers stroke fill"
       d="m 47.562752,179.98805 c 0.894405,2.09519 1.992602,4.10332 3.274052,5.98684 0.30179,0.44358 0.613713,0.88027 0.935442,1.30961"
       id="path172" /><path
       style="fill:#000000;fill-opacity:0;stroke:#000000;stroke-width:0.4;stroke-linecap:square;paint-order:markers stroke fill"
       d="m 25.205656,179.42678 3.554685,7.48355"
       id="path174" /><path
       style="fill:#000000;fill-opacity:0;stroke:#000000;stroke-width:0.4;stroke-linecap:square;paint-order:markers stroke fill"
       d="m 31.75376,197.38729 3.461139,11.5995"
       id="path189" /><path
       style="fill:#000000;fill-opacity:0;stroke:#000000;stroke-width:0.4;stroke-linecap:square;paint-order:markers stroke fill"
       d="m 37.459963,202.06451 3.554685,9.16734"
       id="path209" /><path
       style="fill:#000000;fill-opacity:0;stroke:#000000;stroke-width:0.4;stroke-linecap:square;paint-order:markers stroke fill"
       d="m 22.944265,136.29053 c 1.553527,2.93545 3.231218,5.80518 5.027083,8.59895 1.184012,1.84193 2.419374,3.65085 3.704167,5.42396"
       id="path210" /><path
       style="fill:#000000;fill-opacity:0;stroke:#000000;stroke-width:0.4;stroke-linecap:square;paint-order:markers stroke fill"
       d="m 26.119265,133.5124 3.571875,7.01146"
       id="path211" /><path
       style="fill:#000000;fill-opacity:0;stroke:#000000;stroke-width:0.4;stroke-linecap:square;paint-order:markers stroke fill"
       d="m 39.21614,126.23636 c 1.093015,1.92786 2.240144,3.82503 3.439583,5.68854 0.688448,1.06961 1.394125,2.12812 2.116667,3.175"
       id="path212" /><path
       style="fill:#000000;fill-opacity:0;stroke:#000000;stroke-width:0.4;stroke-linecap:square;paint-order:markers stroke fill"
       d="m 50.725515,128.61761 c 1.301334,2.25925 2.761312,4.42709 4.365625,6.48229 0.597642,0.76561 1.215284,1.5156 1.852083,2.24896"
       id="path221" /><path
       style="fill:#000000;fill-opacity:0;stroke:#000000;stroke-width:0.4;stroke-linecap:square;paint-order:markers stroke fill"
       d="m 58.927598,142.50823 c 1.439211,4.36495 3.593156,8.49335 6.35,12.17084 0.301597,0.40232 0.610342,0.79927 0.926041,1.19062"
       id="path222" /><path
       style="fill:#000000;fill-opacity:0;stroke:#000000;stroke-width:0.4;stroke-linecap:square;paint-order:markers stroke fill"
       d="m 64.219264,129.27907 4.7625,8.33437"
       id="path223" /><path
       style="fill:#000000;fill-opacity:0;stroke:#000000;stroke-width:0.4;stroke-linecap:square;paint-order:markers stroke fill"
       d="m 71.892181,143.69886 c 1.867904,1.81156 3.32561,4.04367 4.233333,6.48229 0.165787,0.44539 0.314171,0.89909 0.529167,1.32292 0.540775,1.06606 1.464489,1.87616 2.248958,2.77812 0.952533,1.0952 1.716689,2.35381 2.248959,3.70417"
       id="path224" /><path
       style="fill:#000000;fill-opacity:0;stroke:#000000;stroke-width:0.4;stroke-linecap:square;paint-order:markers stroke fill"
       d="m 94.646347,130.07282 c 1.681978,3.30944 3.67822,6.45907 5.953123,9.39271 0.84439,1.08889 1.72706,2.1481 2.64584,3.175"
       id="path226" /><path
       style="fill:#000000;fill-opacity:0;stroke:#000000;stroke-width:0.4;stroke-linecap:square;paint-order:markers stroke fill"
       d="m 114.88697,168.96657 c 4.37026,5.48395 8.6485,11.04124 12.83229,16.66875 1.82604,2.45616 3.63409,4.92569 5.42396,7.40833"
       id="path227" /><path
       style="fill:#000000;fill-opacity:0;stroke:#000000;stroke-width:0.4;stroke-linecap:square;paint-order:markers stroke fill"
       d="m 135.25989,195.29261 c 2.00556,1.1787 3.77136,2.76339 5.15937,4.63021 0.5998,0.8067 1.15108,1.68669 1.98438,2.24896 0.47769,0.32233 1.0361,0.53052 1.45521,0.92604 0.32141,0.30332 0.53935,0.69697 0.79375,1.05833 0.73864,1.04919 1.82298,1.85065 3.04271,2.24896"
       id="path228" /><path
       style="fill:#000000;fill-opacity:0;stroke:#000000;stroke-width:0.4;stroke-linecap:square;paint-order:markers stroke fill"
       d="m 132.08489,162.88115 6.21771,11.37708"
       id="path229" /><path
       style="fill:#000000;fill-opacity:0;stroke:#000000;stroke-width:0.4;stroke-linecap:square;paint-order:markers stroke fill"
       d="m 141.87447,178.88844 8.46667,11.50938 c 0.31632,0.72301 0.66971,1.4298 1.05833,2.11666 0.68763,1.21535 1.48573,2.36816 2.38125,3.43959"
       id="path230" /><path
       style="fill:#000000;fill-opacity:0;stroke:#000000;stroke-width:0.4;stroke-linecap:square;paint-order:markers stroke fill"
       d="m 152.06093,164.60094 7.14375,10.71563"
       id="path231" /><path
       style="fill:#000000;fill-opacity:0;stroke:#000000;stroke-width:0.4;stroke-linecap:square;paint-order:markers stroke fill"
       d="m 162.64426,181.53428 c 2.79484,5.65945 6.16955,11.03233 10.05417,16.00729 1.31027,1.67804 2.67837,3.31093 4.10104,4.89479"
       id="path232" /><path
       style="fill:#000000;fill-opacity:0;stroke:#000000;stroke-width:0.4;stroke-linecap:square;paint-order:markers stroke fill"
       d="m 154.57447,132.45407 3.83646,7.9375"
       id="path233" /><path
       style="fill:#000000;fill-opacity:0;stroke:#000000;stroke-width:0.4;stroke-linecap:square;paint-order:markers stroke fill"
       d="m 177.72551,139.46553 8.86354,14.2875"
       id="path234" /><path
       style="fill:#000000;fill-opacity:0;stroke:#000000;stroke-width:0.4;stroke-linecap:square;paint-order:markers stroke fill"
       d="m 190.5578,160.36761 c 0.76768,0.65985 1.40151,1.47477 1.85209,2.38125 0.29903,0.60158 0.51697,1.23994 0.79375,1.85208 0.9919,2.19372 2.69502,3.96885 4.23333,5.82084 0.88502,1.06549 1.72392,2.1693 2.51354,3.30729"
       id="path235" /><path
       style="fill:#000000;fill-opacity:0;stroke:#000000;stroke-width:0.4;stroke-linecap:square;paint-order:markers stroke fill"
       d="m 126.66093,178.09469 c 6.5275,0.19932 13.06511,0.0668 19.57917,-0.39687 0.4885,-0.0348 0.97919,-0.0718 1.45615,-0.18286 0.47696,-0.11112 0.94336,-0.30025 1.32197,-0.61089 0.53412,-0.43824 0.86204,-1.10312 0.94165,-1.78942 0.0796,-0.6863 -0.0786,-1.38955 -0.393,-2.00478 -0.62876,-1.23045 -1.82618,-2.07031 -3.06219,-2.68809 -0.34992,-0.17489 -0.70964,-0.33724 -1.09083,-0.42513 -0.38119,-0.0879 -0.78789,-0.0981 -1.15813,0.0283 -0.3433,0.11711 -0.64536,0.35156 -0.84398,0.65508 -0.19862,0.30351 -0.29253,0.67417 -0.26241,1.03565 0.0301,0.36147 0.1841,0.71147 0.43021,0.97793 0.24612,0.26645 0.58282,0.44767 0.94077,0.50634"
       id="path236" /><path
       style="fill:#000000;fill-opacity:0;stroke:#000000;stroke-width:0.4;stroke-linecap:square;paint-order:markers stroke fill"
       d="m 31.940098,197.67386 c 0.347928,0.14477 0.701003,0.27717 1.058334,0.39687 2.148026,0.71953 4.490802,0.9701 6.692824,0.43827 2.202022,-0.53182 4.244176,-1.89837 5.345717,-3.87785 0.448665,-0.80626 0.740701,-1.72655 0.661458,-2.64583 -0.04973,-0.57686 -0.248034,-1.14308 -0.587045,-1.61245 -0.339011,-0.46936 -0.820022,-0.83865 -1.368344,-1.0246 -0.548321,-0.18595 -1.162046,-0.18396 -1.701826,0.0255 -0.539779,0.20946 -0.998986,0.62879 -1.237576,1.15634 -0.209765,0.46381 -0.24564,1.00387 -0.09907,1.49136 0.146572,0.48749 0.474333,0.91821 0.905102,1.18944 0.43077,0.27122 0.960849,0.38062 1.463799,0.30209 0.50295,-0.0785 0.974453,-0.3443 1.302042,-0.73393"
       id="path237" /><path
       style="fill:#000000;fill-opacity:0;stroke:#000000;stroke-width:0.4;stroke-linecap:square;paint-order:markers stroke fill"
       d="m 39.14376,144.25411 c 3.039573,0.383 6.103753,0.57061 9.167347,0.56127 4.918711,-0.015 9.93638,-0.56547 14.405827,-2.61924 1.479993,-0.68008 2.942818,-1.5736 3.795597,-2.96128 0.426389,-0.69383 0.683569,-1.50211 0.66403,-2.31626 -0.01954,-0.81415 -0.328713,-1.63053 -0.904942,-2.20601 -0.656172,-0.65532 -1.578066,-0.94831 -2.432153,-1.30962 -1.594568,-0.67456 -3.064694,-1.65591 -4.730378,-2.12833 -0.832842,-0.23621 -1.714497,-0.33969 -2.568326,-0.19687 -0.853829,0.14282 -1.678846,0.54589 -2.242819,1.20267 -0.480021,0.55901 -0.754418,1.287 -0.781583,2.02332 -0.02716,0.73632 0.189872,1.47685 0.594496,2.09263 0.611371,0.93043 1.657389,1.56166 2.765527,1.6689 1.108137,0.10724 2.255785,-0.31171 3.034221,-1.10764"
       id="path238" /><path
       style="fill:#000000;fill-opacity:0;stroke:#000000;stroke-width:0.4;stroke-linecap:square;paint-order:markers stroke fill"
       d="m 160.79218,195.16032 c 2.80493,-0.50906 5.63013,-0.90635 8.46667,-1.19063 1.6336,-0.16372 3.29278,-0.29462 4.83772,-0.85015 0.77247,-0.27776 1.51145,-0.66242 2.14653,-1.18254 0.63509,-0.52013 1.16427,-1.17932 1.48241,-1.93606 0.34355,-0.81717 0.43244,-1.73761 0.26268,-2.60765 -0.16975,-0.87004 -0.59605,-1.68685 -1.20452,-2.33148 -0.60848,-0.64463 -1.39631,-1.11613 -2.24892,-1.35871 -0.85261,-0.24258 -1.76759,-0.25688 -2.63007,-0.0522 -1.2154,0.28849 -2.33495,1.03283 -2.99004,2.09644 -0.32754,0.5318 -0.53755,1.13723 -0.5968,1.75899 -0.0592,0.62177 0.0336,1.25901 0.27955,1.83311 0.26552,0.61966 0.70937,1.1617 1.26448,1.54423 0.55511,0.38254 1.21966,0.6043 1.89325,0.6318 0.67358,0.0275 1.354,-0.13938 1.93844,-0.4754 0.58444,-0.33602 1.07098,-0.84008 1.38612,-1.43604"
       id="path239" /><path
       style="fill:#000000;fill-opacity:0;stroke:#000000;stroke-width:0.4;stroke-linecap:square;paint-order:markers stroke fill"
       d="m 93.588014,140.65615 c 2.981745,3.10832 7.470736,4.69899 11.744336,4.1616 4.27361,-0.5374 8.22902,-3.18994 10.34837,-6.93972 0.40019,-0.70807 0.74119,-1.46168 0.87753,-2.2635 0.13634,-0.80183 0.0543,-1.66003 -0.34836,-2.36671 -0.42812,-0.75142 -1.21541,-1.28723 -2.0715,-1.40982 -0.85609,-0.12259 -1.76211,0.17075 -2.3839,0.77182 -0.6218,0.60106 -0.94567,1.49662 -0.85216,2.35637 0.0935,0.85975 0.60233,1.66475 1.33881,2.11809"
       id="path240" /></g><g
     id="layer11"
     style="display:none"
     transform="translate(-11.750222,-123.96289)"><path
       style="fill:none;fill-rule:evenodd;stroke:#000000;stroke-width:0.264583"
       id="path188"
       d="m 19.976042,180.97499 c 0.06624,-0.0761 0.135267,0.0517 0.126489,0.1101 -0.02379,0.15813 -0.221529,0.19699 -0.346682,0.14288 -0.223869,-0.0968 -0.269297,-0.38524 -0.159276,-0.58327 0.161461,-0.29062 0.551098,-0.34356 0.819854,-0.17567 0.358211,0.22378 0.418651,0.71772 0.192063,1.05644 -0.285138,0.42626 -0.884689,0.49416 -1.293027,0.20846 -0.494551,-0.34603 -0.569916,-1.05187 -0.224848,-1.52961 0.406649,-0.56301 1.219164,-0.64583 1.766198,-0.24125 0.631572,0.46711 0.721836,1.38655 0.257635,2.00279 -0.09642,0.12799 -0.213283,0.24032 -0.344656,0.33205" /><path
       style="fill:none;fill-rule:evenodd;stroke:#000000;stroke-width:0.264583"
       id="path190"
       d="m 178.99062,125.2802 c 0.0662,-0.0761 0.13526,0.0517 0.12649,0.11009 -0.0238,0.15813 -0.22153,0.19699 -0.34669,0.14289 -0.22387,-0.0968 -0.26929,-0.38524 -0.15927,-0.58327 0.16146,-0.29062 0.55109,-0.34356 0.81985,-0.17567 0.35821,0.22377 0.41865,0.71771 0.19206,1.05644 -0.28513,0.42625 -0.88468,0.49416 -1.29302,0.20845 -0.49455,-0.34602 -0.56992,-1.05186 -0.22485,-1.52961 0.40665,-0.56301 1.21916,-0.64582 1.7662,-0.24124 0.63157,0.46711 0.72183,1.38655 0.25763,2.00278 -0.0964,0.128 -0.21328,0.24033 -0.34465,0.33205" /><path
       style="fill:none;fill-rule:evenodd;stroke:#000000;stroke-width:0.264583"
       id="path191"
       d="m 156.63333,123.29583 c 0.0691,-0.0952 0.16248,0.0462 0.15829,0.11488 -0.0114,0.18616 -0.23709,0.25166 -0.38806,0.20169 -0.27005,-0.0894 -0.35252,-0.41983 -0.24508,-0.66123 0.15766,-0.35425 0.60488,-0.45587 0.93439,-0.28848 0.43919,0.2231 0.56026,0.79072 0.33188,1.20757 -0.28738,0.52455 -0.97693,0.66517 -1.48073,0.37528 -0.61017,-0.35109 -0.77039,-1.16335 -0.41868,-1.75391 0.41447,-0.69594 1.3499,-0.87579 2.02707,-0.46208 0.78182,0.47766 0.98134,1.53654 0.50548,2.30025 -0.0988,0.15862 -0.22304,0.30115 -0.36623,0.42124" /><path
       style="fill:none;fill-rule:evenodd;stroke:#000000;stroke-width:0.264583"
       id="path192"
       d="m 172.37604,135.20209 c 0.1656,-0.19026 0.33817,0.12936 0.31622,0.27524 -0.0595,0.39533 -0.55382,0.49247 -0.8667,0.35721 -0.55968,-0.24196 -0.67325,-0.9631 -0.39819,-1.45818 0.40365,-0.72654 1.37774,-0.8589 2.04963,-0.43917 0.89553,0.55944 1.04663,1.79429 0.48016,2.6411 -0.71285,1.06563 -2.21172,1.2354 -3.23257,0.52114 -1.23638,-0.86507 -1.42479,-2.62966 -0.56212,-3.82403 1.01662,-1.40752 3.04791,-1.61456 4.4155,-0.6031 1.57893,1.16776 1.80459,3.46637 0.64408,5.00696 -0.24103,0.31998 -0.5332,0.60081 -0.86164,0.83012" /><path
       style="fill:none;fill-rule:evenodd;stroke:#000000;stroke-width:0.264583"
       id="path193"
       d="m 163.11562,133.87917 c 0.0634,-0.057 0.10806,0.0573 0.0947,0.1053 -0.0362,0.13011 -0.20597,0.14232 -0.30531,0.0841 -0.17769,-0.10417 -0.18608,-0.35064 -0.0735,-0.50531 0.16526,-0.22698 0.49732,-0.23125 0.70532,-0.0628 0.27723,0.22445 0.27704,0.64471 0.0522,0.90531 -0.28289,0.32795 -0.79245,0.32316 -1.10532,0.0416 -0.37893,-0.34096 -0.36944,-0.94037 -0.031,-1.30532 0.39883,-0.43007 1.08843,-0.41585 1.50533,-0.0204 0.48132,0.45656 0.46233,1.23656 0.01,1.70532 -0.094,0.0974 -0.20352,0.1795 -0.32309,0.24286" /><path
       style="fill:none;fill-rule:evenodd;stroke:#000000;stroke-width:0.264583"
       id="path194"
       d="m 149.88646,170.78854 c 0.11294,-0.10037 0.19102,0.10272 0.16683,0.18771 -0.0656,0.23032 -0.3667,0.25024 -0.54225,0.14595 -0.314,-0.18655 -0.32633,-0.62368 -0.12506,-0.89678 0.29538,-0.40079 0.88422,-0.40493 1.25131,-0.10418 0.48927,0.40085 0.48461,1.14605 0.0833,1.60584 -0.505,0.5786 -1.40849,0.56484 -1.96037,0.0624 -0.66841,-0.6085 -0.64541,-1.67128 -0.0416,-2.31491 0.71163,-0.75849 1.93429,-0.72616 2.66945,-0.0207 0.84877,0.81453 0.80706,2.19743 -2.2e-4,3.02398 -0.16768,0.17168 -0.36273,0.31618 -0.5754,0.4273" /><path
       style="fill:none;fill-rule:evenodd;stroke:#000000;stroke-width:0.264583"
       id="path195"
       d="m 137.58333,173.43437 c 0.10224,-0.13328 0.23011,0.0721 0.22153,0.16994 -0.0232,0.26522 -0.34785,0.35015 -0.5614,0.27312 -0.38198,-0.13778 -0.48716,-0.61245 -0.32472,-0.95286 0.23839,-0.49956 0.88043,-0.62765 1.34432,-0.37632 0.6183,0.33499 0.76958,1.14958 0.42792,1.73579 -0.42996,0.73768 -1.41928,0.91225 -2.12725,0.47951 -0.85745,-0.52411 -1.05535,-1.68928 -0.53111,-2.51871 0.6178,-0.97745 1.95949,-1.19871 2.91017,-0.5827 1.09761,0.7112 1.34226,2.22981 0.6343,3.30163 -0.14704,0.22262 -0.32968,0.42132 -0.53855,0.58727" /><path
       style="fill:none;fill-rule:evenodd;stroke:#000000;stroke-width:0.264583"
       id="path196"
       d="m 119.59167,163.90938 c 0.1481,-0.0481 0.13794,0.1759 0.08,0.24616 -0.15706,0.1904 -0.44963,0.0848 -0.57231,-0.0862 -0.21944,-0.30587 -0.0505,-0.72372 0.25238,-0.89845 0.44448,-0.25643 1.00222,-0.0171 1.2246,0.41856 0.2964,0.58063 -0.0159,1.28237 -0.58474,1.55075 -0.71588,0.33772 -1.56333,-0.0485 -1.87689,-0.75092 -0.37977,-0.85071 0.081,-1.84476 0.91709,-2.20305 0.98531,-0.42223 2.12647,0.1134 2.52919,1.08328 0.46497,1.11977 -0.14571,2.40836 -1.24945,2.85534 -0.22925,0.0928 -0.47314,0.14871 -0.71985,0.16578" /><path
       style="fill:none;fill-rule:evenodd;stroke:#000000;stroke-width:0.264583"
       id="path197"
       d="m 138.1125,164.43854 c 0.0814,0.0827 -0.0713,0.15059 -0.13744,0.13537 -0.17929,-0.0412 -0.20642,-0.27148 -0.13331,-0.41027 0.13077,-0.24825 0.46565,-0.27491 0.6831,-0.13123 0.31911,0.21085 0.34546,0.66245 0.12916,0.95592 -0.28829,0.39114 -0.8602,0.41689 -1.22875,0.12709 -0.46377,-0.36468 -0.48877,-1.05839 -0.12502,-1.50157 0.44055,-0.53675 1.25684,-0.56092 1.7744,-0.12295 0.60992,0.51613 0.63322,1.45544 0.12088,2.04722 -0.59153,0.68324 -1.65415,0.70565 -2.32005,0.11881 -0.13831,-0.12189 -0.25685,-0.26586 -0.35047,-0.42464" /><path
       style="fill:none;fill-rule:evenodd;stroke:#000000;stroke-width:0.264583"
       id="path201"
       d="m 13.626041,141.94896 c 0.07221,-0.14172 0.226664,0.0274 0.235551,0.12002 0.02408,0.25094 -0.263491,0.38598 -0.475589,0.35108 -0.379393,-0.0624 -0.559163,-0.48622 -0.466613,-0.83116 0.135821,-0.50621 0.711493,-0.73616 1.186727,-0.58214 0.633413,0.20528 0.914709,0.93761 0.697676,1.54229 -0.273113,0.76094 -1.164108,1.09404 -1.897865,0.81321 -0.888679,-0.34012 -1.273821,-1.39082 -0.92874,-2.25343 0.406667,-1.01656 1.617672,-1.45389 2.609005,-1.04427 1.144534,0.47291 1.634136,1.8446 1.159802,2.96457 -0.09852,0.23262 -0.234308,0.44911 -0.400162,0.63962" /><path
       style="fill:none;fill-rule:evenodd;stroke:#000000;stroke-width:0.264583"
       id="path202"
       d="m 58.472916,146.05 c 0.104708,-0.0977 0.183356,0.093 0.162383,0.17403 -0.05684,0.21975 -0.341717,0.24553 -0.510447,0.15074 -0.301818,-0.16956 -0.323532,-0.58347 -0.139085,-0.84686 0.270682,-0.38654 0.828544,-0.40399 1.183275,-0.12744 0.4728,0.3686 0.48549,1.07481 0.115788,1.51969 -0.465231,0.55984 -1.321642,0.56754 -1.856104,0.10414 -0.647304,-0.56124 -0.649902,-1.56879 -0.09249,-2.19252 0.656889,-0.73503 1.816148,-0.73246 2.528933,-0.0808 0.822939,0.75232 0.815159,2.06363 0.06919,2.86535 -0.154938,0.16652 -0.336447,0.30792 -0.535405,0.41809" /><path
       style="fill:none;fill-rule:evenodd;stroke:#000000;stroke-width:0.264583"
       id="path203"
       d="m 19.049999,149.22499 c 0.0393,-0.13103 0.196011,-0.0117 0.217777,0.0653 0.05898,0.20863 -0.163573,0.36713 -0.348409,0.37023 -0.330628,0.006 -0.547941,-0.32539 -0.522697,-0.6315 0.03705,-0.44923 0.488777,-0.73236 0.914593,-0.67515 0.567546,0.0762 0.918232,0.65263 0.827618,1.19768 -0.114029,0.68589 -0.816702,1.10482 -1.480778,0.98008 -0.804285,-0.15108 -1.29182,-0.98088 -1.132538,-1.76387 0.187709,-0.92273 1.145124,-1.47908 2.046962,-1.285 1.041208,0.22408 1.666517,1.30942 1.437459,2.33005 -0.04758,0.21199 -0.129167,0.41607 -0.240195,0.60279" /><path
       style="fill:none;fill-rule:evenodd;stroke:#000000;stroke-width:0.264583"
       id="path204"
       d="m 50.535416,188.51562 c 0.113351,-0.15508 0.26498,0.0763 0.257768,0.1884 -0.01955,0.30383 -0.388389,0.40954 -0.634564,0.32714 -0.440349,-0.14739 -0.573191,-0.68725 -0.396508,-1.08073 0.259288,-0.57744 0.989888,-0.74091 1.526894,-0.46588 0.715745,0.36657 0.910306,1.29383 0.53525,1.97306 -0.47197,0.85475 -1.598368,1.08057 -2.419226,0.60462 -0.99417,-0.57643 -1.25132,-1.90325 -0.67399,-2.86539 0.680363,-1.13384 2.208355,-1.42239 3.311557,-0.74336 1.273691,0.78396 1.593661,2.5136 0.812731,3.75772 -0.162201,0.25841 -0.365734,0.49042 -0.60012,0.68567" /><path
       style="fill:none;fill-rule:evenodd;stroke:#000000;stroke-width:0.264583"
       id="path205"
       d="m 33.734375,198.56979 c 0.04732,-0.10634 0.166694,0.0113 0.176749,0.0786 0.02725,0.18245 -0.177705,0.2922 -0.334042,0.27485 -0.27965,-0.031 -0.42732,-0.33381 -0.372954,-0.58944 0.07978,-0.37514 0.491623,-0.56533 0.844833,-0.47105 0.470774,0.12565 0.704503,0.64999 0.569159,1.10023 -0.170316,0.56657 -0.808616,0.84426 -1.355625,0.66726 -0.6625,-0.21437 -0.984361,-0.96738 -0.765364,-1.61102 0.258081,-0.75851 1.126227,-1.12467 1.866417,-0.86347 0.854578,0.30157 1.265122,1.28513 0.961569,2.12181 -0.06305,0.17378 -0.153952,0.33721 -0.267826,0.48281" /><path
       style="fill:none;fill-rule:evenodd;stroke:#000000;stroke-width:0.264583"
       id="path206"
       d="m 50.667709,202.93541 c 0.09957,-0.14151 0.239882,0.0644 0.235206,0.16549 -0.01267,0.27395 -0.343141,0.37513 -0.566185,0.30492 -0.398974,-0.12559 -0.527373,-0.60965 -0.374636,-0.96688 0.224147,-0.52425 0.879479,-0.68333 1.367574,-0.44435 0.650555,0.31852 0.840824,1.15046 0.514067,1.76827 -0.41119,0.77745 -1.421969,0.9991 -2.168964,0.58378 -0.904711,-0.50301 -1.157833,-1.69378 -0.653498,-2.56966 0.594342,-1.03219 1.965782,-1.31685 2.970354,-0.72321 1.159819,0.68537 1.476053,2.2379 0.792929,3.37105 -0.141886,0.23535 -0.321425,0.4476 -0.529347,0.62726" /><path
       style="fill:none;fill-rule:evenodd;stroke:#000000;stroke-width:0.264583"
       id="path207"
       d="m 60.589584,190.63229 c 0.04978,-0.0708 0.119941,0.0322 0.117603,0.0827 -0.0063,0.13697 -0.17157,0.18756 -0.283092,0.15246 -0.199487,-0.0628 -0.263687,-0.30482 -0.187318,-0.48344 0.112073,-0.26213 0.439739,-0.34167 0.683787,-0.22218 0.325277,0.15926 0.420412,0.57523 0.257033,0.88414 -0.205595,0.38873 -0.710984,0.49955 -1.084482,0.29189 -0.452355,-0.2515 -0.578917,-0.84689 -0.326749,-1.28483 0.297171,-0.5161 0.982891,-0.65842 1.485177,-0.36161 0.579909,0.34269 0.738027,1.11896 0.396465,1.68553 -0.07094,0.11768 -0.160713,0.2238 -0.264674,0.31363" /><path
       style="fill:none;fill-rule:evenodd;stroke:#000000;stroke-width:0.264583"
       id="path208"
       d="m 144.61955,124.41396 c 0.0707,-0.13875 0.22192,0.0268 0.23062,0.11751 0.0236,0.24569 -0.25797,0.3779 -0.46563,0.34373 -0.37145,-0.0611 -0.54746,-0.47604 -0.45685,-0.81376 0.13298,-0.49561 0.6966,-0.72075 1.16189,-0.56996 0.62016,0.20099 0.89557,0.91799 0.68308,1.51002 -0.2674,0.74501 -1.13975,1.07114 -1.85815,0.79619 -0.87008,-0.33301 -1.24716,-1.36172 -0.9093,-2.20628 0.39815,-0.99528 1.58381,-1.42345 2.5544,-1.02241 1.12058,0.46302 1.59993,1.806 1.13553,2.90253 -0.0965,0.22775 -0.22941,0.4397 -0.39179,0.62623" /><path
       style="fill:none;fill-rule:evenodd;stroke:#000000;stroke-width:0.264583"
       id="path213"
       d="m 156.21902,182.97272 c 0.0786,-0.15418 0.24658,0.0298 0.25625,0.13056 0.0262,0.27299 -0.28664,0.41989 -0.51737,0.38193 -0.41273,-0.0679 -0.60829,-0.52894 -0.50761,-0.90418 0.14775,-0.55069 0.774,-0.80084 1.29099,-0.63329 0.68906,0.22331 0.99507,1.01998 0.75897,1.67779 -0.29711,0.8278 -1.26638,1.19016 -2.06461,0.88466 -0.96675,-0.37001 -1.38573,-1.51302 -1.01033,-2.45142 0.44239,-1.10587 1.75979,-1.58161 2.83822,-1.13601 1.24509,0.51446 1.77771,2.00667 1.2617,3.22503 -0.10718,0.25305 -0.25489,0.48856 -0.43532,0.69581" /><path
       style="fill:none;fill-rule:evenodd;stroke:#000000;stroke-width:0.264583"
       id="path214"
       d="m 130.96207,187.08867 c 0.082,-0.10385 0.18046,0.0594 0.1726,0.13636 -0.0213,0.20867 -0.27797,0.27192 -0.44532,0.20884 -0.29936,-0.11284 -0.37688,-0.48795 -0.24508,-0.75428 0.19342,-0.39085 0.70063,-0.48453 1.06323,-0.28132 0.4833,0.27085 0.59331,0.91425 0.31756,1.3722 -0.347,0.57627 -1.12831,0.70266 -1.68115,0.35379 -0.66956,-0.42251 -0.81235,-1.34262 -0.39004,-1.99011 0.49768,-0.76304 1.55709,-0.92224 2.29907,-0.42628 0.85665,0.57262 1.03228,1.77166 0.46252,2.60803 -0.11834,0.17372 -0.26445,0.32819 -0.43086,0.45657" /><path
       style="fill:none;fill-rule:evenodd;stroke:#000000;stroke-width:0.264583"
       id="path215"
       d="m 118.61421,192.14006 c 0.094,-0.14632 0.2436,0.0545 0.24319,0.15619 -0.001,0.27561 -0.32863,0.39122 -0.55556,0.33019 -0.40594,-0.10918 -0.5554,-0.58977 -0.41719,-0.95494 0.20282,-0.53591 0.85408,-0.72344 1.35431,-0.50419 0.66673,0.29222 0.89308,1.11949 0.5912,1.75369 -0.37989,0.79808 -1.3854,1.06352 -2.15308,0.67819 -0.92975,-0.46668 -1.23443,-1.65159 -0.76519,-2.55244 0.55298,-1.06163 1.91796,-1.40564 2.95183,-0.8522 1.19364,0.63897 1.57703,2.18444 0.93919,3.3512 -0.13248,0.24234 -0.30375,0.46308 -0.5049,0.65229" /><path
       style="fill:none;fill-rule:evenodd;stroke:#000000;stroke-width:0.264583"
       id="path216"
       d="m 151.16765,201.49449 c 0.0477,-0.16988 0.25254,-0.0195 0.28236,0.0793 0.0808,0.26775 -0.20267,0.47721 -0.44099,0.4854 -0.42631,0.0146 -0.71408,-0.40728 -0.68844,-0.80266 0.0376,-0.58024 0.61383,-0.95564 1.16433,-0.89149 0.73372,0.0855 1.19907,0.82097 1.09453,1.526 -0.13155,0.88722 -1.02836,1.44344 -1.88768,1.29758 -1.04075,-0.17666 -1.68834,-1.23587 -1.50062,-2.24935 0.22123,-1.19435 1.44348,-1.93358 2.61102,-1.70366 1.34799,0.26545 2.17904,1.65113 1.90671,2.97269 -0.0566,0.27449 -0.15718,0.53954 -0.29616,0.78288" /><path
       style="fill:none;fill-rule:evenodd;stroke:#000000;stroke-width:0.264583"
       id="path217"
       d="m 19.644312,206.92007 c 0.05499,-0.10792 0.172604,0.0209 0.179371,0.0914 0.01834,0.19109 -0.200647,0.29392 -0.36216,0.26735 -0.288908,-0.0475 -0.425802,-0.37026 -0.355326,-0.63293 0.103428,-0.38548 0.541802,-0.56059 0.903693,-0.4433 0.482343,0.15632 0.69655,0.71399 0.53128,1.17446 -0.207976,0.57945 -0.886469,0.83311 -1.445225,0.61925 -0.676728,-0.259 -0.970013,-1.05911 -0.707234,-1.71599 0.309676,-0.7741 1.231856,-1.10713 1.986756,-0.79521 0.871562,0.36013 1.244394,1.40467 0.883189,2.25752 -0.07502,0.17714 -0.178426,0.342 -0.304723,0.48707" /><path
       style="fill:none;fill-rule:evenodd;stroke:#000000;stroke-width:0.264583"
       id="path218"
       d="m 58.371662,216.0874 c 0.102122,-0.20042 0.320551,0.0388 0.333119,0.16973 0.03406,0.35489 -0.372632,0.54586 -0.672584,0.49651 -0.536543,-0.0883 -0.790776,-0.68762 -0.659891,-1.17544 0.19208,-0.71589 1.006204,-1.04109 1.678286,-0.82327 0.89578,0.29031 1.293594,1.32598 0.986663,2.18113 -0.386241,1.07613 -1.646298,1.54721 -2.683988,1.15005 -1.25678,-0.48101 -1.801453,-1.96692 -1.313435,-3.18683 0.575113,-1.43763 2.287733,-2.05611 3.68969,-1.47683 1.618614,0.66881 2.311017,2.60867 1.640207,4.19254 -0.139328,0.32898 -0.331361,0.63514 -0.565914,0.90456" /><path
       style="fill:none;fill-rule:evenodd;stroke:#000000;stroke-width:0.264583"
       id="path219"
       d="m 58.55875,153.97397 c 0.07448,-0.12712 0.2081,0.0377 0.21128,0.12379 0.0086,0.23335 -0.264638,0.34257 -0.458862,0.29877 -0.347422,-0.0784 -0.490599,-0.48001 -0.386258,-0.79394 0.153124,-0.46069 0.697944,-0.64201 1.129005,-0.47374 0.574536,0.22427 0.794812,0.91674 0.561236,1.46407 -0.293932,0.68877 -1.135934,0.94832 -1.799148,0.64873 -0.803241,-0.36284 -1.102223,-1.35535 -0.736214,-2.13422 0.431329,-0.91787 1.574907,-1.25638 2.469291,-0.8237 1.032601,0.49955 1.410716,1.79455 0.911191,2.80436 -0.103752,0.20974 -0.241087,0.40253 -0.404811,0.56968" /><path
       style="fill:none;fill-rule:evenodd;stroke:#000000;stroke-width:0.264583"
       id="path220"
       d="m 152.29018,128.34282 c 0.0783,-0.11548 0.19428,0.0485 0.19194,0.13007 -0.006,0.22102 -0.2713,0.30725 -0.45209,0.25381 -0.32339,-0.0956 -0.43374,-0.48398 -0.31567,-0.77411 0.17327,-0.42577 0.69928,-0.56327 1.09612,-0.37753 0.52892,0.24756 0.69406,0.91549 0.43939,1.41814 -0.32046,0.63252 -1.13212,0.82548 -1.74015,0.50126 -0.7364,-0.39268 -0.95728,-1.34899 -0.56312,-2.06217 0.4645,-0.84045 1.566,-1.08931 2.38418,-0.62499 0.94462,0.53608 1.2215,1.78311 0.68685,2.7062 -0.11104,0.19172 -0.25277,0.36536 -0.41783,0.51312" /></g><g
     id="layer9"
     style="display:none;opacity:0.759661"
     transform="translate(-11.750222,-123.96289)"><path
       style="opacity:0.875872;fill:url(#linearGradient153);fill-opacity:1;stroke:none;stroke-width:0.713632;stroke-linecap:butt;stroke-linejoin:round;stroke-dasharray:none;stroke-opacity:1;paint-order:markers stroke fill"
       d="m 100.14802,37.818879 -79.98188,144.343881 158.67801,0.0975 z"
       id="path152" /></g><g
     id="g225"
     style="display:none;opacity:1;fill:url(#linearGradient226)"
     transform="translate(-11.750222,-123.96289)"><path
       style="opacity:0.875872;fill:url(#linearGradient227);fill-opacity:1;stroke:none;stroke-width:0.944019;stroke-linecap:butt;stroke-linejoin:round;stroke-dasharray:none;stroke-opacity:1;paint-order:markers stroke fill"
       d="M 100.38385,37.818879 -8.9380263,222.61668 207.94831,222.74151 Z"
       id="path225" /></g></svg>
