<?xml version="1.0" encoding="UTF-8" standalone="no"?>
<!-- Created with Inkscape (http://www.inkscape.org/) -->

<svg
   width="168.83478mm"
   height="96.929077mm"
   viewBox="0 0 168.83478 96.929079"
   version="1.1"
   id="svg1"
   xml:space="preserve"
   xmlns:xlink="http://www.w3.org/1999/xlink"
   xmlns="http://www.w3.org/2000/svg"
   xmlns:svg="http://www.w3.org/2000/svg"><defs
     id="defs1"><linearGradient
       id="linearGradient228"><stop
         style="stop-color:#ffd896;stop-opacity:1;"
         offset="0"
         id="stop227" /><stop
         style="stop-color:#ff9e8a;stop-opacity:0;"
         offset="0.66832292"
         id="stop228" /></linearGradient><linearGradient
       id="linearGradient225"><stop
         style="stop-color:#ffd998;stop-opacity:1;"
         offset="0"
         id="stop225" /><stop
         style="stop-color:#000000;stop-opacity:0;"
         offset="0.70046347"
         id="stop226" /></linearGradient><linearGradient
       id="linearGradient152"><stop
         style="stop-color:#9592a1;stop-opacity:0.82736999;"
         offset="0"
         id="stop152" /><stop
         style="stop-color:#444673;stop-opacity:0;"
         offset="0.57562411"
         id="stop153" /></linearGradient><linearGradient
       xlink:href="#linearGradient152"
       id="linearGradient153"
       x1="100.16573"
       y1="81.771553"
       x2="100.45915"
       y2="229.57385"
       gradientUnits="userSpaceOnUse"
       gradientTransform="matrix(1.2665643,0,0,1.1538197,-27.037753,-15.755159)" /><linearGradient
       xlink:href="#linearGradient225"
       id="linearGradient226"
       x1="99.505127"
       y1="30.700579"
       x2="99.505135"
       y2="189.37862"
       gradientUnits="userSpaceOnUse" /><linearGradient
       xlink:href="#linearGradient228"
       id="linearGradient227"
       gradientUnits="userSpaceOnUse"
       x1="99.505127"
       y1="30.700579"
       x2="99.505135"
       y2="189.37862"
       gradientTransform="matrix(1.366833,0,0,1.2802608,-36.501773,-10.599147)" /></defs><g
     id="layer1"
     style="display:none"
     transform="translate(-11.719292,-121.67735)"><rect
       style="fill:#332421;fill-opacity:1;stroke:#000000;stroke-width:1.5;stroke-linecap:square;stroke-linejoin:miter;stroke-dasharray:none;stroke-opacity:1;paint-order:markers stroke fill"
       id="rect26"
       width="100"
       height="100"
       x="-100.64743"
       y="141.9351"
       transform="rotate(-45)" /><rect
       style="fill:#ceb56b;fill-opacity:1;stroke:none;stroke-width:0.591502;stroke-linecap:square;stroke-linejoin:miter;stroke-dasharray:none;stroke-opacity:1;paint-order:markers stroke fill"
       id="rect27"
       width="50"
       height="50"
       x="-100.66982"
       y="191.9575"
       transform="rotate(-45)" /><rect
       style="fill:#ff4236;fill-opacity:1;stroke:none;stroke-width:0.591502;stroke-linecap:square;stroke-linejoin:miter;stroke-dasharray:none;stroke-opacity:1;paint-order:markers stroke fill"
       id="rect28"
       width="50"
       height="50"
       x="-50.646244"
       y="141.93391"
       transform="rotate(-45)" /><rect
       style="fill:#2e2e2e;fill-opacity:1;stroke:#000000;stroke-width:1;stroke-linecap:square;stroke-linejoin:miter;stroke-dasharray:none;stroke-opacity:1;paint-order:markers stroke fill"
       id="rect29"
       width="49.261078"
       height="49.261078"
       x="-75.276779"
       y="167.30338"
       transform="rotate(-45)" /><rect
       style="fill:#ceb56b;fill-opacity:1;stroke:#000000;stroke-width:1;stroke-linecap:square;stroke-linejoin:miter;stroke-dasharray:none;stroke-opacity:1;paint-order:markers stroke fill"
       id="rect31"
       width="26.116236"
       height="26.116236"
       x="-141.08167"
       y="178.87579"
       transform="rotate(-45)" /><rect
       style="fill:#ff5347;fill-opacity:1;stroke:#000000;stroke-width:1;stroke-linecap:square;stroke-linejoin:miter;stroke-dasharray:none;stroke-opacity:1;paint-order:markers stroke fill"
       id="rect32"
       width="26.116236"
       height="26.116236"
       x="-63.704357"
       y="256.25311"
       transform="rotate(-45)" /></g><g
     id="layer3"
     transform="matrix(0.60484313,0,0,0.60484313,24.677652,-58.54158)"
     style="display:none"><path
       style="fill:#ffdc9b;fill-opacity:1;stroke:#000000;stroke-width:1.65332;stroke-linecap:round;stroke-linejoin:miter;stroke-dasharray:none;paint-order:markers stroke fill"
       d="m 126.33412,94.433664 -1.75388,14.905396 -11.5929,-8.89514 2.57618,-8.546281 3.41845,-1.348245 z"
       id="path22" /><path
       style="fill:#ffdc9b;fill-opacity:1;stroke:#000000;stroke-width:1.65332;stroke-linecap:round;stroke-linejoin:miter;stroke-dasharray:none;paint-order:markers stroke fill"
       d="m 96.127761,99.595544 -11.779887,9.299526 -1.907605,-14.487232 7.864768,-4.221499 3.370562,1.463856 z"
       id="path23" /><path
       style="fill:#ffdc9b;fill-opacity:1;stroke:#000000;stroke-width:1.65332;stroke-linecap:round;stroke-linejoin:miter;stroke-dasharray:none;paint-order:markers stroke fill"
       d="m 134.48249,75.15612 17.27178,32.6263 -32.83562,-17.382579 5.48282,-3.077387 4.55166,-3.92908 3.87929,-5.022902 z"
       id="path13" /><path
       style="fill:#ffdc9b;fill-opacity:1;stroke:#000000;stroke-width:1.65332;stroke-linecap:round;stroke-linejoin:miter;stroke-dasharray:none;paint-order:markers stroke fill"
       d="m 115.52081,91.72603 -10.85728,35.28327 -10.926955,-35.509629 6.052981,1.700898 5.996784,0.440231 6.2948,-0.808656 z"
       id="path14" /><path
       style="fill:#ffdc9b;fill-opacity:1;stroke:#000000;stroke-width:1.65332;stroke-linecap:round;stroke-linejoin:miter;stroke-dasharray:none;paint-order:markers stroke fill"
       d="m 90.396183,90.034793 -32.626296,17.271787 17.382575,-32.835627 3.077388,5.48282 3.929076,4.551657 5.022902,3.87929 z"
       id="path15" /></g><g
     id="layer5"
     style="display:none;opacity:0.875872;stroke:#000000;stroke-opacity:1"
     transform="translate(-11.719292,-121.67735)"><path
       style="display:inline;fill:#c3cbcf;fill-opacity:1;stroke:#000000;stroke-width:1;stroke-linecap:butt;stroke-linejoin:miter;stroke-dasharray:none;stroke-opacity:1;paint-order:markers stroke fill"
       id="path105"
       d="m 122.92773,157.73817 a 12.379564,16.231331 0 0 1 12.37957,-16.23133 12.379564,16.231331 0 0 1 12.37956,16.23133" /><path
       style="display:inline;fill:#c3cbcf;fill-opacity:1;stroke:#000000;stroke-width:1;stroke-linecap:butt;stroke-linejoin:miter;stroke-dasharray:none;stroke-opacity:1;paint-order:markers stroke fill"
       id="path106"
       d="m 106.95034,157.64891 a 11.834611,10.707694 0 0 1 11.83461,-10.70769 11.834611,10.707694 0 0 1 11.83461,10.70769" /><path
       style="display:inline;fill:#c3cbcf;fill-opacity:1;stroke:#000000;stroke-width:1;stroke-linecap:butt;stroke-linejoin:miter;stroke-dasharray:none;stroke-opacity:1;paint-order:markers stroke fill"
       id="path107"
       d="m 130.89603,157.64108 a 14.777189,12.617728 0 0 1 14.77719,-12.61773 14.777189,12.617728 0 0 1 14.77719,12.61773" /><path
       style="display:inline;fill:#c3cbcf;fill-opacity:1;stroke:#000000;stroke-width:1;stroke-linecap:butt;stroke-linejoin:miter;stroke-dasharray:none;stroke-opacity:1;paint-order:markers stroke fill"
       id="path108"
       d="M 29.757582,175.5116 A 12.379564,16.231331 0 0 1 42.137146,159.28027 12.379564,16.231331 0 0 1 54.51671,175.5116" /><path
       style="display:inline;fill:#c3cbcf;fill-opacity:1;stroke:#000000;stroke-width:1;stroke-linecap:butt;stroke-linejoin:miter;stroke-dasharray:none;stroke-opacity:1;paint-order:markers stroke fill"
       id="path109"
       d="m 13.780181,175.42233 a 11.834611,10.707694 0 0 1 11.834611,-10.70769 11.834611,10.707694 0 0 1 11.834611,10.70769" /><path
       style="display:inline;fill:#c3cbcf;fill-opacity:1;stroke:#000000;stroke-width:1;stroke-linecap:butt;stroke-linejoin:miter;stroke-dasharray:none;stroke-opacity:1;paint-order:markers stroke fill"
       id="path110"
       d="m 37.725878,175.41451 a 14.777189,12.617728 0 0 1 14.777189,-12.61773 14.777189,12.617728 0 0 1 14.777189,12.61773" /><path
       style="display:inline;fill:none;fill-opacity:1;stroke:#000000;stroke-width:0.439191;stroke-linecap:butt;stroke-linejoin:round;stroke-dasharray:none;stroke-opacity:1;paint-order:markers stroke fill"
       d="M 13.221567,175.6341 H 67.780256"
       id="path9-1" /><path
       style="display:inline;opacity:0.875872;fill:none;fill-opacity:1;stroke:#000000;stroke-width:0.439191;stroke-linecap:butt;stroke-linejoin:round;stroke-dasharray:none;stroke-opacity:1;paint-order:markers stroke fill"
       d="m 106.39172,157.86068 h 54.55869"
       id="path9-1-3" /><path
       style="opacity:0.875872;fill:none;fill-opacity:1;stroke:#000000;stroke-width:0.5;stroke-linecap:butt;stroke-linejoin:round;stroke-dasharray:none;stroke-opacity:1;paint-order:markers stroke fill"
       d="m 17.399246,172.96347 c 0.524211,-2.06129 1.856279,-3.90569 3.648229,-5.05139 1.053665,-0.67367 2.246136,-1.10685 3.46114,-1.40317 1.208147,-0.29465 2.47609,-0.45794 3.693975,-0.20656 0.608943,0.12569 1.199461,0.35591 1.714215,0.70468 0.514754,0.34877 0.952054,0.81831 1.233458,1.37277 0.46407,0.91436 0.470793,2.0469 0.019,2.96739 -0.451792,0.9205 -1.351065,1.60769 -2.357611,1.80337 -0.277836,0.054 -0.568177,0.072 -0.841899,0 -0.340171,-0.0895 -0.640453,-0.32142 -0.813009,-0.62794 -0.172555,-0.30651 -0.21509,-0.68354 -0.115163,-1.02079 0.09993,-0.33726 0.340988,-0.63025 0.65267,-0.79329 0.311681,-0.16304 0.689839,-0.19394 1.023857,-0.0837"
       id="path112" /><path
       style="opacity:0.875872;fill:none;fill-opacity:1;stroke:#000000;stroke-width:0.499999;stroke-linecap:butt;stroke-linejoin:round;stroke-dasharray:none;stroke-opacity:1;paint-order:markers stroke fill"
       d="m 19.363677,173.85214 c 0.256717,-0.32178 0.506252,-0.64929 0.748355,-0.98221 0.776844,-1.06824 1.48426,-2.20056 2.430054,-3.12257 0.472897,-0.461 1.004917,-0.86677 1.598574,-1.15612 0.593657,-0.28936 1.251175,-0.45977 1.911437,-0.4453 0.879479,0.0193 1.747324,0.37662 2.38538,0.98221"
       id="path113" /><path
       style="opacity:0.875872;fill:none;fill-opacity:1;stroke:#000000;stroke-width:0.499999;stroke-linecap:butt;stroke-linejoin:round;stroke-dasharray:none;stroke-opacity:1;paint-order:markers stroke fill"
       d="m 39.241849,173.71183 c 0.712778,-1.75815 1.824489,-3.35322 3.227279,-4.63045 1.907157,-1.73646 4.319948,-2.86238 6.828737,-3.46114 0.904856,-0.21596 1.829316,-0.36674 2.759556,-0.37417 0.674296,-0.005 1.348097,0.0646 2.011204,0.18708 1.452449,0.2682 2.866933,0.79486 4.08693,1.62742 1.219996,0.83255 2.239824,1.97881 2.83535,3.33043 0.146731,0.33303 0.268502,0.68093 0.309912,1.04248 0.04141,0.36156 -0.0016,0.73944 -0.169595,1.06227 -0.09387,0.18042 -0.223926,0.33942 -0.327406,0.5145 -0.110369,0.18674 -0.191057,0.39255 -0.327404,0.56126 -0.209466,0.25918 -0.527622,0.40367 -0.841899,0.51449 -0.436644,0.15397 -0.894848,0.26128 -1.357824,0.25683 -0.462976,-0.004 -0.93259,-0.12642 -1.308189,-0.39714 -0.4459,-0.3214 -0.734463,-0.84377 -0.795026,-1.39008 -0.06056,-0.54631 0.101055,-1.10952 0.420847,-1.55657 0.187349,-0.2619 0.427396,-0.48595 0.701583,-0.65481"
       id="path114" /><path
       style="opacity:0.875872;fill:none;fill-opacity:1;stroke:#000000;stroke-width:0.499999;stroke-linecap:butt;stroke-linejoin:round;stroke-dasharray:none;stroke-opacity:1;paint-order:markers stroke fill"
       d="m 42.702987,173.29088 c 0.82046,-0.89584 1.712948,-1.7257 2.666014,-2.47893 1.445296,-1.14225 3.045947,-2.11493 4.798945,-2.68115 1.752998,-0.56623 3.668729,-0.7101 5.44416,-0.21872 0.688687,0.19061 1.351449,0.47465 1.964431,0.8419"
       id="path115" /><path
       style="opacity:0.875872;fill:none;fill-opacity:1;stroke:#000000;stroke-width:0.499999;stroke-linecap:butt;stroke-linejoin:round;stroke-dasharray:none;stroke-opacity:1;paint-order:markers stroke fill"
       d="m 47.520521,173.94569 c 0.514232,-0.84481 1.250582,-1.55307 2.114747,-2.03406 0.864165,-0.481 1.854126,-0.73362 2.843102,-0.7255 0.40881,0.003 0.817247,0.0505 1.216078,0.14032"
       id="path116" /><path
       style="opacity:0.875872;fill:none;fill-opacity:1;stroke:#000000;stroke-width:0.499999;stroke-linecap:butt;stroke-linejoin:round;stroke-dasharray:none;stroke-opacity:1;paint-order:markers stroke fill"
       d="m 34.190453,166.27505 c 0.379199,-0.89697 0.920644,-1.72506 1.590254,-2.43215 0.970711,-1.02504 2.188207,-1.77927 3.414369,-2.47892 0.290858,-0.16596 0.583526,-0.32978 0.888671,-0.46773 1.265418,-0.57206 2.737209,-0.67356 4.069178,-0.28063"
       id="path117" /><path
       style="opacity:0.875872;fill:none;fill-opacity:1;stroke:#000000;stroke-width:0.499999;stroke-linecap:butt;stroke-linejoin:round;stroke-dasharray:none;stroke-opacity:1;paint-order:markers stroke fill"
       d="m 36.809695,167.02341 c 0.516528,-0.7744 1.130993,-1.4834 1.824115,-2.10475 1.694504,-1.51904 3.866608,-2.49732 6.127154,-2.75956"
       id="path118" /><path
       style="opacity:0.875872;fill:none;fill-opacity:1;stroke:#000000;stroke-width:0.499999;stroke-linecap:butt;stroke-linejoin:round;stroke-dasharray:none;stroke-opacity:1;paint-order:markers stroke fill"
       d="m 112.11719,155.04583 c 0.34583,-1.30664 1.09008,-2.50499 2.10801,-3.39422 1.01793,-0.88923 2.30541,-1.46572 3.64667,-1.63286 0.72354,-0.0902 1.45689,-0.0639 2.18282,-0.13229 0.63938,-0.0602 1.27898,-0.1938 1.91823,-0.1323 0.3841,0.0369 0.758,0.14375 1.12447,0.26459 0.40164,0.13243 0.80025,0.28367 1.16109,0.50422 0.36085,0.22055 0.68451,0.5149 0.88944,0.88484 0.16952,0.30601 0.25221,0.65129 0.33072,0.99219 0.11916,0.5174 0.23335,1.03856 0.26661,1.56846 0.0333,0.52989 -0.0172,1.0726 -0.21763,1.56427 -0.20039,0.49168 -0.56077,0.92942 -1.03931,1.15942 -0.23927,0.115 -0.50516,0.17663 -0.77053,0.16943 -0.26537,-0.007 -0.52972,-0.0842 -0.75268,-0.22825 -0.2401,-0.15517 -0.4294,-0.38762 -0.53274,-0.65417 -0.10335,-0.26655 -0.1202,-0.56585 -0.0474,-0.84232 0.0728,-0.27646 0.23476,-0.5287 0.45591,-0.70985 0.22116,-0.18116 0.50036,-0.29031 0.78574,-0.3072"
       id="path119" /><path
       style="opacity:0.875872;fill:none;fill-opacity:1;stroke:#000000;stroke-width:0.499999;stroke-linecap:butt;stroke-linejoin:round;stroke-dasharray:none;stroke-opacity:1;paint-order:markers stroke fill"
       d="m 134.80521,155.24427 c 0.30541,-1.15076 0.93008,-2.21503 1.78593,-3.04271 0.55568,-0.53739 1.20102,-0.9723 1.85209,-1.38906 1.66281,-1.0644 3.41273,-2.04069 5.32238,-2.54177 1.90965,-0.50109 4.0089,-0.49258 5.79012,0.35896 0.608,0.29066 1.16738,0.67234 1.71979,1.05833 1.51928,1.06157 3.0423,2.2051 4.03489,3.77031 0.41405,0.65291 0.72754,1.36946 0.92605,2.11667"
       id="path120" /><path
       style="opacity:0.875872;fill:none;fill-opacity:1;stroke:#000000;stroke-width:0.499999;stroke-linecap:butt;stroke-linejoin:round;stroke-dasharray:none;stroke-opacity:1;paint-order:markers stroke fill"
       d="m 149.75416,154.64896 c -1.29902,-0.35701 -2.71182,-0.28638 -3.96875,0.19843 -1.08024,0.41665 -2.04348,1.1269 -3.16403,1.41822 -0.56028,0.14566 -1.16118,0.17998 -1.71456,0.01 -0.27669,-0.085 -0.53886,-0.22079 -0.7606,-0.40684 -0.22174,-0.18605 -0.40231,-0.42293 -0.51237,-0.69064 -0.13331,-0.32427 -0.16035,-0.68828 -0.096,-1.03293 0.0643,-0.34466 0.21776,-0.66996 0.42678,-0.95144 0.31029,-0.41785 0.73715,-0.73679 1.19063,-0.99219 0.92348,-0.5201 1.98283,-0.79646 3.0427,-0.79375"
       id="path122" /><path
       style="opacity:0.875872;fill:none;fill-opacity:1;stroke:#000000;stroke-width:0.499999;stroke-linecap:butt;stroke-linejoin:round;stroke-dasharray:none;stroke-opacity:1;paint-order:markers stroke fill"
       d="m 143.07344,154.18594 c 0.0647,-0.0892 0.1309,-0.17745 0.19843,-0.26459 0.50741,-0.65474 1.10421,-1.25733 1.83314,-1.65081 0.72893,-0.39347 1.60388,-0.56166 2.4002,-0.33356 0.42254,0.12103 0.8134,0.35095 1.12448,0.66146"
       id="path123" /><path
       style="opacity:0.875872;fill:none;fill-opacity:1;stroke:#000000;stroke-width:0.499999;stroke-linecap:butt;stroke-linejoin:round;stroke-dasharray:none;stroke-opacity:1;paint-order:markers stroke fill"
       d="m 135.20208,151.20937 c 1.27059,-1.47328 2.8945,-2.63975 4.69636,-3.37343 0.70515,-0.28712 1.4369,-0.50887 2.18281,-0.66146"
       id="path124" /><path
       style="opacity:0.875872;fill:none;fill-opacity:1;stroke:#000000;stroke-width:0.499999;stroke-linecap:butt;stroke-linejoin:round;stroke-dasharray:none;stroke-opacity:1;paint-order:markers stroke fill"
       d="m 143.86719,147.10833 c 0.97189,-0.82304 2.24451,-1.28271 3.51802,-1.2707 1.2735,0.012 2.53723,0.49558 3.49343,1.3368 0.59765,0.52578 1.07601,1.18637 1.38907,1.91823"
       id="path125" /><path
       style="opacity:0.875872;fill:none;fill-opacity:1;stroke:#000000;stroke-width:0.499999;stroke-linecap:butt;stroke-linejoin:round;stroke-dasharray:none;stroke-opacity:1;paint-order:markers stroke fill"
       d="m 154.11979,149.29114 c 1.02079,0.22257 1.97038,0.76112 2.68533,1.52296 0.71496,0.76183 1.19219,1.74367 1.34957,2.77652 0.11063,0.72604 0.0652,1.47546 -0.1323,2.18282"
       id="path126" /><path
       style="opacity:0.875872;fill:none;fill-opacity:1;stroke:#000000;stroke-width:0.499999;stroke-linecap:butt;stroke-linejoin:round;stroke-dasharray:none;stroke-opacity:1;paint-order:markers stroke fill"
       d="m 128.32292,148.10052 c 0.69104,-1.38512 1.72185,-2.59919 2.97656,-3.50573 1.06695,-0.77088 2.30079,-1.32162 3.59912,-1.53837 1.29833,-0.21675 2.66042,-0.0926 3.87536,0.41389 0.27325,0.11392 0.53866,0.24663 0.79375,0.39688"
       id="path127" /><path
       style="opacity:0.875872;fill:none;fill-opacity:1;stroke:#000000;stroke-width:0.499999;stroke-linecap:butt;stroke-linejoin:round;stroke-dasharray:none;stroke-opacity:1;paint-order:markers stroke fill"
       d="m 129.77812,148.89427 c 0.17813,-0.32112 0.37713,-0.63067 0.59532,-0.92604 0.75055,-1.01602 1.73538,-1.86382 2.87052,-2.41798 1.13513,-0.55416 2.42032,-0.80965 3.67791,-0.69088 0.51791,0.0489 1.02989,0.16021 1.52136,0.33073"
       id="path128" /><path
       style="opacity:0.875872;fill:none;fill-opacity:1;stroke:#000000;stroke-width:0.499999;stroke-linecap:butt;stroke-linejoin:round;stroke-dasharray:none;stroke-opacity:1;paint-order:markers stroke fill"
       d="m 136.65729,145.91771 c -1.12244,0.19638 -2.17948,0.75065 -2.97932,1.56225 -0.79984,0.81161 -1.33863,1.87662 -1.5186,3.00181 -0.0559,0.34957 -0.0781,0.70452 -0.0661,1.05833"
       id="path129" /><path
       style="opacity:0.875872;fill:none;fill-opacity:1;stroke:#000000;stroke-width:0.499999;stroke-linecap:butt;stroke-linejoin:round;stroke-dasharray:none;stroke-opacity:1;paint-order:markers stroke fill"
       d="m 127.33073,148.16666 c 0.32006,0.22756 0.62921,0.47047 0.92604,0.72761 0.68316,0.59181 1.31374,1.27917 1.65365,2.11667 0.14539,0.35822 0.23498,0.73901 0.26458,1.12447"
       id="path130" /><path
       style="opacity:0.875872;fill:none;fill-opacity:1;stroke:#000000;stroke-width:0.499999;stroke-linecap:butt;stroke-linejoin:round;stroke-dasharray:none;stroke-opacity:1;paint-order:markers stroke fill"
       d="m 114.23385,155.575 c 0.46612,-1.04194 1.2324,-1.94754 2.18282,-2.57969 1.67143,-1.1117 3.90854,-1.31742 5.75468,-0.52917"
       id="path131" /><path
       style="opacity:0.875872;fill:none;fill-opacity:1;stroke:#000000;stroke-width:0.499999;stroke-linecap:butt;stroke-linejoin:round;stroke-dasharray:none;stroke-opacity:1;paint-order:markers stroke fill"
       d="m 109.40521,155.37656 c 0.25285,-1.58255 0.94272,-3.09301 1.97324,-4.32037 1.03052,-1.22737 2.39882,-2.16821 3.91374,-2.69109 0.72551,-0.25041 1.48353,-0.40648 2.24895,-0.46302"
       id="path132" /><path
       style="opacity:0.875872;fill:none;fill-opacity:1;stroke:#000000;stroke-width:0.499999;stroke-linecap:butt;stroke-linejoin:round;stroke-dasharray:none;stroke-opacity:1;paint-order:markers stroke fill"
       d="m 119.19479,155.17812 c -0.0181,0.0975 -0.003,0.20101 0.043,0.28908 0.0457,0.0881 0.12149,0.16017 0.21171,0.20146 0.0902,0.0413 0.19432,0.0515 0.29085,0.0286 0.0965,-0.0229 0.18489,-0.0789 0.24688,-0.15641 0.062,-0.0775 0.0972,-0.17597 0.0984,-0.27519 0.001,-0.0992 -0.0316,-0.19853 -0.0917,-0.27748 -0.0601,-0.0789 -0.14707,-0.13705 -0.24302,-0.16232 -0.0959,-0.0253 -0.20027,-0.0176 -0.29146,0.0215 -0.13511,0.058 -0.23771,0.18619 -0.26458,0.33073 -0.0262,0.14112 0.019,0.29181 0.11169,0.40142 0.0927,0.1096 0.22966,0.17834 0.37201,0.19676 0.14235,0.0184 0.28914,-0.0118 0.41739,-0.0762 0.12825,-0.0644 0.23838,-0.16209 0.32597,-0.2758 0.17519,-0.22742 0.25864,-0.51178 0.31454,-0.79336 0.0559,-0.28158 0.0883,-0.56918 0.17819,-0.84183 0.17914,-0.5436 0.59635,-1.00754 1.12477,-1.22748 0.52841,-0.21993 1.15955,-0.18638 1.65336,0.103 0.46347,0.2716 0.79246,0.76156 0.86843,1.29335 0.076,0.53179 -0.10267,1.09428 -0.47156,1.48478"
       id="path133" /><path
       style="opacity:0.875872;fill:none;fill-opacity:1;stroke:#000000;stroke-width:0.499999;stroke-linecap:butt;stroke-linejoin:round;stroke-dasharray:none;stroke-opacity:1;paint-order:markers stroke fill"
       d="m 127,151.93698 c 0.5832,0.70609 0.99507,1.55271 1.19062,2.44739 0.0807,0.3693 0.1251,0.74653 0.1323,1.12448"
       id="path134" /></g><g
     id="layer2"
     style="display:none"
     transform="matrix(1.0608363,0,0,1.0608363,-23.428886,-128.07246)"><path
       style="fill:#c3cbcf;fill-opacity:1;stroke:#000000;stroke-width:1;stroke-linecap:butt;stroke-dasharray:none;stroke-opacity:1;paint-order:markers stroke fill"
       id="path2"
       d="m 32.293509,134.9222 a 19.73448,19.030432 0 0 1 19.734479,-19.03044 19.73448,19.030432 0 0 1 19.73448,19.03044" /><path
       style="fill:#c3cbcf;fill-opacity:1;stroke:#000000;stroke-width:1;stroke-linecap:butt;stroke-linejoin:round;stroke-dasharray:none;stroke-opacity:1;paint-order:markers stroke fill"
       id="path1"
       d="M 15.922543,135.84966 A 17.617302,11.544453 0 0 1 33.539845,124.3052 17.617302,11.544453 0 0 1 51.157146,135.84966" /><path
       style="fill:#c3cbcf;fill-opacity:1;stroke:#000000;stroke-width:1;stroke-linecap:butt;stroke-linejoin:miter;stroke-dasharray:none;stroke-opacity:1;paint-order:markers stroke fill"
       id="path5"
       d="M 51.567125,135.89674 A 17.561834,16.825012 0 0 1 69.12896,119.07173 17.561834,16.825012 0 0 1 86.690794,135.89674" /><path
       style="fill:none;fill-opacity:1;stroke:#000000;stroke-width:0.503271;stroke-linecap:butt;stroke-linejoin:round;stroke-dasharray:none;stroke-opacity:1;paint-order:markers stroke fill"
       d="M 15.513976,135.89674 H 87.154828"
       id="path9" /><path
       style="fill:none;fill-opacity:1;stroke:#000000;stroke-width:0.5;stroke-linecap:butt;stroke-linejoin:round;stroke-dasharray:none;stroke-opacity:1;paint-order:markers stroke fill"
       d="m 22.590957,127.03321 c 1.956147,-2.12583 4.601888,-3.60678 7.436774,-4.16273 0.955344,-0.18735 1.927895,-0.27224 2.899873,-0.3274 0.87244,-0.0495 1.748647,-0.0753 2.619243,0 0.2733,0.0236 0.54574,0.0572 0.816602,0.10061"
       id="path27"
       transform="translate(-1.763596,3.3508325)" /><path
       style="fill:none;fill-opacity:1;stroke:#000000;stroke-width:0.499999;stroke-linecap:butt;stroke-linejoin:round;stroke-dasharray:none;stroke-opacity:1;paint-order:markers stroke fill"
       d="m 25.135416,127 c 1.369742,-1.19717 2.974808,-2.12404 4.696354,-2.71198 0.761074,-0.25992 1.547399,-0.45469 2.348178,-0.52917 0.472422,-0.0439 0.947847,-0.0459 1.422135,-0.0331 1.807083,0.0487 3.60073,0.3107 5.390885,0.56224 0.651058,0.0915 1.322738,0.18868 1.885156,0.52917 0.372325,0.22541 0.681441,0.5523 0.892132,0.93315 0.210692,0.38084 0.32319,0.8145 0.331566,1.24966 0.01171,0.6085 -0.180532,1.21489 -0.516205,1.72256 -0.335673,0.50768 -0.810942,0.91757 -1.348908,1.20218 -1.075933,0.56921 -2.366591,0.62785 -3.558845,0.38255 -0.33437,-0.0688 -0.668465,-0.16206 -0.962851,-0.3349 -0.294387,-0.17284 -0.548186,-0.43319 -0.657722,-0.75651 -0.106974,-0.31576 -0.06863,-0.66669 0.04465,-0.98024 0.11328,-0.31355 0.297026,-0.59617 0.484517,-0.87184 0.242865,-0.35709 0.4983,-0.71189 0.826823,-0.99219 0.249791,-0.21313 0.541974,-0.38089 0.859896,-0.46302 0.33608,-0.0868 0.701706,-0.074 1.020683,0.0629 0.318977,0.13689 0.586192,0.40263 0.699108,0.73086 0.08754,0.25447 0.08081,0.53706 0,0.79375 -0.138971,0.44144 -0.481792,0.79147 -0.859896,1.05834 -0.198006,0.13975 -0.408595,0.26167 -0.628385,0.3638"
       id="path28"
       transform="translate(-1.763596,3.3508325)" /><path
       style="fill:none;fill-opacity:1;stroke:#000000;stroke-width:0.499999;stroke-linecap:butt;stroke-linejoin:round;stroke-dasharray:none;stroke-opacity:1;paint-order:markers stroke fill"
       d="m 37.603906,127.16536 c -0.241257,0.0136 -0.478353,0.0948 -0.677285,0.23193 -0.198931,0.13717 -0.35911,0.32991 -0.457564,0.55058 -0.09845,0.22067 -0.13489,0.46862 -0.104085,0.70829 0.03081,0.23966 0.128761,0.47034 0.279819,0.65894 0.143411,0.17905 0.33322,0.31928 0.543081,0.41193 0.209862,0.0927 0.439353,0.13832 0.668728,0.14203 0.458752,0.007 0.90884,-0.15164 1.301733,-0.38859 0.284469,-0.17156 0.552009,-0.39446 0.694531,-0.69453 0.05992,-0.12615 0.09591,-0.26205 0.132292,-0.39688 0.137192,-0.50836 0.285694,-1.02163 0.288965,-1.54816 0.0016,-0.26327 -0.03388,-0.52834 -0.123047,-0.77605 -0.08917,-0.24772 -0.233407,-0.4778 -0.430502,-0.65235 -0.272542,-0.24136 -0.632391,-0.36567 -0.993076,-0.41508 -0.360685,-0.0494 -0.726756,-0.0295 -1.090517,-0.0149 -1.109671,0.0445 -2.235364,0.0403 -3.307292,0.33073 -0.172596,0.0468 -0.345462,0.10208 -0.496094,0.19844 -0.207408,0.13268 -0.36189,0.33775 -0.463021,0.56224 -0.117185,0.26012 -0.166628,0.54645 -0.181605,0.83136 -0.01498,0.2849 0.0034,0.57035 0.01624,0.85536 0.01685,0.37471 0.02412,0.75083 0.07815,1.122 0.05402,0.37117 0.156894,0.74034 0.351802,1.06081 0.197191,0.32422 0.487176,0.59144 0.826823,0.76068 0.168818,0.0841 0.348537,0.14412 0.529166,0.19843 1.556098,0.46786 3.215677,0.52736 4.828646,0.33073 0.198216,-0.0242 0.396118,-0.0521 0.595313,-0.0661 0.165355,-0.0116 0.331493,-0.0135 0.496093,-0.0331 0.236688,-0.0282 0.467574,-0.0925 0.694532,-0.16536 0.716531,-0.22993 1.420822,-0.55767 1.951302,-1.09141 0.443359,-0.44608 0.747708,-1.02385 0.889344,-1.63663 0.141636,-0.61277 0.122931,-1.2589 -0.02945,-1.8691 -0.140487,-0.56257 -0.391744,-1.09299 -0.694532,-1.5875 -0.414609,-0.67714 -0.935487,-1.29976 -1.5875,-1.75286 -0.62751,-0.43607 -1.369369,-0.70601 -2.130379,-0.7752 -0.761011,-0.0692 -1.539388,0.0626 -2.235246,0.37832"
       id="path29"
       transform="translate(-1.763596,3.3508325)" /><path
       style="fill:none;fill-opacity:1;stroke:#000000;stroke-width:0.499999;stroke-linecap:butt;stroke-linejoin:round;stroke-dasharray:none;stroke-opacity:1;paint-order:markers stroke fill"
       d="m 40.315885,119.62474 c 1.349017,-1.19755 2.868331,-2.20298 4.497917,-2.97656 0.536767,-0.25481 1.086299,-0.48493 1.653645,-0.66146 0.426573,-0.13273 0.862113,-0.23485 1.289844,-0.3638 0.721196,-0.21742 1.41923,-0.51083 2.14974,-0.69454 0.390628,-0.0982 0.78925,-0.16467 1.190625,-0.19843 0.472666,-0.0397 0.947801,-0.0342 1.422135,-0.0331 0.793754,0.002 1.587543,-0.009 2.38125,0 0.275884,0.003 0.552018,0.009 0.826823,0.0331 0.856403,0.0766 1.683792,0.33684 2.513542,0.56224 0.232381,0.0631 0.465629,0.12366 0.694531,0.19843 0.698309,0.22809 1.352896,0.58924 1.918229,1.05834"
       id="path30"
       transform="translate(-1.763596,3.3508325)" /><path
       style="fill:none;fill-opacity:1;stroke:#000000;stroke-width:0.499999;stroke-linecap:butt;stroke-linejoin:round;stroke-dasharray:none;stroke-opacity:1;paint-order:markers stroke fill"
       d="m 42.498697,120.78229 c 0.559102,-0.5827 1.181251,-1.10486 1.852084,-1.55443 0.804401,-0.53908 1.676883,-0.97274 2.579687,-1.32291 1.686756,-0.65424 3.483957,-1.01822 5.291667,-1.09141 0.846498,-0.0343 1.70968,-0.003 2.513541,0.26458 0.673995,0.22426 1.292393,0.61362 1.785938,1.12448"
       id="path31"
       transform="translate(-1.763596,3.3508325)" /><path
       style="fill:none;fill-opacity:1;stroke:#000000;stroke-width:0.499999;stroke-linecap:butt;stroke-linejoin:round;stroke-dasharray:none;stroke-opacity:1;paint-order:markers stroke fill"
       d="m 56.157812,127.39687 c 0.700141,-1.17906 1.48559,-2.30745 2.348177,-3.37343 0.358669,-0.44324 0.732088,-0.87718 1.157552,-1.25677 0.719636,-0.64204 1.571766,-1.11464 2.348177,-1.68672 0.234317,-0.17265 0.461781,-0.35441 0.694531,-0.52917 0.428324,-0.32161 0.881415,-0.62291 1.389063,-0.79375 0.132198,-0.0445 0.267588,-0.0799 0.396875,-0.13229 0.284311,-0.11512 0.529303,-0.30761 0.79375,-0.46302 0.479666,-0.2819 1.020161,-0.44006 1.554427,-0.59532 0.457494,-0.13295 0.917038,-0.26615 1.389062,-0.33072 1.173607,-0.16054 2.357643,0.10905 3.538802,0.19843 0.297644,0.0225 0.596248,0.0336 0.892969,0.0661 0.583088,0.0639 1.15379,0.20981 1.719792,0.3638 0.343409,0.0934 0.686044,0.19 1.02526,0.29766 0.525283,0.16672 1.041827,0.35986 1.554427,0.56224 0.38124,0.15052 0.761089,0.30649 1.124479,0.49609 0.520069,0.27134 1.005706,0.61212 1.422136,1.02526 0.260736,0.25868 0.493082,0.54416 0.727604,0.82682 0.33445,0.4031 0.674441,0.80169 1.02526,1.19063 0.125807,0.13948 0.253296,0.27806 0.363802,0.42995 0.241143,0.33144 0.396799,0.72234 0.465328,1.12645 0.06853,0.40411 0.05103,0.82105 -0.03538,1.22172 -0.04122,0.19112 -0.09792,0.37873 -0.165364,0.56224 -0.279015,0.75918 -0.750985,1.45426 -1.389063,1.95131 -0.378876,0.29514 -0.810335,0.51748 -1.256771,0.69453 -0.833028,0.33037 -1.721033,0.50642 -2.61276,0.59531 -1.535733,0.15309 -3.155264,0.0334 -4.497917,-0.7276 -0.542122,-0.30729 -1.034994,-0.72266 -1.355989,-1.25678 -0.352475,-0.5865 -0.480446,-1.29544 -0.405173,-1.97555 0.07527,-0.68012 0.34688,-1.33105 0.735902,-1.89398 0.134163,-0.19414 0.282044,-0.37836 0.429948,-0.56224 0.313551,-0.38983 0.629072,-0.78035 0.992187,-1.12448 0.738745,-0.70012 1.686538,-1.19961 2.698124,-1.31191 1.011585,-0.11231 2.081727,0.18671 2.825053,0.88197 0.384214,0.35937 0.676451,0.8174 0.834404,1.31922 0.157952,0.50181 0.180555,1.04637 0.05857,1.55812 -0.102288,0.4291 -0.301791,0.82768 -0.496094,1.2237 -0.275316,0.56114 -0.555499,1.14211 -1.02526,1.55443 -0.372707,0.32713 -0.860083,0.53005 -1.35599,0.52916 -0.324291,-5.8e-4 -0.648863,-0.088 -0.92621,-0.25611 -0.277347,-0.16806 -0.506153,-0.41689 -0.644569,-0.71015 -0.138416,-0.29327 -0.184982,-0.63013 -0.124979,-0.94882 0.06,-0.31869 0.227309,-0.61722 0.47206,-0.82997 0.346659,-0.30133 0.846195,-0.41661 1.289844,-0.29766"
       id="path32"
       transform="translate(-1.763596,3.3508325)" /><path
       style="fill:none;fill-opacity:1;stroke:#000000;stroke-width:0.499999;stroke-linecap:butt;stroke-linejoin:round;stroke-dasharray:none;stroke-opacity:1;paint-order:markers stroke fill"
       d="m 82.549999,122.07213 c 0.79104,0.49571 1.419121,1.24696 1.76684,2.11331 0.347719,0.86635 0.413292,1.84336 0.184462,2.74841 -0.07096,0.28065 -0.169077,0.55356 -0.264583,0.82683 -0.09471,0.271 -0.187861,0.54475 -0.330729,0.79375 -0.321998,0.56119 -0.869657,0.95311 -1.422136,1.28984 -0.324644,0.19787 -0.656873,0.38305 -0.992187,0.56224 -0.262963,0.14053 -0.533149,0.27923 -0.826823,0.33073 -0.19598,0.0344 -0.39639,0.0287 -0.595313,0.0331 -0.619845,0.0136 -1.233419,0.12479 -1.852083,0.16537 -0.253263,0.0166 -0.507142,0.0214 -0.760677,0.0331 -1.48216,0.0686 -2.948181,0.37536 -4.431771,0.39687 -0.761006,0.011 -1.521055,-0.0531 -2.282031,-0.0661 -0.253531,-0.004 -0.507126,-0.003 -0.760677,0 -1.003325,0.0117 -2.00739,0.048 -3.009636,0 -0.408841,-0.0196 -0.816987,-0.0531 -1.223697,-0.0992 -0.647514,-0.0733 -1.293414,-0.17872 -1.91823,-0.3638 -0.187329,-0.0555 -0.372666,-0.11811 -0.562239,-0.16537 -0.469365,-0.11701 -0.961445,-0.1391 -1.419747,-0.29387 -0.229151,-0.0774 -0.449541,-0.18901 -0.629722,-0.35036 -0.180181,-0.16135 -0.318412,-0.37518 -0.364854,-0.61254 -0.034,-0.17378 -0.01854,-0.35306 0,-0.52917 0.109345,-1.03881 0.337543,-2.104 0.959114,-2.94348 0.368158,-0.49723 0.85699,-0.89103 1.35599,-1.25678 0.384642,-0.28193 0.791556,-0.55652 1.256771,-0.66145 0.327574,-0.0739 0.673894,-0.059 0.995865,0.0364 0.32197,0.0954 0.619212,0.27045 0.863432,0.50092 0.488439,0.46096 0.751304,1.13799 0.752455,1.8096 0.0012,0.6716 -0.248255,1.33275 -0.652153,1.86933 -0.403898,0.53658 -0.956315,0.9521 -1.562724,1.24075 -0.202054,0.0962 -0.412706,0.17954 -0.633853,0.21374 -0.221148,0.0342 -0.454836,0.0166 -0.655991,-0.0815 -0.194762,-0.0949 -0.350074,-0.26173 -0.448742,-0.45462 -0.09867,-0.1929 -0.142868,-0.41076 -0.147388,-0.62738 -0.009,-0.43324 0.135059,-0.85292 0.265401,-1.26618 0.07797,-0.24721 0.154842,-0.50215 0.31473,-0.70618 0.07994,-0.10201 0.180522,-0.18954 0.298285,-0.24367 0.117763,-0.0541 0.253327,-0.0733 0.379172,-0.0423 0.09691,0.0239 0.186336,0.0773 0.253309,0.15128 0.06697,0.074 0.111219,0.1683 0.125334,0.2671 0.01412,0.0988 -0.002,0.20172 -0.04553,0.29151 -0.04357,0.0898 -0.114468,0.16611 -0.200818,0.21616"
       id="path33"
       transform="translate(-1.763596,3.3508325)" /><path
       style="fill:none;fill-opacity:1;stroke:#000000;stroke-width:0.499999;stroke-linecap:butt;stroke-linejoin:round;stroke-dasharray:none;stroke-opacity:1;paint-order:markers stroke fill"
       d="m 56.653906,130.57187 c 0.906006,-2.30168 2.399364,-4.36941 4.299479,-5.95312 0.222328,-0.18531 0.450309,-0.36429 0.661458,-0.56224 0.278771,-0.26134 0.526275,-0.55393 0.79375,-0.82682 1.676574,-1.71055 4.171882,-2.58013 6.548437,-2.28204"
       id="path35"
       transform="translate(-1.763596,3.3508325)" /><path
       style="fill:none;fill-opacity:1;stroke:#000000;stroke-width:0.499999;stroke-linecap:butt;stroke-linejoin:round;stroke-dasharray:none;stroke-opacity:1;paint-order:markers stroke fill"
       d="m 71.305207,120.68307 c -1.07084,0.93435 -1.789244,2.2634 -1.984375,3.6711 -0.05333,0.38475 -0.06899,0.77432 -0.132291,1.15755 -0.04796,0.29035 -0.122997,0.57544 -0.198438,0.85989 -0.152567,0.57525 -0.308447,1.15969 -0.293295,1.75464 0.0076,0.29747 0.05886,0.59562 0.171113,0.8712 0.112253,0.27559 0.287051,0.52819 0.519057,0.71453 0.261895,0.21034 0.586915,0.32977 0.916406,0.39511 0.329492,0.0653 0.666587,0.0798 1.001823,0.10098 0.319827,0.0203 0.639232,0.0469 0.959115,0.0662 0.264346,0.016 0.528991,0.027 0.79375,0.0331"
       id="path36"
       transform="translate(-1.763596,3.3508325)" /><path
       style="fill:none;fill-opacity:1;stroke:#000000;stroke-width:0.499999;stroke-linecap:butt;stroke-linejoin:round;stroke-dasharray:none;stroke-opacity:1;paint-order:markers stroke fill"
       d="m 45.805989,121.57604 c 0.261627,0.11717 0.526332,0.22746 0.79375,0.33073 0.765136,0.29547 1.556279,0.53515 2.277184,0.92634 0.720905,0.3912 1.381947,0.95997 1.691566,1.71949 0.03556,0.0872 0.06625,0.17635 0.09922,0.26459 0.272875,0.73033 0.704703,1.40079 1.256771,1.9513 0.140723,-1.14956 0.514247,-2.27014 1.091406,-3.27422 0.202742,-0.35271 0.429978,-0.69071 0.661458,-1.02526 0.363898,-0.52593 0.738835,-1.04423 1.124479,-1.55443"
       id="path68"
       transform="translate(-1.763596,3.3508325)" /><path
       style="fill:none;fill-opacity:1;stroke:#000000;stroke-width:0.499999;stroke-linecap:butt;stroke-linejoin:round;stroke-dasharray:none;stroke-opacity:1;paint-order:markers stroke fill"
       d="m 47.128906,120.18698 c 1.270994,0.59526 2.416371,1.45713 3.340364,2.51354 0.129315,0.14785 0.254584,0.29976 0.363802,0.46302 0.306433,0.45805 0.480529,1.00355 0.496094,1.55443"
       id="path69"
       transform="translate(-1.763596,3.3508325)" /><path
       style="fill:none;fill-opacity:1;stroke:#000000;stroke-width:0.499999;stroke-linecap:butt;stroke-linejoin:round;stroke-dasharray:none;stroke-opacity:1;paint-order:markers stroke fill"
       d="m 51.626822,124.48646 c 0.0988,-1.33514 0.6693,-2.63064 1.5875,-3.60495 0.21435,-0.22745 0.446838,-0.4378 0.694531,-0.62839"
       id="path70"
       transform="translate(-1.763596,3.3508325)" /><path
       style="fill:none;fill-opacity:1;stroke:#000000;stroke-width:0.499999;stroke-linecap:butt;stroke-linejoin:round;stroke-dasharray:none;stroke-opacity:1;paint-order:markers stroke fill"
       d="m 54.107291,119.95547 c -0.979743,-0.67072 -2.153611,-1.05426 -3.340365,-1.09141 -0.3758,-0.0118 -0.752655,0.0104 -1.124479,0.0662 -0.05631,0.0173 -0.106856,0.0529 -0.142212,0.10001 -0.03536,0.0471 -0.05534,0.10561 -0.05623,0.16452 -0.001,0.0677 0.02252,0.13382 0.05477,0.1934 0.03225,0.0596 0.0732,0.11391 0.11059,0.1704 0.103498,0.1564 0.179469,0.32898 0.264583,0.4961 0.368963,0.72443 0.919648,1.35543 1.5875,1.81901"
       id="path71"
       transform="translate(-1.763596,3.3508325)" /><path
       style="fill:none;fill-opacity:1;stroke:#000000;stroke-width:0.499999;stroke-linecap:butt;stroke-linejoin:round;stroke-dasharray:none;stroke-opacity:1;paint-order:markers stroke fill"
       d="m 30.63577,125.98083 c -1.348677,0.32053 -2.64302,0.86845 -3.811934,1.61364 -0.169765,0.10823 -0.337304,0.22087 -0.491106,0.35079 -0.331629,0.28012 -0.59264,0.63489 -0.818513,1.0056 -0.239779,0.39354 -0.443581,0.80898 -0.608038,1.23947"
       id="path72"
       transform="translate(-1.763596,3.3508325)" /><path
       style="fill:none;fill-opacity:1;stroke:#000000;stroke-width:0.499999;stroke-linecap:butt;stroke-linejoin:round;stroke-dasharray:none;stroke-opacity:1;paint-order:markers stroke fill"
       d="m 31.197036,127.59447 -3.320825,2.47893"
       id="path73"
       transform="translate(-1.763596,3.3508325)" /><path
       style="fill:none;fill-opacity:1;stroke:#000000;stroke-width:0.499999;stroke-linecap:butt;stroke-linejoin:round;stroke-dasharray:none;stroke-opacity:1;paint-order:markers stroke fill"
       d="m 45.67302,125.55988 3.344212,2.97003 c 0.105579,0.17685 0.206957,0.35621 0.304019,0.53788 0.246714,0.46176 0.465514,0.93844 0.654809,1.42656"
       id="path74"
       transform="translate(-1.763596,3.3508325)" /><g
       id="layer4"
       style="display:inline"
       transform="matrix(0.94265252,0,0,0.94265252,11.038078,6.0283644)"><path
         style="display:inline;fill:none;fill-opacity:1;stroke:#000000;stroke-width:0.499999;stroke-linecap:butt;stroke-linejoin:round;stroke-dasharray:none;stroke-opacity:1;paint-order:markers stroke fill"
         d="m 16.650891,118.66099 c 3.225964,0.10656 6.454418,0.13773 9.681839,0.0935 1.294063,-0.0177 2.588781,-0.0476 3.882091,0 1.079538,0.0397 2.157088,0.13342 3.227279,0.28063"
         id="path37"
         transform="translate(-9.0757476,4.0877457)" /><path
         style="display:inline;fill:none;fill-opacity:1;stroke:#000000;stroke-width:0.499999;stroke-linecap:butt;stroke-linejoin:round;stroke-dasharray:none;stroke-opacity:1;paint-order:markers stroke fill"
         d="M 19.64431,141.43903 H 30.027731"
         id="path47"
         transform="translate(-12.722029,-1.122532)" /><path
         style="display:inline;fill:none;fill-opacity:1;stroke:#000000;stroke-width:0.499999;stroke-linecap:butt;stroke-linejoin:round;stroke-dasharray:none;stroke-opacity:1;paint-order:markers stroke fill"
         d="m 24.789248,144.71309 14.780004,-0.46773"
         id="path48"
         transform="translate(-12.722029,-1.122532)" /><path
         style="display:inline;fill:none;fill-opacity:1;stroke:#000000;stroke-width:0.499999;stroke-linecap:butt;stroke-linejoin:round;stroke-dasharray:none;stroke-opacity:1;paint-order:markers stroke fill"
         d="m 32.742187,141.22135 h 1.918229"
         id="path49"
         transform="translate(-12.722029,-1.122532)" /><path
         style="display:inline;fill:none;fill-opacity:1;stroke:#000000;stroke-width:0.499999;stroke-linecap:butt;stroke-linejoin:round;stroke-dasharray:none;stroke-opacity:1;paint-order:markers stroke fill"
         d="m 39.092187,141.15521 2.976562,0.0661"
         id="path50"
         transform="translate(-12.722029,-1.122532)" /></g></g><g
     id="layer10"
     style="display:none"
     transform="translate(-11.719292,-121.67735)"><path
       style="opacity:0.759661;fill:none;fill-opacity:1;stroke:#000000;stroke-width:0.499999;stroke-linecap:round;stroke-linejoin:round;stroke-dasharray:none;stroke-opacity:1;paint-order:markers stroke fill"
       d="m 152.66435,126.47194 c -1.39817,0.34252 -2.64416,1.26694 -3.37737,2.50574 -0.7332,1.23879 -0.94409,2.77586 -0.57164,4.16636 0.37245,1.3905 1.32342,2.61635 2.57767,3.32279 1.25425,0.70644 2.79549,0.88429 4.17767,0.48207 1.074,-0.31254 2.02,-0.9457 2.99342,-1.49671 1.95375,-1.10592 4.11066,-1.9123 6.34994,-2.07294 2.23929,-0.16065 4.56775,0.3629 6.37209,1.69877 1.23776,0.9164 2.19306,2.1825 2.86008,3.57064 0.66702,1.38814 1.05516,2.89756 1.27921,4.42126 0.4481,3.04739 0.25196,6.1534 0.53793,9.22025 0.52605,5.64159 2.66001,10.988 4.11595,16.46381 1.86626,7.01901 2.66018,14.40469 5.79975,20.95393 1.0194,2.1265 2.27701,4.13868 3.74177,5.98683"
       id="path166" /><path
       style="opacity:0.759661;fill:none;fill-opacity:1;stroke:#000000;stroke-width:0.499999;stroke-linecap:round;stroke-linejoin:round;stroke-dasharray:none;stroke-opacity:1;paint-order:markers stroke fill"
       d="m 34.985581,147.23878 c 0.188343,2.22754 -0.743685,4.52176 -2.432153,5.98684 -1.047857,0.90922 -2.366332,1.50254 -3.741772,1.6838 -4.571985,-0.14286 -9.158729,2.00717 -11.973676,5.61266 -1.266895,1.62268 -2.178105,3.49757 -2.899874,5.42557 -2.777617,7.41961 -2.73244,15.98858 0.748354,23.10545 1.592664,3.25638 3.870389,6.17572 6.641648,8.51253"
       id="path167" /><path
       style="opacity:0.759661;fill:none;fill-opacity:1;stroke:#000000;stroke-width:0.499999;stroke-linecap:round;stroke-linejoin:round;stroke-dasharray:none;stroke-opacity:1;paint-order:markers stroke fill"
       d="m 26.753679,177.82778 c 1.453672,0.19619 2.799091,1.08134 3.554685,2.33861 0.575319,0.9573 0.808251,2.08448 0.888303,3.19849 0.08005,1.11401 0.01673,2.23314 0.04714,3.34961 0.09878,3.62714 1.179496,7.14351 2.057976,10.66405 0.586452,2.35023 1.085811,4.72218 1.496709,7.10937"
       id="path169" /><path
       style="opacity:0.759661;fill:none;fill-opacity:1;stroke:#000000;stroke-width:0.499999;stroke-linecap:round;stroke-linejoin:round;stroke-dasharray:none;stroke-opacity:1;paint-order:markers stroke fill"
       d="m 158.08992,120.85928 -1.4967,9.9157"
       id="path173" /><path
       style="opacity:0.759661;fill:none;fill-opacity:1;stroke:#000000;stroke-width:0.499999;stroke-linecap:round;stroke-linejoin:round;stroke-dasharray:none;stroke-opacity:1;paint-order:markers stroke fill"
       d="m 16.007291,139.7 0.926042,10.84791"
       id="path176"
       transform="translate(-1.8708867,0.09354433)" /><path
       style="opacity:0.759661;fill:none;fill-opacity:1;stroke:#000000;stroke-width:0.499999;stroke-linecap:round;stroke-linejoin:round;stroke-dasharray:none;stroke-opacity:1;paint-order:markers stroke fill"
       d="m 113.50625,160.60208 c 0.86396,4.97153 1.13106,10.0465 0.79375,15.08125 -0.13058,1.94909 -0.35138,3.89214 -0.66146,5.82083"
       id="path177" /><path
       style="opacity:0.759661;fill:none;fill-opacity:1;stroke:#000000;stroke-width:0.499999;stroke-linecap:round;stroke-linejoin:round;stroke-dasharray:none;stroke-opacity:1;paint-order:markers stroke fill"
       d="m 121.44375,159.80833 c -0.11914,5.7783 -0.29554,11.55541 -0.52917,17.33021 -0.15357,3.79601 -0.33195,7.59228 -0.66146,11.37708 -0.17698,2.03289 -0.39754,4.06198 -0.66145,6.08542"
       id="path178" /><path
       style="opacity:0.759661;fill:none;fill-opacity:1;stroke:#000000;stroke-width:0.499999;stroke-linecap:round;stroke-linejoin:round;stroke-dasharray:none;stroke-opacity:1;paint-order:markers stroke fill"
       d="m 146.44687,161.52812 c -0.51996,5.32295 -0.87297,10.66221 -1.05833,16.00729 -0.0642,1.85153 -0.10831,3.70376 -0.13229,5.55625"
       id="path179" /><path
       style="opacity:0.759661;fill:none;fill-opacity:1;stroke:#000000;stroke-width:0.499999;stroke-linecap:round;stroke-linejoin:round;stroke-dasharray:none;stroke-opacity:1;paint-order:markers stroke fill"
       d="m 135.99583,162.85104 c 0.10692,4.01397 0.0186,8.03314 -0.26458,12.03854 -0.33731,4.77113 -0.95055,9.51898 -1.32292,14.2875 -0.61524,7.87873 -0.57094,15.80885 0.13229,23.68021"
       id="path180" /><path
       style="opacity:0.759661;fill:none;fill-opacity:1;stroke:#000000;stroke-width:0.499999;stroke-linecap:round;stroke-linejoin:round;stroke-dasharray:none;stroke-opacity:1;paint-order:markers stroke fill"
       d="m 152.79687,162.71875 c -1.29073,0.83619 -2.19563,2.24422 -2.42011,3.76566 -0.22447,1.52145 0.23525,3.13081 1.22949,4.30413 0.652,0.76943 1.50482,1.34209 2.38289,1.83821 0.87807,0.49612 1.79391,0.92672 2.64419,1.46908 1.85718,1.18463 3.35521,2.87924 4.49792,4.7625 3.07268,5.06398 3.53036,11.62404 1.19062,17.06563"
       id="path181" /><path
       style="opacity:0.759661;fill:none;fill-opacity:1;stroke:#000000;stroke-width:0.499999;stroke-linecap:round;stroke-linejoin:round;stroke-dasharray:none;stroke-opacity:1;paint-order:markers stroke fill"
       d="m 48.815624,179.3875 c 0.02823,0.40709 0.117741,0.80988 0.264584,1.19062 0.279446,0.72455 0.761911,1.35833 1.326041,1.89201 0.564129,0.53368 1.210045,0.97314 1.867953,1.38571 1.315816,0.82514 2.728691,1.58403 3.685172,2.8077 0.71903,0.91989 1.132801,2.05739 1.276886,3.21603 0.144086,1.15864 0.0273,2.3393 -0.238064,3.4763 -0.530738,2.27402 -1.638391,4.36412 -2.49403,6.53684 -1.260837,3.20163 -1.97964,6.61594 -2.116667,10.05416"
       id="path182" /><path
       style="opacity:0.759661;fill:none;fill-opacity:1;stroke:#000000;stroke-width:0.499999;stroke-linecap:round;stroke-linejoin:round;stroke-dasharray:none;stroke-opacity:1;paint-order:markers stroke fill"
       d="m 22.357291,178.19687 c -1.043747,0.94095 -1.792521,2.2045 -2.116666,3.57188 -0.515773,2.17574 0.04199,4.47261 0.919559,6.52924 0.877569,2.05663 2.070629,3.96876 2.916899,6.03847 1.285213,3.14322 1.737846,6.62254 1.299618,9.98997 -0.438227,3.36743 -1.766279,6.61502 -3.81316,9.32461"
       id="path183" /><path
       style="opacity:0.759661;fill:none;fill-opacity:1;stroke:#000000;stroke-width:0.499999;stroke-linecap:round;stroke-linejoin:round;stroke-dasharray:none;stroke-opacity:1;paint-order:markers stroke fill"
       d="m 44.582291,181.50416 c 0.590332,5.26697 0.723286,10.58512 0.396875,15.875 -0.117304,1.90106 -0.293807,3.79847 -0.529167,5.68855"
       id="path184" /></g><g
     id="layer11"
     style="display:inline"
     transform="translate(-11.719292,-121.67735)"><path
       style="fill:none;fill-rule:evenodd;stroke:#000000;stroke-width:0.264583"
       id="path188"
       d="m 19.976042,180.97499 c 0.06624,-0.0761 0.135267,0.0517 0.126489,0.1101 -0.02379,0.15813 -0.221529,0.19699 -0.346682,0.14288 -0.223869,-0.0968 -0.269297,-0.38524 -0.159276,-0.58327 0.161461,-0.29062 0.551098,-0.34356 0.819854,-0.17567 0.358211,0.22378 0.418651,0.71772 0.192063,1.05644 -0.285138,0.42626 -0.884689,0.49416 -1.293027,0.20846 -0.494551,-0.34603 -0.569916,-1.05187 -0.224848,-1.52961 0.406649,-0.56301 1.219164,-0.64583 1.766198,-0.24125 0.631572,0.46711 0.721836,1.38655 0.257635,2.00279 -0.09642,0.12799 -0.213283,0.24032 -0.344656,0.33205" /><path
       style="fill:none;fill-rule:evenodd;stroke:#000000;stroke-width:0.264583"
       id="path190"
       d="m 178.99062,125.2802 c 0.0662,-0.0761 0.13526,0.0517 0.12649,0.11009 -0.0238,0.15813 -0.22153,0.19699 -0.34669,0.14289 -0.22387,-0.0968 -0.26929,-0.38524 -0.15927,-0.58327 0.16146,-0.29062 0.55109,-0.34356 0.81985,-0.17567 0.35821,0.22377 0.41865,0.71771 0.19206,1.05644 -0.28513,0.42625 -0.88468,0.49416 -1.29302,0.20845 -0.49455,-0.34602 -0.56992,-1.05186 -0.22485,-1.52961 0.40665,-0.56301 1.21916,-0.64582 1.7662,-0.24124 0.63157,0.46711 0.72183,1.38655 0.25763,2.00278 -0.0964,0.128 -0.21328,0.24033 -0.34465,0.33205" /><path
       style="fill:none;fill-rule:evenodd;stroke:#000000;stroke-width:0.264583"
       id="path191"
       d="m 156.63333,123.29583 c 0.0691,-0.0952 0.16248,0.0462 0.15829,0.11488 -0.0114,0.18616 -0.23709,0.25166 -0.38806,0.20169 -0.27005,-0.0894 -0.35252,-0.41983 -0.24508,-0.66123 0.15766,-0.35425 0.60488,-0.45587 0.93439,-0.28848 0.43919,0.2231 0.56026,0.79072 0.33188,1.20757 -0.28738,0.52455 -0.97693,0.66517 -1.48073,0.37528 -0.61017,-0.35109 -0.77039,-1.16335 -0.41868,-1.75391 0.41447,-0.69594 1.3499,-0.87579 2.02707,-0.46208 0.78182,0.47766 0.98134,1.53654 0.50548,2.30025 -0.0988,0.15862 -0.22304,0.30115 -0.36623,0.42124" /><path
       style="fill:none;fill-rule:evenodd;stroke:#000000;stroke-width:0.264583"
       id="path192"
       d="m 172.37604,135.20209 c 0.1656,-0.19026 0.33817,0.12936 0.31622,0.27524 -0.0595,0.39533 -0.55382,0.49247 -0.8667,0.35721 -0.55968,-0.24196 -0.67325,-0.9631 -0.39819,-1.45818 0.40365,-0.72654 1.37774,-0.8589 2.04963,-0.43917 0.89553,0.55944 1.04663,1.79429 0.48016,2.6411 -0.71285,1.06563 -2.21172,1.2354 -3.23257,0.52114 -1.23638,-0.86507 -1.42479,-2.62966 -0.56212,-3.82403 1.01662,-1.40752 3.04791,-1.61456 4.4155,-0.6031 1.57893,1.16776 1.80459,3.46637 0.64408,5.00696 -0.24103,0.31998 -0.5332,0.60081 -0.86164,0.83012" /><path
       style="fill:none;fill-rule:evenodd;stroke:#000000;stroke-width:0.264583"
       id="path193"
       d="m 163.11562,133.87917 c 0.0634,-0.057 0.10806,0.0573 0.0947,0.1053 -0.0362,0.13011 -0.20597,0.14232 -0.30531,0.0841 -0.17769,-0.10417 -0.18608,-0.35064 -0.0735,-0.50531 0.16526,-0.22698 0.49732,-0.23125 0.70532,-0.0628 0.27723,0.22445 0.27704,0.64471 0.0522,0.90531 -0.28289,0.32795 -0.79245,0.32316 -1.10532,0.0416 -0.37893,-0.34096 -0.36944,-0.94037 -0.031,-1.30532 0.39883,-0.43007 1.08843,-0.41585 1.50533,-0.0204 0.48132,0.45656 0.46233,1.23656 0.01,1.70532 -0.094,0.0974 -0.20352,0.1795 -0.32309,0.24286" /><path
       style="fill:none;fill-rule:evenodd;stroke:#000000;stroke-width:0.264583"
       id="path194"
       d="m 149.88646,170.78854 c 0.11294,-0.10037 0.19102,0.10272 0.16683,0.18771 -0.0656,0.23032 -0.3667,0.25024 -0.54225,0.14595 -0.314,-0.18655 -0.32633,-0.62368 -0.12506,-0.89678 0.29538,-0.40079 0.88422,-0.40493 1.25131,-0.10418 0.48927,0.40085 0.48461,1.14605 0.0833,1.60584 -0.505,0.5786 -1.40849,0.56484 -1.96037,0.0624 -0.66841,-0.6085 -0.64541,-1.67128 -0.0416,-2.31491 0.71163,-0.75849 1.93429,-0.72616 2.66945,-0.0207 0.84877,0.81453 0.80706,2.19743 -2.2e-4,3.02398 -0.16768,0.17168 -0.36273,0.31618 -0.5754,0.4273" /><path
       style="fill:none;fill-rule:evenodd;stroke:#000000;stroke-width:0.264583"
       id="path195"
       d="m 137.58333,173.43437 c 0.10224,-0.13328 0.23011,0.0721 0.22153,0.16994 -0.0232,0.26522 -0.34785,0.35015 -0.5614,0.27312 -0.38198,-0.13778 -0.48716,-0.61245 -0.32472,-0.95286 0.23839,-0.49956 0.88043,-0.62765 1.34432,-0.37632 0.6183,0.33499 0.76958,1.14958 0.42792,1.73579 -0.42996,0.73768 -1.41928,0.91225 -2.12725,0.47951 -0.85745,-0.52411 -1.05535,-1.68928 -0.53111,-2.51871 0.6178,-0.97745 1.95949,-1.19871 2.91017,-0.5827 1.09761,0.7112 1.34226,2.22981 0.6343,3.30163 -0.14704,0.22262 -0.32968,0.42132 -0.53855,0.58727" /><path
       style="fill:none;fill-rule:evenodd;stroke:#000000;stroke-width:0.264583"
       id="path196"
       d="m 119.59167,163.90938 c 0.1481,-0.0481 0.13794,0.1759 0.08,0.24616 -0.15706,0.1904 -0.44963,0.0848 -0.57231,-0.0862 -0.21944,-0.30587 -0.0505,-0.72372 0.25238,-0.89845 0.44448,-0.25643 1.00222,-0.0171 1.2246,0.41856 0.2964,0.58063 -0.0159,1.28237 -0.58474,1.55075 -0.71588,0.33772 -1.56333,-0.0485 -1.87689,-0.75092 -0.37977,-0.85071 0.081,-1.84476 0.91709,-2.20305 0.98531,-0.42223 2.12647,0.1134 2.52919,1.08328 0.46497,1.11977 -0.14571,2.40836 -1.24945,2.85534 -0.22925,0.0928 -0.47314,0.14871 -0.71985,0.16578" /><path
       style="fill:none;fill-rule:evenodd;stroke:#000000;stroke-width:0.264583"
       id="path197"
       d="m 138.1125,164.43854 c 0.0814,0.0827 -0.0713,0.15059 -0.13744,0.13537 -0.17929,-0.0412 -0.20642,-0.27148 -0.13331,-0.41027 0.13077,-0.24825 0.46565,-0.27491 0.6831,-0.13123 0.31911,0.21085 0.34546,0.66245 0.12916,0.95592 -0.28829,0.39114 -0.8602,0.41689 -1.22875,0.12709 -0.46377,-0.36468 -0.48877,-1.05839 -0.12502,-1.50157 0.44055,-0.53675 1.25684,-0.56092 1.7744,-0.12295 0.60992,0.51613 0.63322,1.45544 0.12088,2.04722 -0.59153,0.68324 -1.65415,0.70565 -2.32005,0.11881 -0.13831,-0.12189 -0.25685,-0.26586 -0.35047,-0.42464" /><path
       style="fill:none;fill-rule:evenodd;stroke:#000000;stroke-width:0.264583"
       id="path201"
       d="m 13.626041,141.94896 c 0.07221,-0.14172 0.226664,0.0274 0.235551,0.12002 0.02408,0.25094 -0.263491,0.38598 -0.475589,0.35108 -0.379393,-0.0624 -0.559163,-0.48622 -0.466613,-0.83116 0.135821,-0.50621 0.711493,-0.73616 1.186727,-0.58214 0.633413,0.20528 0.914709,0.93761 0.697676,1.54229 -0.273113,0.76094 -1.164108,1.09404 -1.897865,0.81321 -0.888679,-0.34012 -1.273821,-1.39082 -0.92874,-2.25343 0.406667,-1.01656 1.617672,-1.45389 2.609005,-1.04427 1.144534,0.47291 1.634136,1.8446 1.159802,2.96457 -0.09852,0.23262 -0.234308,0.44911 -0.400162,0.63962" /><path
       style="fill:none;fill-rule:evenodd;stroke:#000000;stroke-width:0.264583"
       id="path202"
       d="m 58.472916,146.05 c 0.104708,-0.0977 0.183356,0.093 0.162383,0.17403 -0.05684,0.21975 -0.341717,0.24553 -0.510447,0.15074 -0.301818,-0.16956 -0.323532,-0.58347 -0.139085,-0.84686 0.270682,-0.38654 0.828544,-0.40399 1.183275,-0.12744 0.4728,0.3686 0.48549,1.07481 0.115788,1.51969 -0.465231,0.55984 -1.321642,0.56754 -1.856104,0.10414 -0.647304,-0.56124 -0.649902,-1.56879 -0.09249,-2.19252 0.656889,-0.73503 1.816148,-0.73246 2.528933,-0.0808 0.822939,0.75232 0.815159,2.06363 0.06919,2.86535 -0.154938,0.16652 -0.336447,0.30792 -0.535405,0.41809" /><path
       style="fill:none;fill-rule:evenodd;stroke:#000000;stroke-width:0.264583"
       id="path203"
       d="m 19.049999,149.22499 c 0.0393,-0.13103 0.196011,-0.0117 0.217777,0.0653 0.05898,0.20863 -0.163573,0.36713 -0.348409,0.37023 -0.330628,0.006 -0.547941,-0.32539 -0.522697,-0.6315 0.03705,-0.44923 0.488777,-0.73236 0.914593,-0.67515 0.567546,0.0762 0.918232,0.65263 0.827618,1.19768 -0.114029,0.68589 -0.816702,1.10482 -1.480778,0.98008 -0.804285,-0.15108 -1.29182,-0.98088 -1.132538,-1.76387 0.187709,-0.92273 1.145124,-1.47908 2.046962,-1.285 1.041208,0.22408 1.666517,1.30942 1.437459,2.33005 -0.04758,0.21199 -0.129167,0.41607 -0.240195,0.60279" /><path
       style="fill:none;fill-rule:evenodd;stroke:#000000;stroke-width:0.264583"
       id="path204"
       d="m 50.535416,188.51562 c 0.113351,-0.15508 0.26498,0.0763 0.257768,0.1884 -0.01955,0.30383 -0.388389,0.40954 -0.634564,0.32714 -0.440349,-0.14739 -0.573191,-0.68725 -0.396508,-1.08073 0.259288,-0.57744 0.989888,-0.74091 1.526894,-0.46588 0.715745,0.36657 0.910306,1.29383 0.53525,1.97306 -0.47197,0.85475 -1.598368,1.08057 -2.419226,0.60462 -0.99417,-0.57643 -1.25132,-1.90325 -0.67399,-2.86539 0.680363,-1.13384 2.208355,-1.42239 3.311557,-0.74336 1.273691,0.78396 1.593661,2.5136 0.812731,3.75772 -0.162201,0.25841 -0.365734,0.49042 -0.60012,0.68567" /><path
       style="fill:none;fill-rule:evenodd;stroke:#000000;stroke-width:0.264583"
       id="path205"
       d="m 33.734375,198.56979 c 0.04732,-0.10634 0.166694,0.0113 0.176749,0.0786 0.02725,0.18245 -0.177705,0.2922 -0.334042,0.27485 -0.27965,-0.031 -0.42732,-0.33381 -0.372954,-0.58944 0.07978,-0.37514 0.491623,-0.56533 0.844833,-0.47105 0.470774,0.12565 0.704503,0.64999 0.569159,1.10023 -0.170316,0.56657 -0.808616,0.84426 -1.355625,0.66726 -0.6625,-0.21437 -0.984361,-0.96738 -0.765364,-1.61102 0.258081,-0.75851 1.126227,-1.12467 1.866417,-0.86347 0.854578,0.30157 1.265122,1.28513 0.961569,2.12181 -0.06305,0.17378 -0.153952,0.33721 -0.267826,0.48281" /><path
       style="fill:none;fill-rule:evenodd;stroke:#000000;stroke-width:0.264583"
       id="path206"
       d="m 50.667709,202.93541 c 0.09957,-0.14151 0.239882,0.0644 0.235206,0.16549 -0.01267,0.27395 -0.343141,0.37513 -0.566185,0.30492 -0.398974,-0.12559 -0.527373,-0.60965 -0.374636,-0.96688 0.224147,-0.52425 0.879479,-0.68333 1.367574,-0.44435 0.650555,0.31852 0.840824,1.15046 0.514067,1.76827 -0.41119,0.77745 -1.421969,0.9991 -2.168964,0.58378 -0.904711,-0.50301 -1.157833,-1.69378 -0.653498,-2.56966 0.594342,-1.03219 1.965782,-1.31685 2.970354,-0.72321 1.159819,0.68537 1.476053,2.2379 0.792929,3.37105 -0.141886,0.23535 -0.321425,0.4476 -0.529347,0.62726" /><path
       style="fill:none;fill-rule:evenodd;stroke:#000000;stroke-width:0.264583"
       id="path207"
       d="m 60.589584,190.63229 c 0.04978,-0.0708 0.119941,0.0322 0.117603,0.0827 -0.0063,0.13697 -0.17157,0.18756 -0.283092,0.15246 -0.199487,-0.0628 -0.263687,-0.30482 -0.187318,-0.48344 0.112073,-0.26213 0.439739,-0.34167 0.683787,-0.22218 0.325277,0.15926 0.420412,0.57523 0.257033,0.88414 -0.205595,0.38873 -0.710984,0.49955 -1.084482,0.29189 -0.452355,-0.2515 -0.578917,-0.84689 -0.326749,-1.28483 0.297171,-0.5161 0.982891,-0.65842 1.485177,-0.36161 0.579909,0.34269 0.738027,1.11896 0.396465,1.68553 -0.07094,0.11768 -0.160713,0.2238 -0.264674,0.31363" /><path
       style="fill:none;fill-rule:evenodd;stroke:#000000;stroke-width:0.264583"
       id="path208"
       d="m 144.61955,124.41396 c 0.0707,-0.13875 0.22192,0.0268 0.23062,0.11751 0.0236,0.24569 -0.25797,0.3779 -0.46563,0.34373 -0.37145,-0.0611 -0.54746,-0.47604 -0.45685,-0.81376 0.13298,-0.49561 0.6966,-0.72075 1.16189,-0.56996 0.62016,0.20099 0.89557,0.91799 0.68308,1.51002 -0.2674,0.74501 -1.13975,1.07114 -1.85815,0.79619 -0.87008,-0.33301 -1.24716,-1.36172 -0.9093,-2.20628 0.39815,-0.99528 1.58381,-1.42345 2.5544,-1.02241 1.12058,0.46302 1.59993,1.806 1.13553,2.90253 -0.0965,0.22775 -0.22941,0.4397 -0.39179,0.62623" /><path
       style="fill:none;fill-rule:evenodd;stroke:#000000;stroke-width:0.264583"
       id="path213"
       d="m 156.21902,182.97272 c 0.0786,-0.15418 0.24658,0.0298 0.25625,0.13056 0.0262,0.27299 -0.28664,0.41989 -0.51737,0.38193 -0.41273,-0.0679 -0.60829,-0.52894 -0.50761,-0.90418 0.14775,-0.55069 0.774,-0.80084 1.29099,-0.63329 0.68906,0.22331 0.99507,1.01998 0.75897,1.67779 -0.29711,0.8278 -1.26638,1.19016 -2.06461,0.88466 -0.96675,-0.37001 -1.38573,-1.51302 -1.01033,-2.45142 0.44239,-1.10587 1.75979,-1.58161 2.83822,-1.13601 1.24509,0.51446 1.77771,2.00667 1.2617,3.22503 -0.10718,0.25305 -0.25489,0.48856 -0.43532,0.69581" /><path
       style="fill:none;fill-rule:evenodd;stroke:#000000;stroke-width:0.264583"
       id="path214"
       d="m 130.96207,187.08867 c 0.082,-0.10385 0.18046,0.0594 0.1726,0.13636 -0.0213,0.20867 -0.27797,0.27192 -0.44532,0.20884 -0.29936,-0.11284 -0.37688,-0.48795 -0.24508,-0.75428 0.19342,-0.39085 0.70063,-0.48453 1.06323,-0.28132 0.4833,0.27085 0.59331,0.91425 0.31756,1.3722 -0.347,0.57627 -1.12831,0.70266 -1.68115,0.35379 -0.66956,-0.42251 -0.81235,-1.34262 -0.39004,-1.99011 0.49768,-0.76304 1.55709,-0.92224 2.29907,-0.42628 0.85665,0.57262 1.03228,1.77166 0.46252,2.60803 -0.11834,0.17372 -0.26445,0.32819 -0.43086,0.45657" /><path
       style="fill:none;fill-rule:evenodd;stroke:#000000;stroke-width:0.264583"
       id="path215"
       d="m 118.61421,192.14006 c 0.094,-0.14632 0.2436,0.0545 0.24319,0.15619 -0.001,0.27561 -0.32863,0.39122 -0.55556,0.33019 -0.40594,-0.10918 -0.5554,-0.58977 -0.41719,-0.95494 0.20282,-0.53591 0.85408,-0.72344 1.35431,-0.50419 0.66673,0.29222 0.89308,1.11949 0.5912,1.75369 -0.37989,0.79808 -1.3854,1.06352 -2.15308,0.67819 -0.92975,-0.46668 -1.23443,-1.65159 -0.76519,-2.55244 0.55298,-1.06163 1.91796,-1.40564 2.95183,-0.8522 1.19364,0.63897 1.57703,2.18444 0.93919,3.3512 -0.13248,0.24234 -0.30375,0.46308 -0.5049,0.65229" /><path
       style="fill:none;fill-rule:evenodd;stroke:#000000;stroke-width:0.264583"
       id="path216"
       d="m 151.16765,201.49449 c 0.0477,-0.16988 0.25254,-0.0195 0.28236,0.0793 0.0808,0.26775 -0.20267,0.47721 -0.44099,0.4854 -0.42631,0.0146 -0.71408,-0.40728 -0.68844,-0.80266 0.0376,-0.58024 0.61383,-0.95564 1.16433,-0.89149 0.73372,0.0855 1.19907,0.82097 1.09453,1.526 -0.13155,0.88722 -1.02836,1.44344 -1.88768,1.29758 -1.04075,-0.17666 -1.68834,-1.23587 -1.50062,-2.24935 0.22123,-1.19435 1.44348,-1.93358 2.61102,-1.70366 1.34799,0.26545 2.17904,1.65113 1.90671,2.97269 -0.0566,0.27449 -0.15718,0.53954 -0.29616,0.78288" /><path
       style="fill:none;fill-rule:evenodd;stroke:#000000;stroke-width:0.264583"
       id="path217"
       d="m 19.644312,206.92007 c 0.05499,-0.10792 0.172604,0.0209 0.179371,0.0914 0.01834,0.19109 -0.200647,0.29392 -0.36216,0.26735 -0.288908,-0.0475 -0.425802,-0.37026 -0.355326,-0.63293 0.103428,-0.38548 0.541802,-0.56059 0.903693,-0.4433 0.482343,0.15632 0.69655,0.71399 0.53128,1.17446 -0.207976,0.57945 -0.886469,0.83311 -1.445225,0.61925 -0.676728,-0.259 -0.970013,-1.05911 -0.707234,-1.71599 0.309676,-0.7741 1.231856,-1.10713 1.986756,-0.79521 0.871562,0.36013 1.244394,1.40467 0.883189,2.25752 -0.07502,0.17714 -0.178426,0.342 -0.304723,0.48707" /><path
       style="fill:none;fill-rule:evenodd;stroke:#000000;stroke-width:0.264583"
       id="path218"
       d="m 58.371662,216.0874 c 0.102122,-0.20042 0.320551,0.0388 0.333119,0.16973 0.03406,0.35489 -0.372632,0.54586 -0.672584,0.49651 -0.536543,-0.0883 -0.790776,-0.68762 -0.659891,-1.17544 0.19208,-0.71589 1.006204,-1.04109 1.678286,-0.82327 0.89578,0.29031 1.293594,1.32598 0.986663,2.18113 -0.386241,1.07613 -1.646298,1.54721 -2.683988,1.15005 -1.25678,-0.48101 -1.801453,-1.96692 -1.313435,-3.18683 0.575113,-1.43763 2.287733,-2.05611 3.68969,-1.47683 1.618614,0.66881 2.311017,2.60867 1.640207,4.19254 -0.139328,0.32898 -0.331361,0.63514 -0.565914,0.90456" /><path
       style="fill:none;fill-rule:evenodd;stroke:#000000;stroke-width:0.264583"
       id="path219"
       d="m 58.55875,153.97397 c 0.07448,-0.12712 0.2081,0.0377 0.21128,0.12379 0.0086,0.23335 -0.264638,0.34257 -0.458862,0.29877 -0.347422,-0.0784 -0.490599,-0.48001 -0.386258,-0.79394 0.153124,-0.46069 0.697944,-0.64201 1.129005,-0.47374 0.574536,0.22427 0.794812,0.91674 0.561236,1.46407 -0.293932,0.68877 -1.135934,0.94832 -1.799148,0.64873 -0.803241,-0.36284 -1.102223,-1.35535 -0.736214,-2.13422 0.431329,-0.91787 1.574907,-1.25638 2.469291,-0.8237 1.032601,0.49955 1.410716,1.79455 0.911191,2.80436 -0.103752,0.20974 -0.241087,0.40253 -0.404811,0.56968" /><path
       style="fill:none;fill-rule:evenodd;stroke:#000000;stroke-width:0.264583"
       id="path220"
       d="m 152.29018,128.34282 c 0.0783,-0.11548 0.19428,0.0485 0.19194,0.13007 -0.006,0.22102 -0.2713,0.30725 -0.45209,0.25381 -0.32339,-0.0956 -0.43374,-0.48398 -0.31567,-0.77411 0.17327,-0.42577 0.69928,-0.56327 1.09612,-0.37753 0.52892,0.24756 0.69406,0.91549 0.43939,1.41814 -0.32046,0.63252 -1.13212,0.82548 -1.74015,0.50126 -0.7364,-0.39268 -0.95728,-1.34899 -0.56312,-2.06217 0.4645,-0.84045 1.566,-1.08931 2.38418,-0.62499 0.94462,0.53608 1.2215,1.78311 0.68685,2.7062 -0.11104,0.19172 -0.25277,0.36536 -0.41783,0.51312" /></g><g
     id="layer9"
     style="display:none;opacity:0.759661"
     transform="translate(-11.719292,-121.67735)"><path
       style="opacity:0.875872;fill:url(#linearGradient153);fill-opacity:1;stroke:none;stroke-width:0.713632;stroke-linecap:butt;stroke-linejoin:round;stroke-dasharray:none;stroke-opacity:1;paint-order:markers stroke fill"
       d="m 100.14802,37.818879 -79.98188,144.343881 158.67801,0.0975 z"
       id="path152" /></g><g
     id="g225"
     style="display:none;opacity:1;fill:url(#linearGradient226)"
     transform="translate(-11.719292,-121.67735)"><path
       style="opacity:0.875872;fill:url(#linearGradient227);fill-opacity:1;stroke:none;stroke-width:0.944019;stroke-linecap:butt;stroke-linejoin:round;stroke-dasharray:none;stroke-opacity:1;paint-order:markers stroke fill"
       d="M 100.38385,37.818879 -8.9380263,222.61668 207.94831,222.74151 Z"
       id="path225" /></g></svg>
