<?xml version="1.0" encoding="UTF-8" standalone="no"?>
<!-- Created with Inkscape (http://www.inkscape.org/) -->

<svg
   width="199.77026mm"
   height="197.53844mm"
   viewBox="0 0 199.77026 197.53844"
   version="1.1"
   id="svg1"
   xmlns="http://www.w3.org/2000/svg"
   xmlns:svg="http://www.w3.org/2000/svg">
  <defs
     id="defs1" />
  <g
     id="layer1"
     transform="translate(10.453824,-46.006504)">
    <path
       id="path1"
       style="fill:#4a4a61;fill-opacity:1;stroke:#000000;stroke-width:3;stroke-linecap:round;stroke-linejoin:round;stroke-dasharray:none"
       d="m 111.18984,51.932445 c 53.75003,13.575515 86.79273,66.273165 73.80283,117.703225 -12.98991,51.42979 -67.09299,82.1165 -120.842648,68.54071 -14.665411,-3.70395 -28.340236,-10.53132 -40.002625,-19.97187 24.078737,5.88515 51.971407,1.83174 71.660411,-8.0389 3.338397,-1.67363 4.570232,-10.6018 8.199912,-11.09434 7.17491,-0.97363 10.95246,-4.52063 16.41494,-10.36699 1.46155,-1.56427 -1.78767,-4.19472 0.13016,-5.14697 1.13089,-0.56164 1.85095,-1.47133 1.74429,-2.21481 -0.19885,-1.38614 -0.7698,-2.27628 1.33612,-2.81598 2.03141,-0.52061 5.15068,-0.82668 7.39905,-2.95125 0.72975,-0.68956 -0.8324,-3.10415 -1.15225,-4.22799 -1.76761,-6.21066 -15.43712,-5.61757 -14.92,-11.73487 0.62518,-1.34534 0.32285,-2.63804 2.41161,-4.28152 1.31622,-1.03563 5.24573,-1.88808 6.85133,-3.01588 8.53383,-5.99431 19.6861,-12.94032 17.84157,-17.11577 -2.48059,-5.61529 -2.17352,-6.89863 -6.6718,-12.23317 -1.84426,-2.18712 -8.75827,-6.26285 -7.47156,-8.2068 4.10528,-6.20222 9.72657,-10.11645 7.49543,-14.825402 -5.16284,-10.896471 -12.647,-19.108182 -23.10428,-26.328906 -1.66912,-1.152525 -4.84305,-1.667066 -6.5646,-2.83566 -4.61681,-3.133892 -9.307621,-7.511493 -14.190304,-8.971694 -8.834976,-2.642163 -16.53027,-8.45157 -26.089252,-10.865876 -0.160688,-0.04071 -0.321447,-0.08107 -0.482306,-0.121088 15.206144,-3.095171 31.028731,-2.711009 46.203972,1.121801 z" />
    <path
       style="fill:none;fill-opacity:1;stroke:#000000;stroke-width:0.6;stroke-linecap:round;stroke-linejoin:bevel;stroke-dasharray:none;stroke-opacity:1"
       d="m 172.96806,142.24705 c 4.04781,0.12083 8.51851,-1.38955 8.51851,-1.38955"
       id="path38" />
    <path
       style="fill:#000000;fill-opacity:0.210264;stroke:none;stroke-width:2;stroke-linecap:round;stroke-linejoin:bevel;stroke-dasharray:none;stroke-opacity:1"
       d="m 68.522616,50.922044 c 28.365971,2.221431 55.364904,8.885727 68.693494,17.942332 13.32859,9.056605 32.12532,36.226414 32.80883,40.840164 0.68352,4.61374 11.27804,37.2517 1.36704,61.00392 -9.911,23.75223 -19.65113,31.4418 -27.68245,41.3528 -8.03133,9.911 -40.32753,20.67641 -46.650064,20.16377 -6.322536,-0.51264 -31.612679,-0.8544 -47.504456,-5.12638 -15.891779,-4.27199 -21.530799,-6.83518 -21.530799,-6.83518 l 7.176934,6.6643 20.163761,9.0566 23.581349,4.9555 25.119265,-0.34176 24.94838,-6.83517 17.42969,-9.74012 15.89178,-13.32859 12.13244,-15.37914 9.39836,-20.50552 3.58847,-16.06266 0.51264,-19.99288 -2.39231,-14.01211 -4.95551,-15.03738 -9.0566,-16.06266 -13.67035,-16.062658 -11.44892,-9.227484 -15.20826,-9.569244 -22.89783,-7.518691 -16.746173,-2.392312 -16.404418,0.34176 z"
       id="path39" />
    <path
       style="fill:none;fill-opacity:0.210264;stroke:#000000;stroke-width:2;stroke-linecap:round;stroke-linejoin:bevel;stroke-dasharray:none;stroke-opacity:1"
       d="m 136.66075,183.39626 c -2.99038,2.6059 -3.37486,2.69134 -3.37486,2.69134 l 0.12816,3.63119"
       id="path40" />
    <path
       style="fill:none;fill-opacity:0.210264;stroke:#000000;stroke-width:2;stroke-linecap:round;stroke-linejoin:bevel;stroke-dasharray:none;stroke-opacity:1"
       d="m 124.81733,165.59744 c 3.92697,-1.57079 5.98108,-1.26872 5.98108,-1.26872 0,0 0.36249,0.72498 0.0604,2.29577 -0.30208,1.57079 -1.44996,2.77909 -1.44996,2.77909"
       id="path41" />
    <path
       style="fill:none;fill-opacity:0.210264;stroke:#000000;stroke-width:2;stroke-linecap:round;stroke-linejoin:bevel;stroke-dasharray:none;stroke-opacity:1"
       d="m 131.64422,175.68674 c 5.79984,-3.32283 7.18938,-8.33727 7.18938,-8.33727"
       id="path42" />
    <path
       style="fill:none;fill-opacity:0.210264;stroke:#000000;stroke-width:2;stroke-linecap:round;stroke-linejoin:bevel;stroke-dasharray:none;stroke-opacity:1"
       d="m 149.0273,171.61998 c -6.05512,4.13503 0.46259,14.43783 -5.94288,17.43533"
       id="path43" />
    <path
       style="fill:none;fill-opacity:0.210264;stroke:#000000;stroke-width:1;stroke-linecap:round;stroke-linejoin:bevel;stroke-dasharray:none;stroke-opacity:1"
       d="m 173.45675,142.24928 c 3.33215,1.36704 6.39376,4.06616 6.39376,4.06616"
       id="path44" />
    <path
       style="fill:none;fill-opacity:0.210264;stroke:#000000;stroke-width:2.5;stroke-linecap:butt;stroke-linejoin:round;stroke-dasharray:none;stroke-opacity:1"
       d="m 144.77449,111.57903 c -0.68351,3.75935 -1.83392,5.13156 1.32735,5.04612 3.16127,-0.0854 10.3382,-2.47775 14.09754,-1.19615 3.75935,1.28159 7.68957,3.16126 8.62941,4.1011"
       id="path45" />
    <path
       style="fill:#000000;fill-opacity:0.232217;stroke:none;stroke-width:1.1156;stroke-linecap:round;stroke-linejoin:round;stroke-dasharray:none;stroke-opacity:1;paint-order:fill markers stroke"
       id="path64"
       d="m 153.7255,191.94952 a 6.2212062,4.07234 0 0 1 0.15419,4.4713 6.2212062,4.07234 0 0 1 -6.20835,1.86742 6.2212062,4.07234 0 0 1 -5.0827,-2.98885" />
    <path
       style="fill:#000000;fill-opacity:0.232217;stroke:none;stroke-width:1.01726;stroke-linecap:round;stroke-linejoin:round;stroke-dasharray:none;stroke-opacity:1;paint-order:fill markers stroke"
       id="path65"
       d="m -14.120945,239.98421 a 7.3919926,5.5950246 0 0 1 -3.765013,4.87522 7.3919926,5.5950246 0 0 1 -7.459721,-0.091 7.3919926,5.5950246 0 0 1 -3.555409,-4.96456 l 7.38815,0.18038 z"
       transform="rotate(-27.489602)" />
    <path
       style="fill:#000000;fill-opacity:0.232217;stroke:none;stroke-width:2.36061;stroke-linecap:round;stroke-linejoin:round;stroke-dasharray:none;stroke-opacity:1;paint-order:fill markers stroke"
       id="path66"
       d="m 137.7786,73.371636 a 5.2254715,4.9351525 0 0 1 2.65648,6.189901 5.2254715,4.9351525 0 0 1 -6.30704,3.02124 l 1.41316,-4.751257 z" />
    <path
       style="fill:#000000;fill-opacity:0.232217;stroke:none;stroke-width:1.95729;stroke-linecap:round;stroke-linejoin:round;stroke-dasharray:none;stroke-opacity:1;paint-order:fill markers stroke"
       id="path67"
       d="m 129.82333,176.1664 a 8.6893492,8.9755535 0 0 1 6.46931,8.30545 8.6893492,8.9755535 0 0 1 -5.77681,8.83339 8.6893492,8.9755535 0 0 1 -9.87444,-3.09863 l 6.96946,-5.36048 z"
       transform="rotate(-10.425273)" />
    <path
       style="fill:#000000;fill-opacity:0.232217;stroke:none;stroke-width:2.64183;stroke-linecap:round;stroke-linejoin:round;stroke-dasharray:none;stroke-opacity:1;paint-order:fill markers stroke"
       d="m 122.10242,208.98984 c 3.12185,5.28199 9.05336,6.26013 16.2336,5.18417"
       id="path68" />
    <path
       style="fill:#000000;fill-opacity:0.232217;stroke:none;stroke-width:2;stroke-linecap:round;stroke-linejoin:round;stroke-dasharray:none;stroke-opacity:1;paint-order:fill markers stroke"
       d="m 145.01686,91.936773 c 8.32544,5.986836 5.23848,11.225317 5.23848,11.225317"
       id="path69" />
    <path
       style="fill:#000000;fill-opacity:0.232217;stroke:none;stroke-width:2;stroke-linecap:round;stroke-linejoin:round;stroke-dasharray:none;stroke-opacity:1;paint-order:fill markers stroke"
       d="m 140.9924,144.28981 c 2.64583,6.35 -6.63936,7.31868 1.99193,6.15878 3.53032,-0.47442 7.6665,0.5341 3.1202,-2.61431"
       id="path70" />
    <path
       style="fill:#000000;fill-opacity:0.232217;stroke:none;stroke-width:2;stroke-linecap:round;stroke-linejoin:round;stroke-dasharray:none;stroke-opacity:1;paint-order:fill markers stroke"
       d="m 122.36701,154.15494 c 3.30729,1.98438 5.35781,2.71198 5.35781,2.71198"
       id="path71" />
    <path
       style="fill:#000000;fill-opacity:0.232217;stroke:none;stroke-width:2;stroke-linecap:round;stroke-linejoin:round;stroke-dasharray:none;stroke-opacity:1;paint-order:fill markers stroke"
       d="m 126.86492,151.83984 c 2.11667,1.5875 4.36563,2.64583 4.36563,2.64583"
       id="path72" />
    <path
       style="fill:#000000;fill-opacity:0.232217;stroke:none;stroke-width:2;stroke-linecap:round;stroke-linejoin:round;stroke-dasharray:none;stroke-opacity:1;paint-order:fill markers stroke"
       d="m 130.70138,148.99557 c 2.64584,1.5875 4.63021,2.71197 4.63021,2.71197"
       id="path73" />
    <path
       style="fill:#000000;fill-opacity:0.232217;stroke:none;stroke-width:2;stroke-linecap:round;stroke-linejoin:round;stroke-dasharray:none;stroke-opacity:1;paint-order:fill markers stroke"
       d="m 133.01649,147.07734 c 3.9026,1.38906 7.01145,1.12448 7.01145,1.12448"
       id="path74" />
    <path
       style="fill:#000000;fill-opacity:0.232217;stroke:none;stroke-width:2;stroke-linecap:round;stroke-linejoin:round;stroke-dasharray:none;stroke-opacity:1;paint-order:fill markers stroke"
       d="m 136.12534,143.77004 c 3.57188,1.78594 5.95313,1.85209 5.95313,1.85209"
       id="path75" />
    <path
       style="fill:#000000;fill-opacity:0.232217;stroke:none;stroke-width:2;stroke-linecap:round;stroke-linejoin:round;stroke-dasharray:none;stroke-opacity:1;paint-order:fill markers stroke"
       d="m 140.02794,141.12421 c 3.63803,1.5875 5.02709,1.65365 5.42396,1.5875"
       id="path76" />
    <path
       style="fill:#000000;fill-opacity:0.232217;stroke:none;stroke-width:2;stroke-linecap:round;stroke-linejoin:round;stroke-dasharray:none;stroke-opacity:1;paint-order:fill markers stroke"
       d="m 129.97378,149.32629 c 3.175,1.91823 7.80521,1.78594 7.80521,1.78594"
       id="path77" />
    <path
       style="fill:#000000;fill-opacity:0.232217;stroke:none;stroke-width:2;stroke-linecap:round;stroke-linejoin:round;stroke-dasharray:none;stroke-opacity:1;paint-order:fill markers stroke"
       d="m 124.9467,152.30286 c 1.71979,2.3151 6.2177,3.175 6.2177,3.175"
       id="path78" />
    <path
       style="fill:#000000;fill-opacity:0.232217;stroke:none;stroke-width:2;stroke-linecap:round;stroke-linejoin:round;stroke-dasharray:none;stroke-opacity:1;paint-order:fill markers stroke"
       d="m 128.32013,150.12004 c 1.91823,2.38125 5.6224,3.24115 5.6224,3.24115"
       id="path79" />
    <path
       style="fill:#000000;fill-opacity:0.232217;stroke:none;stroke-width:2;stroke-linecap:round;stroke-linejoin:round;stroke-dasharray:none;stroke-opacity:1;paint-order:fill markers stroke"
       d="m 120.97795,154.75025 c 2.64583,2.4474 6.41614,2.77813 6.41614,2.77813"
       id="path80" />
    <path
       style="fill:none;fill-opacity:0.232217;stroke:#000000;stroke-width:1;stroke-linecap:round;stroke-linejoin:round;stroke-dasharray:none;stroke-opacity:1;paint-order:fill markers stroke"
       d="m 120.64722,153.9565 c 3.63802,1.98438 8.53281,3.57188 8.53281,3.57188"
       id="path81" />
    <path
       style="fill:none;fill-opacity:0.232217;stroke:#000000;stroke-width:1;stroke-linecap:round;stroke-linejoin:round;stroke-dasharray:none;stroke-opacity:1;paint-order:fill markers stroke"
       d="m 124.28524,153.36119 5.62239,2.11667"
       id="path82" />
    <path
       style="fill:none;fill-opacity:0.232217;stroke:#000000;stroke-width:1;stroke-linecap:round;stroke-linejoin:round;stroke-dasharray:none;stroke-opacity:1;paint-order:fill markers stroke"
       d="m 127.92326,151.24452 2.64583,1.19063"
       id="path83" />
    <path
       style="fill:none;fill-opacity:0.232217;stroke:#000000;stroke-width:1;stroke-linecap:round;stroke-linejoin:round;stroke-dasharray:none;stroke-opacity:1;paint-order:fill markers stroke"
       d="m 126.13732,152.10442 3.10885,1.19062"
       id="path84" />
    <path
       style="fill:none;fill-opacity:0.232217;stroke:#000000;stroke-width:1;stroke-linecap:round;stroke-linejoin:round;stroke-dasharray:none;stroke-opacity:1;paint-order:fill markers stroke"
       d="m 130.10607,149.26015 3.24115,0.92604"
       id="path85" />
    <path
       style="fill:none;fill-opacity:0.232217;stroke:#000000;stroke-width:1;stroke-linecap:round;stroke-linejoin:round;stroke-dasharray:none;stroke-opacity:1;paint-order:fill markers stroke"
       d="m 133.14878,147.07734 3.04271,1.32291"
       id="path86" />
    <path
       style="fill:none;fill-opacity:0.232217;stroke:#000000;stroke-width:1;stroke-linecap:round;stroke-linejoin:round;stroke-dasharray:none;stroke-opacity:1;paint-order:fill markers stroke"
       d="m 136.72065,145.35754 3.24115,0.8599"
       id="path87" />
    <path
       style="fill:none;fill-opacity:0.232217;stroke:#000000;stroke-width:1;stroke-linecap:round;stroke-linejoin:round;stroke-dasharray:none;stroke-opacity:1;paint-order:fill markers stroke"
       d="m 138.30815,142.77786 3.04271,0.99218"
       id="path88" />
    <path
       style="fill:none;fill-opacity:0.232217;stroke:#000000;stroke-width:1;stroke-linecap:round;stroke-linejoin:round;stroke-dasharray:none;stroke-opacity:1;paint-order:fill markers stroke"
       d="m 140.35867,140.5289 3.10886,1.32292"
       id="path89" />
    <path
       style="fill:none;fill-opacity:0.232217;stroke:#000000;stroke-width:1;stroke-linecap:round;stroke-linejoin:round;stroke-dasharray:none;stroke-opacity:1;paint-order:fill markers stroke"
       d="m 124.74826,55.399212 c -0.52917,3.175 -2.11667,6.614583 -2.11667,6.614583"
       id="path90" />
    <path
       style="fill:none;fill-opacity:0.232217;stroke:#000000;stroke-width:1;stroke-linecap:round;stroke-linejoin:round;stroke-dasharray:none;stroke-opacity:1;paint-order:fill markers stroke"
       d="m 131.36284,58.309629 c -0.52917,3.175 -1.71979,6.085416 -1.71979,6.085416"
       id="path91" />
    <path
       style="fill:none;fill-opacity:0.232217;stroke:#000000;stroke-width:1;stroke-linecap:round;stroke-linejoin:round;stroke-dasharray:none;stroke-opacity:1;paint-order:fill markers stroke"
       d="m 139.82951,62.146087 c -2.24896,4.7625 -3.57188,7.672917 -3.57188,7.672917"
       id="path92" />
    <path
       style="fill:none;fill-opacity:0.232217;stroke:#000000;stroke-width:1;stroke-linecap:round;stroke-linejoin:round;stroke-dasharray:none;stroke-opacity:1;paint-order:fill markers stroke"
       d="m 134.67013,60.955462 c -0.13229,3.307292 -1.19062,5.291667 -1.19062,5.291667"
       id="path93" />
    <path
       style="fill:none;fill-opacity:0.232217;stroke:#000000;stroke-width:1;stroke-linecap:round;stroke-linejoin:round;stroke-dasharray:none;stroke-opacity:1;paint-order:fill markers stroke"
       d="m 143.93055,66.37942 c -1.98438,3.439584 -4.10104,5.820834 -4.10104,5.820834"
       id="path94" />
    <path
       style="fill:none;fill-opacity:0.232217;stroke:#000000;stroke-width:1;stroke-linecap:round;stroke-linejoin:round;stroke-dasharray:none;stroke-opacity:1;paint-order:fill markers stroke"
       d="m 142.34305,74.052337 c 5.55625,-3.439583 6.61458,-4.101042 6.61458,-4.101042"
       id="path95" />
    <path
       style="fill:none;fill-opacity:0.232217;stroke:#000000;stroke-width:1;stroke-linecap:round;stroke-linejoin:round;stroke-dasharray:none;stroke-opacity:1;paint-order:fill markers stroke"
       d="m 146.97326,77.227337 7.40833,-3.307292"
       id="path96" />
    <path
       style="fill:none;fill-opacity:0.232217;stroke:#000000;stroke-width:1;stroke-linecap:round;stroke-linejoin:round;stroke-dasharray:none;stroke-opacity:1;paint-order:fill markers stroke"
       d="m 152.52951,80.270045 4.63021,-2.116666"
       id="path97" />
    <path
       style="fill:none;fill-opacity:0.232217;stroke:#000000;stroke-width:1;stroke-linecap:round;stroke-linejoin:round;stroke-dasharray:none;stroke-opacity:1;paint-order:fill markers stroke"
       d="m 155.43992,83.445045 c 1.05834,-0.132291 5.15938,-1.190625 5.15938,-1.190625"
       id="path98" />
    <path
       style="fill:none;fill-opacity:0.232217;stroke:#000000;stroke-width:1;stroke-linecap:round;stroke-linejoin:round;stroke-dasharray:none;stroke-opacity:1;paint-order:fill markers stroke"
       d="m 157.82117,86.355462 5.95313,-0.79375 1.45521,-0.132292"
       id="path99" />
    <path
       style="fill:none;fill-opacity:0.232217;stroke:#000000;stroke-width:1;stroke-linecap:round;stroke-linejoin:round;stroke-dasharray:none;stroke-opacity:1;paint-order:fill markers stroke"
       d="m 120.25034,55.796087 c 0.52917,0.661459 5.82083,5.291667 5.82083,5.291667"
       id="path100" />
    <path
       style="fill:none;fill-opacity:0.232217;stroke:#000000;stroke-width:1;stroke-linecap:round;stroke-linejoin:round;stroke-dasharray:none;stroke-opacity:1;paint-order:fill markers stroke"
       d="m 128.18784,58.838796 3.57188,5.423958"
       id="path101" />
    <path
       style="fill:none;fill-opacity:0.232217;stroke:#000000;stroke-width:1;stroke-linecap:round;stroke-linejoin:round;stroke-dasharray:none;stroke-opacity:1;paint-order:fill markers stroke"
       d="m 133.47951,61.484629 2.24896,4.101041"
       id="path102" />
    <path
       style="fill:none;fill-opacity:0.232217;stroke:#000000;stroke-width:1;stroke-linecap:round;stroke-linejoin:round;stroke-dasharray:none;stroke-opacity:1;paint-order:fill markers stroke"
       d="m 136.91909,62.675254 2.11667,5.291666"
       id="path103" />
    <path
       style="fill:none;fill-opacity:0.232217;stroke:#000000;stroke-width:1;stroke-linecap:round;stroke-linejoin:round;stroke-dasharray:none;stroke-opacity:1;paint-order:fill markers stroke"
       d="m 141.5493,65.056504 c 0,0.529166 1.71979,6.482291 1.71979,6.482291"
       id="path104" />
    <path
       style="fill:none;fill-opacity:0.232217;stroke:#000000;stroke-width:1;stroke-linecap:round;stroke-linejoin:round;stroke-dasharray:none;stroke-opacity:1;paint-order:fill markers stroke"
       d="m 146.17951,68.496087 0.79375,5.423958"
       id="path105" />
    <path
       style="fill:none;fill-opacity:0.232217;stroke:#000000;stroke-width:1;stroke-linecap:round;stroke-linejoin:round;stroke-dasharray:none;stroke-opacity:1;paint-order:fill markers stroke"
       d="m 150.14826,72.067962 0.39687,5.55625"
       id="path106" />
    <path
       style="fill:none;fill-opacity:0.232217;stroke:#000000;stroke-width:1;stroke-linecap:round;stroke-linejoin:round;stroke-dasharray:none;stroke-opacity:1;paint-order:fill markers stroke"
       d="m 154.64617,74.978379 -0.26458,6.35"
       id="path107" />
    <path
       style="fill:none;fill-opacity:0.232217;stroke:#000000;stroke-width:1;stroke-linecap:round;stroke-linejoin:round;stroke-dasharray:none;stroke-opacity:1;paint-order:fill markers stroke"
       d="m 158.61492,78.947129 -0.92604,5.423958"
       id="path108" />
    <path
       style="fill:none;fill-opacity:0.232217;stroke:#000000;stroke-width:1;stroke-linecap:round;stroke-linejoin:round;stroke-dasharray:none;stroke-opacity:1;paint-order:fill markers stroke"
       d="m 162.31909,82.915879 -1.45521,5.291666"
       id="path109" />
    <path
       style="fill:none;fill-opacity:0.232217;stroke:#000000;stroke-width:1;stroke-linecap:round;stroke-linejoin:round;stroke-dasharray:none;stroke-opacity:1;paint-order:fill markers stroke"
       d="m 74.765064,235.80796 c 1.777341,3.64823 1.683798,3.92886 4.022408,4.49012"
       id="path110" />
    <path
       style="fill:none;fill-opacity:0.232217;stroke:#000000;stroke-width:1;stroke-linecap:round;stroke-linejoin:round;stroke-dasharray:none;stroke-opacity:1;paint-order:fill markers stroke"
       d="m 84.774307,236.08859 c -1.309621,2.43215 1.403165,4.39658 1.403165,4.39658"
       id="path111" />
    <path
       style="fill:none;fill-opacity:0.232217;stroke:#000000;stroke-width:1;stroke-linecap:round;stroke-linejoin:round;stroke-dasharray:none;stroke-opacity:1;paint-order:fill markers stroke"
       d="m 90.854689,236.36922 c -1.122532,1.59026 0.654812,3.92886 0.654812,3.92886"
       id="path112" />
    <path
       style="fill:none;fill-opacity:0.232217;stroke:#000000;stroke-width:1;stroke-linecap:round;stroke-linejoin:round;stroke-dasharray:none;stroke-opacity:1;paint-order:fill markers stroke"
       d="m 96.280261,236.55631 c -0.935443,1.59026 0.748355,3.92886 0.748355,3.92886"
       id="path113" />
    <path
       style="fill:none;fill-opacity:0.232217;stroke:#000000;stroke-width:1;stroke-linecap:round;stroke-linejoin:round;stroke-dasharray:none;stroke-opacity:1;paint-order:fill markers stroke"
       d="m 101.33165,236.55631 c -1.21607,2.05798 0,3.18051 0,3.18051"
       id="path114" />
    <path
       style="fill:none;fill-opacity:0.232217;stroke:#000000;stroke-width:1;stroke-linecap:round;stroke-linejoin:round;stroke-dasharray:none;stroke-opacity:1;paint-order:fill markers stroke"
       d="m 79.910003,236.55631 c -0.467722,1.77734 1.683798,3.83532 1.683798,3.83532"
       id="path115" />
    <path
       style="fill:none;fill-opacity:0.232217;stroke:#000000;stroke-width:1;stroke-linecap:round;stroke-linejoin:round;stroke-dasharray:none;stroke-opacity:1;paint-order:fill markers stroke"
       d="m 104.41862,236.27568 c 0.18709,1.6838 3.46114,2.61924 3.46114,2.61924"
       id="path116" />
    <path
       style="fill:none;fill-opacity:0.232217;stroke:#000000;stroke-width:1;stroke-linecap:round;stroke-linejoin:round;stroke-dasharray:none;stroke-opacity:1;paint-order:fill markers stroke"
       d="m 110.87318,234.68542 c 0.8419,1.96444 3.64823,2.61924 3.64823,2.61924"
       id="path117" />
    <path
       style="fill:none;fill-opacity:0.232217;stroke:#000000;stroke-width:1;stroke-linecap:round;stroke-linejoin:round;stroke-dasharray:none;stroke-opacity:1;paint-order:fill markers stroke"
       d="m 115.26976,233.74998 c 2.15152,1.49671 5.42557,1.6838 5.42557,1.6838"
       id="path118" />
    <path
       style="fill:none;fill-opacity:0.232217;stroke:#000000;stroke-width:1;stroke-linecap:round;stroke-linejoin:round;stroke-dasharray:none;stroke-opacity:1;paint-order:fill markers stroke"
       d="m 151.28433,202.41263 c 3.18051,3.92886 3.27405,4.39658 3.08696,5.05139"
       id="path119" />
    <path
       style="fill:none;fill-opacity:0.232217;stroke:#000000;stroke-width:1;stroke-linecap:round;stroke-linejoin:round;stroke-dasharray:none;stroke-opacity:1;paint-order:fill markers stroke"
       d="m 156.14863,203.44162 c -2.99341,1.49671 -5.23848,3.46114 -5.23848,3.46114"
       id="path120" />
    <path
       style="fill:none;fill-opacity:0.232217;stroke:#000000;stroke-width:1;stroke-linecap:round;stroke-linejoin:round;stroke-dasharray:none;stroke-opacity:1;paint-order:fill markers stroke"
       d="m 149.88116,144.92964 c -0.0935,1.02898 -0.51449,0.14031 -0.0935,1.07576"
       id="path121" />
    <path
       style="fill:none;fill-opacity:0.232217;stroke:#000000;stroke-width:1;stroke-linecap:round;stroke-linejoin:round;stroke-dasharray:none;stroke-opacity:1;paint-order:fill markers stroke"
       d="m 151.28433,145.21027 c 0.0935,0.70158 -0.32741,0.74835 0.28063,1.12253"
       id="path122" />
    <path
       style="fill:none;fill-opacity:0.232217;stroke:#000000;stroke-width:1;stroke-linecap:round;stroke-linejoin:round;stroke-dasharray:none;stroke-opacity:1;paint-order:fill markers stroke"
       d="m 153.90357,145.77154 c 0.46772,0.65481 0.0935,0.70158 0.8419,0.93544"
       id="path123" />
    <path
       style="fill:none;fill-opacity:0.232217;stroke:#000000;stroke-width:1;stroke-linecap:round;stroke-linejoin:round;stroke-dasharray:none;stroke-opacity:1;paint-order:fill markers stroke"
       d="m 157.08408,145.81831 c 0.46772,0.74835 0.14031,0.93544 0.88867,1.12253"
       id="path124" />
    <path
       style="fill:none;fill-opacity:0.232217;stroke:#000000;stroke-width:1;stroke-linecap:round;stroke-linejoin:round;stroke-dasharray:none;stroke-opacity:1;paint-order:fill markers stroke"
       d="m 160.4049,145.67799 c 0.60804,0.56127 -0.14031,0.74836 1.07576,0.98222"
       id="path125" />
    <path
       style="fill:none;fill-opacity:0.232217;stroke:#000000;stroke-width:1;stroke-linecap:round;stroke-linejoin:round;stroke-dasharray:none;stroke-opacity:1;paint-order:fill markers stroke"
       d="m 163.72572,145.4909 c 1.07577,0.74836 0.56127,0.74836 1.26285,0.8419"
       id="path126" />
    <path
       style="fill:none;fill-opacity:0.232217;stroke:#000000;stroke-width:1;stroke-linecap:round;stroke-linejoin:round;stroke-dasharray:none;stroke-opacity:1;paint-order:fill markers stroke"
       d="m 166.48528,144.69578 c 0.8419,0.60803 0.8419,0.65481 1.35639,0.70158"
       id="path127" />
    <path
       style="fill:none;fill-opacity:0.232217;stroke:#000000;stroke-width:1;stroke-linecap:round;stroke-linejoin:round;stroke-dasharray:none;stroke-opacity:1;paint-order:fill markers stroke"
       d="m 152.64072,134.49944 c 0.37418,-0.51449 0.0936,-0.42095 0.70158,-0.65481"
       id="path128" />
    <path
       style="fill:none;fill-opacity:0.232217;stroke:#000000;stroke-width:1;stroke-linecap:round;stroke-linejoin:round;stroke-dasharray:none;stroke-opacity:1;paint-order:fill markers stroke"
       d="m 155.0261,134.92039 c 0.8419,-0.42095 0.42095,-0.56126 1.16931,-0.42095"
       id="path129" />
    <path
       style="fill:none;fill-opacity:0.232217;stroke:#000000;stroke-width:1;stroke-linecap:round;stroke-linejoin:round;stroke-dasharray:none;stroke-opacity:1;paint-order:fill markers stroke"
       d="m 157.8792,136.0897 c 1.12254,-0.88867 1.07576,-0.60804 1.63703,-0.60804"
       id="path130" />
    <path
       style="fill:none;fill-opacity:0.232217;stroke:#000000;stroke-width:1;stroke-linecap:round;stroke-linejoin:round;stroke-dasharray:none;stroke-opacity:1;paint-order:fill markers stroke"
       d="m 143.42661,148.06337 c 1.21607,2.15152 3.64822,0.74836 1.02898,2.89987"
       id="path131" />
    <path
       style="fill:none;fill-opacity:0.232217;stroke:#000000;stroke-width:1;stroke-linecap:round;stroke-linejoin:round;stroke-dasharray:none;stroke-opacity:1;paint-order:fill markers stroke"
       d="m 150.38107,150.24323 c 2.08944,1.23779 3.12357,3.16123 6.69116,2.85818"
       id="path132" />
    <path
       style="fill:none;fill-opacity:0.232217;stroke:#000000;stroke-width:1;stroke-linecap:round;stroke-linejoin:round;stroke-dasharray:none;stroke-opacity:1;paint-order:fill markers stroke"
       d="m 103.57672,209.42845 c 3.55468,0.18709 1.30962,1.30962 4.8643,0.0935"
       id="path133" />
    <path
       style="fill:none;fill-opacity:0.232217;stroke:#000000;stroke-width:1;stroke-linecap:round;stroke-linejoin:round;stroke-dasharray:none;stroke-opacity:1;paint-order:fill markers stroke"
       d="m 122.51945,192.96465 c 2.10474,1.1693 0.60803,1.44994 2.71278,1.26285 2.10475,-0.18709 3.32083,-0.42095 4.39658,-0.79513"
       id="path134" />
  </g>
  <g
     id="layer2"
     transform="translate(10.453824,-46.006504)">
    <path
       style="fill:#f8f8ff;fill-opacity:0.742301;stroke:#000000;stroke-width:0.804133;stroke-linecap:round;stroke-linejoin:round"
       d="m 173.59736,140.99188 c 2.01708,1.44036 -5.90449,3.71046 -10.30553,4.52367 -3.78318,0.69904 -12.58391,0.53405 -14.20377,-1.19421 -0.84489,-0.90143 -2.35799,-3.29093 -1.48382,-6.81935 0.70385,-2.84093 3.00585,-4.36098 4.61,-4.31308 6.66176,0.19891 12.85902,1.71607 21.38312,7.80297 z"
       id="path2" />
    <path
       style="fill:none;fill-opacity:1;stroke:#000000;stroke-width:0.649999;stroke-linecap:round;stroke-linejoin:round"
       d="m 155.80895,135.3617 c 1.73437,1.84987 0.0111,5.29717 -0.47392,5.87351 -2.56936,3.05311 -6.4116,2.86878 -6.4116,2.86878"
       id="path3" />
    <path
       style="fill:#000000;fill-opacity:1;stroke:none;stroke-width:0.649999;stroke-linecap:round;stroke-linejoin:round;stroke-opacity:1"
       d="m 157.15483,135.35502 c -0.9414,2.62131 -0.80423,4.7112 -1.99296,5.8925 -2.11969,2.10644 -5.94534,2.88427 -5.94534,2.88427 0,0 -1.1923,-0.57178 -1.46998,-2.83593 -0.27768,-2.26415 -0.2136,-4.37879 0.83304,-5.85262 1.04663,-1.47384 2.41367,-2.28551 3.71662,-2.26415 0.59627,0.01 2.38936,-0.26892 3.52004,0.19596 1.34007,0.55098 1.33858,1.97997 1.33858,1.97997 z"
       id="path4" />
    <path
       style="fill:#ffffff;fill-opacity:0.857732;stroke:none;stroke-width:0.369381;stroke-linecap:round;stroke-linejoin:round"
       id="path5"
       transform="matrix(0.92658944,0.37607448,-0.40347427,0.91499099,0,0)"
       d="m 193.68546,69.561897 a 0.7560004,0.84010077 0 0 1 -0.74645,0.840034 0.7560004,0.84010077 0 0 1 -0.76531,-0.818806 0.7560004,0.84010077 0 0 1 0.72711,-0.860725 0.7560004,0.84010077 0 0 1 0.78368,0.797056" />
    <path
       style="fill:none;fill-opacity:0.552106;stroke:#000000;stroke-width:0.649999;stroke-linecap:round;stroke-linejoin:round;stroke-opacity:1"
       d="m 153.58372,134.69608 c 1.07657,1.4346 1.32064,3.66057 -0.51115,5.35739 -2.51535,2.33002 -5.25126,1.58415 -5.25126,1.58415"
       id="path6" />
    <path
       style="fill:#4a4a61;fill-opacity:1;stroke:#000000;stroke-width:1;stroke-linecap:round;stroke-linejoin:round;stroke-dasharray:none;stroke-opacity:1"
       d="m 150.01037,134.12123 c 10.70659,1.96375 23.06816,8.54872 23.46085,8.0352 0.3927,-0.51353 0.77443,-0.65299 -0.46259,-1.53844 -0.98859,-0.70763 -6.58716,-4.27238 -11.02206,-5.59723 -4.95705,-1.48084 -8.31324,-1.70628 -9.85382,-1.73649 -1.54058,-0.0302 -2.12238,0.83696 -2.12238,0.83696 z"
       id="path9" />
    <path
       style="fill:none;fill-opacity:0.857732;stroke:#000000;stroke-width:0.649999;stroke-linecap:round;stroke-linejoin:round;stroke-opacity:1"
       d="m 154.5415,136.67377 c 0.8307,0.10572 2.00879,0.24166 2.00879,0.24166"
       id="path11" />
    <path
       style="fill:none;fill-opacity:0.857732;stroke:#000000;stroke-width:0.649999;stroke-linecap:round;stroke-linejoin:round;stroke-opacity:1"
       d="m 154.29984,138.53153 c 0.438,0.24166 1.57078,0.89112 1.57078,0.89112"
       id="path12" />
    <path
       style="fill:none;fill-opacity:0.857732;stroke:#000000;stroke-width:0.649999;stroke-linecap:round;stroke-linejoin:round;stroke-opacity:1"
       d="m 153.58996,139.75493 c 0.90622,0.60415 1.69162,1.16299 1.69162,1.16299"
       id="path13" />
    <path
       style="fill:none;fill-opacity:0.857732;stroke:#000000;stroke-width:0.649999;stroke-linecap:round;stroke-linejoin:round;stroke-opacity:1"
       d="m 152.47228,140.8273 c 0.54374,0.74008 1.28382,1.66141 1.28382,1.66141"
       id="path14" />
    <path
       style="fill:none;fill-opacity:0.857732;stroke:#000000;stroke-width:0.649999;stroke-linecap:round;stroke-linejoin:round;stroke-opacity:1"
       d="m 151.09784,141.47676 c 0.33229,0.95153 0.64946,2.05411 0.64946,2.05411"
       id="path15" />
    <path
       style="fill:none;fill-opacity:0.857732;stroke:#000000;stroke-width:0.649999;stroke-linecap:round;stroke-linejoin:round;stroke-opacity:1"
       d="m 149.66299,141.97518 c 0.0151,0.89112 0,1.91818 0,1.91818"
       id="path16" />
    <path
       style="fill:#000000;fill-opacity:1;stroke:none;stroke-width:0.891027;stroke-linecap:round;stroke-linejoin:round;stroke-opacity:1"
       d="m 149.09872,126.77176 c 0.63872,1.28381 6.02139,-0.91013 11.82352,1.25851 4.55927,1.70408 9.52433,5.2866 11.01513,6.12164 1.23843,0.69366 4.71164,2.44837 2.40439,-0.37919 -1.92062,-2.35374 -9.82656,-8.28089 -14.41727,-9.48074 -0.66219,-0.17306 -7.40989,-0.42357 -9.86666,1.21404 -0.85497,0.56989 -0.95911,1.26574 -0.95911,1.26574 z"
       id="path17" />
    <path
       style="fill:none;fill-opacity:1;stroke:none;stroke-width:0.649999;stroke-linecap:round;stroke-linejoin:round;stroke-opacity:1"
       d="m 151.94365,126.2975 c 1.32913,1.11767 1.75204,2.14473 1.75204,2.14473"
       id="path18" />
    <path
       style="fill:#000000;fill-opacity:1;stroke:none;stroke-width:0.649999;stroke-linecap:round;stroke-linejoin:round;stroke-opacity:1"
       d="m 149.49685,144.15012 c 5.07485,0.87602 9.99168,1.0218 12.35486,0.66457 2.59784,-0.39271 9.66639,-2.77909 9.99868,-2.99055 0.33228,-0.21145 0.8156,0.66457 0.8156,0.66457 0,0 -5.6488,2.17494 -5.98108,2.26556 -0.33228,0.0906 -6.0415,0.96664 -6.0415,0.96664 l -5.40714,0.0604 -4.50091,-0.69477 z"
       id="path33" />
    <path
       style="fill:none;fill-opacity:1;stroke:none;stroke-width:0.649999;stroke-linecap:round;stroke-linejoin:round;stroke-opacity:1"
       d="m 123.97152,182.69487 c 5.86025,1.44996 7.6727,3.92697 7.6727,3.92697"
       id="path34" />
    <path
       style="fill:none;fill-opacity:1;stroke:#000000;stroke-width:2;stroke-linecap:round;stroke-linejoin:round;stroke-dasharray:none;stroke-opacity:1"
       d="m 122.17873,182.47777 c 4.07975,1.00393 10.93628,3.43895 10.93628,3.43895"
       id="path35" />
    <path
       style="fill:none;fill-opacity:1;stroke:#000000;stroke-width:2;stroke-linecap:round;stroke-linejoin:round;stroke-dasharray:none;stroke-opacity:1"
       d="m 123.86284,178.31504 c 0.26726,0.98412 2.4247,0.72458 3.79502,2.55678 1.92814,2.57805 5.52694,4.99484 5.52694,4.99484"
       id="path36" />
    <path
       style="fill:none;fill-opacity:1;stroke:#000000;stroke-width:2;stroke-linecap:round;stroke-linejoin:round;stroke-dasharray:none;stroke-opacity:1"
       d="m 120.2148,186.21915 c 1.50035,0.50012 3.14271,0.6691 4.66363,-0.005 4.0084,-1.77539 8.21575,-0.1365 8.21575,-0.1365"
       id="path37" />
  </g>
  <g
     id="layer3"
     transform="translate(10.453824,-46.006504)">
    <path
       style="fill:none;fill-opacity:0.210264;stroke:#000000;stroke-width:2.25099;stroke-linecap:butt;stroke-linejoin:round;stroke-dasharray:none;stroke-opacity:1"
       id="path46"
       d="M 187.42439,144.77628 A 98.37606,97.643021 0 0 1 90.291288,242.4115 98.37606,97.643021 0 0 1 -9.2963267,147.24348 98.37606,97.643021 0 0 1 85.320228,47.203395 98.37606,97.643021 0 0 1 187.29877,139.84344" />
    <path
       style="fill:none;fill-opacity:0.210264;stroke:#000000;stroke-width:2;stroke-linecap:butt;stroke-linejoin:round;stroke-dasharray:none;stroke-opacity:1"
       d="m 14.5298,208.28061 c 1.86419,2.48991 5.555493,7.00268 7.515606,8.77189 4.372672,3.94681 7.014194,4.61003 7.014194,4.61003"
       id="path47" />
    <path
       style="fill:none;fill-opacity:0.210264;stroke:#000000;stroke-width:2;stroke-linecap:round;stroke-linejoin:round;stroke-dasharray:none;stroke-opacity:1;paint-order:fill markers stroke"
       d="m 18.607811,203.47762 c 30.449145,0 66.456468,0 66.456468,0"
       id="path48" />
    <path
       style="fill:none;fill-opacity:0.210264;stroke:#000000;stroke-width:2;stroke-linecap:round;stroke-linejoin:round;stroke-dasharray:none;stroke-opacity:1;paint-order:fill markers stroke"
       d="M 11.358014,190.71879 H 31.174126"
       id="path49" />
    <path
       style="fill:none;fill-opacity:0.210264;stroke:#000000;stroke-width:2;stroke-linecap:round;stroke-linejoin:round;stroke-dasharray:none;stroke-opacity:1;paint-order:fill markers stroke"
       d="M 42.207198,190.71879 H 100.90425"
       id="path50" />
    <path
       style="fill:none;fill-opacity:0.210264;stroke:#000000;stroke-width:2;stroke-linecap:round;stroke-linejoin:round;stroke-dasharray:none;stroke-opacity:1;paint-order:fill markers stroke"
       d="M 3.2467076,177.31504 H 58.098975"
       id="path51" />
    <path
       style="fill:none;fill-opacity:0.210264;stroke:#000000;stroke-width:2;stroke-linecap:round;stroke-linejoin:round;stroke-dasharray:none;stroke-opacity:1;paint-order:fill markers stroke"
       d="M 68.009978,177.31504 H 111.41333"
       id="path52" />
    <path
       style="fill:none;fill-opacity:0.210264;stroke:#000000;stroke-width:2;stroke-linecap:round;stroke-linejoin:round;stroke-dasharray:none;stroke-opacity:1;paint-order:fill markers stroke"
       d="m 41.207197,144.77572 74.990753,0.12996"
       id="path53" />
    <path
       style="fill:none;fill-opacity:0.210264;stroke:#000000;stroke-width:2;stroke-linecap:round;stroke-linejoin:round;stroke-dasharray:none;stroke-opacity:1;paint-order:fill markers stroke"
       d="M 30.672841,144.8407 H -4.6137422"
       id="path54" />
    <path
       style="fill:none;fill-opacity:0.210264;stroke:#000000;stroke-width:2;stroke-linecap:round;stroke-linejoin:round;stroke-dasharray:none;stroke-opacity:1;paint-order:fill markers stroke"
       d="M -1.1499184,129.74734 H 68.206469"
       id="path55" />
    <path
       style="fill:none;fill-opacity:0.210264;stroke:#000000;stroke-width:2;stroke-linecap:round;stroke-linejoin:round;stroke-dasharray:none;stroke-opacity:1;paint-order:fill markers stroke"
       d="M 87.055939,129.74734 H 124.51322"
       id="path56" />
    <path
       style="fill:none;fill-opacity:0.210264;stroke:#000000;stroke-width:2;stroke-linecap:round;stroke-linejoin:round;stroke-dasharray:none;stroke-opacity:1;paint-order:fill markers stroke"
       d="M 5.7373881,106.66313 H 49.719487"
       id="path57" />
    <path
       style="fill:none;fill-opacity:0.210264;stroke:#000000;stroke-width:2;stroke-linecap:round;stroke-linejoin:round;stroke-dasharray:none;stroke-opacity:1;paint-order:fill markers stroke"
       d="M 68.206469,106.66313 H 117.62592"
       id="path58" />
    <path
       style="fill:none;fill-opacity:0.210264;stroke:#000000;stroke-width:2;stroke-linecap:round;stroke-linejoin:round;stroke-dasharray:none;stroke-opacity:1;paint-order:fill markers stroke"
       d="M 8.9997966,96.996739 H 98.897273"
       id="path59" />
    <path
       style="fill:none;fill-opacity:0.210264;stroke:#000000;stroke-width:2;stroke-linecap:round;stroke-linejoin:round;stroke-dasharray:none;stroke-opacity:1;paint-order:fill markers stroke"
       d="m 108.92616,96.996739 h 14.1371"
       id="path60" />
    <path
       style="fill:none;fill-opacity:0.210264;stroke:#000000;stroke-width:2;stroke-linecap:round;stroke-linejoin:round;stroke-dasharray:none;stroke-opacity:1;paint-order:fill markers stroke"
       d="M 28.02421,75.739511 H 69.517707"
       id="path61" />
    <path
       style="fill:none;fill-opacity:0.210264;stroke:#000000;stroke-width:2;stroke-linecap:round;stroke-linejoin:round;stroke-dasharray:none;stroke-opacity:1;paint-order:fill markers stroke"
       d="M 76.694641,75.739511 H 95.491369"
       id="path62" />
    <path
       style="fill:none;fill-opacity:0.210264;stroke:#000000;stroke-width:2;stroke-linecap:round;stroke-linejoin:round;stroke-dasharray:none;stroke-opacity:1;paint-order:fill markers stroke"
       d="M 46.961634,64.974111 H 79.001511"
       id="path63" />
  </g>
</svg>
